<?xml version="1.0" encoding="UTF-8"?>
<!DOCTYPE svg PUBLIC "-//W3C//DTD SVG 1.1//EN" "http://www.w3.org/Graphics/SVG/1.1/DTD/svg11.dtd">
<!-- Creator: CorelDRAW 2017 -->
<svg xmlns="http://www.w3.org/2000/svg" xml:space="preserve" width="3508px" height="2480px" version="1.1" shape-rendering="geometricPrecision" text-rendering="geometricPrecision" image-rendering="optimizeQuality" fill-rule="evenodd" clip-rule="evenodd"
viewBox="0 0 3508 2480.4"
 xmlns:xlink="http://www.w3.org/1999/xlink">
 <g id="Camada_x0020_1">
  <metadata id="CorelCorpID_0Corel-Layer"/>
  <g id="_1841900898912">
   <g id="Layer_2" data-name="Layer 2">
    <g id="Layer_1-2" data-name="Layer 1">
     <g>
      <path fill="#6B6A6A" d="M860.44 803.47c0,-0.03 0,-0.06 0,-0.09 0,-1.34 0.28,-2.67 0.84,-3.88 1.4,-3.6 4.87,-5.97 8.73,-5.97 3.87,0 7.34,2.37 8.74,5.97 0.61,1.29 0.94,2.7 0.94,4.14 0,5.31 -4.31,9.62 -9.63,9.62 -5.31,0 -9.62,-4.31 -9.62,-9.62 0,-0.06 0,-0.12 0,-0.17l0 0zm157.22 -212.51c0,0 0,0 0,0 5.34,0 9.66,4.32 9.66,9.66 0,0.05 0,0.1 0,0.15 0,0.03 0,0.06 0,0.08 0,1.34 -0.29,2.67 -0.84,3.89 -1.41,3.6 -4.88,5.97 -8.74,5.97 -3.86,0 -7.33,-2.37 -8.74,-5.97 -0.55,-1.25 -0.84,-2.6 -0.84,-3.97 0,-0.03 0,-0.06 0,-0.09 0,-5.31 4.28,-9.62 9.59,-9.66l-0.09 -0.06zm-138.91 186.51l0 -42.66 141.69 -48.19c3.56,-1.24 5.94,-4.59 5.94,-8.35 0,-0.02 0,-0.04 0,-0.06l0 -51.47c10.96,-3.73 18.33,-14.04 18.33,-25.61 0,-14.95 -12.12,-27.07 -27.07,-27.07 -14.94,0 -27.06,12.12 -27.06,27.07 0,11.57 7.37,21.88 18.33,25.61l0 45.1 -141.69 48.31c-3.56,1.24 -5.94,4.59 -5.94,8.35 0,0.02 0,0.04 0,0.06l0 48.91c-10.98,3.89 -18.31,14.29 -18.31,25.94 0,15.01 12.02,27.25 27.03,27.53 15.02,-0.26 27.06,-12.51 27.06,-27.53 0,-11.65 -7.34,-22.05 -18.31,-25.95l0 0.01zm0 0l0 0 0 0z"/>
     </g>
     <g>
      <path fill="#E30427" d="M879.59 600.74c0,1.38 -0.29,2.74 -0.84,4 -1.4,3.6 -4.87,5.97 -8.74,5.97 -3.86,0 -7.33,-2.37 -8.73,-5.97 -0.56,-1.22 -0.84,-2.55 -0.84,-3.89 0,-0.03 0,-0.07 0,-0.11 -0.01,-0.18 -0.02,-0.36 -0.02,-0.55 0,-5.29 4.3,-9.59 9.59,-9.59 5.3,0 9.6,4.3 9.6,9.59 0,0.19 -0.01,0.37 -0.02,0.55l0 0zm64.22 39.06c5.17,0.3 9.2,4.57 9.2,9.74 0,5.17 -4.03,9.44 -9.2,9.73 -0.15,0.02 -0.3,0.03 -0.45,0.03 -0.15,0 -0.3,-0.01 -0.45,-0.03 -4.92,-0.52 -8.66,-4.68 -8.66,-9.63 0,-0.01 0,-0.02 0,-0.02 0.02,-2.72 1.15,-5.32 3.13,-7.19 1.76,-1.63 4.07,-2.54 6.46,-2.56l-0.03 -0.07zm-82.53 -13.06l0 47.91c0,0.04 0,0.08 0,0.12 0,2.79 1.31,5.42 3.53,7.1 1.48,1.07 3.27,1.65 5.1,1.65 0.94,0 1.88,-0.15 2.78,-0.43l49.59 -16.88c5.04,6.78 12.99,10.79 21.44,10.82 0.15,0 0.31,0 0.47,0 15.19,0 27.5,-12.32 27.5,-27.5 0,-15.19 -12.31,-27.5 -27.5,-27.5 -15.14,0 -27.43,12.24 -27.5,27.37l-37.94 12.94 0 -35.6c10.97,-3.86 18.31,-14.24 18.31,-25.87 0,-0.04 0,-0.09 0,-0.13 0,-0.05 0,-0.11 0,-0.16 0,-14.98 -12.07,-27.17 -27.06,-27.31 -15.01,0.27 -27.03,12.52 -27.03,27.53 0,11.65 7.33,22.04 18.31,25.94l0 0zm0 0l0 0 0 0z"/>
     </g>
     <g>
      <path fill="#E30427" d="M1008.07 803.47c0,-0.01 0,-0.02 0,-0.02 0,-1.36 0.28,-2.71 0.84,-3.95 1.39,-3.62 4.87,-6.01 8.75,-6.01 3.88,0 7.36,2.39 8.75,6.01 0.6,1.27 0.91,2.66 0.91,4.07 0,5.32 -4.31,9.63 -9.63,9.63 -5.31,0 -9.62,-4.31 -9.62,-9.63 0,-0.03 0,-0.07 0,-0.11l0 0.01zm-64.23 -36.66c-5.36,0 -9.71,-4.36 -9.71,-9.72 0,-5.37 4.35,-9.72 9.72,-9.72l0.9 0c4.92,0.53 8.66,4.68 8.66,9.63 0,0.02 0,0.04 0,0.06 0,2.72 -1.14,5.32 -3.13,7.18 -1.76,1.63 -4.07,2.53 -6.47,2.54l0.03 0.03zm82.54 10.63l0 -45.44c0,-0.01 0,-0.01 0,-0.02 0,-2.84 -1.36,-5.52 -3.66,-7.21 -1.48,-1.09 -3.28,-1.67 -5.12,-1.67 -0.94,0 -1.89,0.15 -2.78,0.46l-49.57 16.87c-5.02,-6.79 -12.95,-10.84 -21.4,-10.91 -0.09,0 -0.19,0 -0.28,0 -15.19,0 -27.5,12.32 -27.5,27.5 0,15.19 12.31,27.5 27.5,27.5 15.1,0 27.38,-12.17 27.5,-27.27l38 -12.94 -0.01 33.16c-10.94,3.73 -18.31,14.03 -18.31,25.6 0,14.95 12.12,27.07 27.07,27.07 14.94,0 27.06,-12.12 27.06,-27.07 0,-11.57 -7.36,-21.87 -18.31,-25.61l-0.19 -0.02zm0 0l0 0 0 0z"/>
     </g>
     <g>
      <path fill="#E30427" d="M1173.73 662.15c-0.14,-0.01 -0.28,-0.01 -0.41,-0.01 -2.03,0 -3.99,0.72 -5.53,2.04 -1.39,1.19 -2.21,2.92 -2.25,4.75l0 26.44 -31.25 0 0 -26.44c0,0 0,0 0,0 0,-1.83 -0.8,-3.56 -2.19,-4.75 -1.46,-1.31 -3.36,-2.04 -5.33,-2.04 -0.11,0 -0.22,0.01 -0.32,0.01 -0.11,0 -0.22,-0.01 -0.33,-0.01 -2.02,0 -3.97,0.71 -5.52,2.01 -1.45,1.16 -2.31,2.92 -2.34,4.78l0 66.44c0.03,1.86 0.89,3.62 2.34,4.78 1.54,1.31 3.49,2.04 5.51,2.04 0.11,0 0.23,0 0.34,-0.01 0.09,0 0.19,0.01 0.29,0.01 1.98,0 3.89,-0.74 5.36,-2.07 1.39,-1.19 2.19,-2.92 2.19,-4.75 0,0 0,0 0,0l0 -25 31.25 0 0 25c0.04,1.83 0.86,3.56 2.25,4.75 1.53,1.33 3.49,2.07 5.52,2.07 0.14,0 0.28,0 0.42,-0.01 0.09,0 0.18,0.01 0.27,0.01 1.97,0 3.87,-0.74 5.32,-2.07 1.4,-1.19 2.22,-2.92 2.25,-4.75l0 -66.44c-0.03,-1.83 -0.85,-3.56 -2.25,-4.75 -1.46,-1.31 -3.36,-2.03 -5.33,-2.03 -0.09,0 -0.18,0 -0.26,0l0 0zm0 0l0 0 0 0z"/>
     </g>
     <g>
      <path fill="#E30427" d="M1349.92 687.12l0 2.25c0,0.02 0,0.05 0,0.07 0,2.26 -1.08,4.38 -2.9,5.71 -2.72,1.64 -5.83,2.51 -9,2.51 -0.51,0 -1.02,-0.03 -1.53,-0.07l-13.51 0 0 -20 13.5 0c0.51,-0.05 1.01,-0.07 1.52,-0.07 3.19,0 6.31,0.93 8.98,2.66 1.88,1.61 2.96,3.96 2.96,6.43 0,0.17 -0.01,0.34 -0.02,0.51l0 0zm4.25 18.75c3.58,-1.33 6.68,-3.72 8.88,-6.84 1.9,-3.15 2.91,-6.76 2.91,-10.44 0,-0.18 0,-0.36 -0.01,-0.53l0 -0.82c0,-0.12 0.01,-0.26 0.01,-0.39 0,-3.19 -0.54,-6.37 -1.6,-9.39 -1.04,-2.93 -2.81,-5.57 -5.12,-7.65 -2.65,-2.31 -5.8,-3.99 -9.19,-4.91 -4.11,-1.12 -8.37,-1.7 -12.63,-1.7 -0.31,0 -0.63,0.01 -0.94,0.02l-21.34 -0.01c-0.12,0 -0.25,-0.01 -0.37,-0.01 -2,0 -3.94,0.72 -5.47,2.01 -1.45,1.16 -2.31,2.9 -2.35,4.75l0 65.07c0.06,1.88 0.9,3.65 2.32,4.9 1.49,1.43 3.49,2.23 5.56,2.23 0.1,0 0.21,-0.01 0.31,-0.01 0.13,0.01 0.26,0.01 0.39,0.01 1.91,0 3.76,-0.67 5.24,-1.88 1.37,-1.16 2.18,-2.86 2.21,-4.66l0 -24.09 16.85 0 12.5 27.47c0.94,1.52 2.47,2.59 4.22,2.96 0.63,0.19 1.28,0.28 1.94,0.28 1.39,-0.02 2.77,-0.39 4,-1.06 1.84,-1.05 3.28,-2.69 4.09,-4.65 0.33,-0.7 0.5,-1.46 0.5,-2.22 0,-1.06 -0.33,-2.1 -0.94,-2.97l-11.97 -25.47z"/>
     </g>
     <g>
      <path fill="#E30427" d="M1440.05 695.15l0 15.63c0.03,0.35 0.04,0.71 0.04,1.07 0,3.85 -1.48,7.55 -4.13,10.33 -2.97,2.51 -6.74,3.88 -10.63,3.88 -0.37,0 -0.75,-0.01 -1.13,-0.03l-12.12 0 0 -47.72 12.13 0c0.36,-0.03 0.72,-0.04 1.09,-0.04 3.97,0 7.78,1.58 10.59,4.38 2.71,3.21 4.19,7.27 4.19,11.46 0,0.35 -0.01,0.7 -0.03,1.04l0 0zm8.37 -22.16c-2.76,-3.08 -6.18,-5.53 -9.99,-7.15 -4.25,-1.72 -8.8,-2.6 -13.39,-2.6 -0.24,0 -0.5,0 -0.74,0l-19.97 0c-0.15,0 -0.31,-0.01 -0.46,-0.01 -2,0 -3.94,0.73 -5.45,2.05 -1.48,1.18 -2.34,2.97 -2.34,4.87l0 64.06c0.02,1.84 0.86,3.58 2.28,4.75 1.53,1.32 3.48,2.04 5.49,2.04 0.14,0 0.28,0 0.42,-0.01l19.94 0.01c0.23,0 0.47,0 0.7,0 4.57,0 9.12,-0.83 13.39,-2.44 7.58,-2.9 13.42,-9.13 15.81,-16.88 1.25,-3.86 1.88,-7.89 1.88,-11.95 0,-0.1 0,-0.2 0,-0.3l0 -13.03c0,-0.08 0,-0.18 0,-0.26 0,-4.23 -0.64,-8.45 -1.88,-12.49 -1.15,-3.89 -3.12,-7.5 -5.78,-10.56l0.09 -0.1zm0 0l0 0 0 0z"/>
     </g>
     <path fill="#E30427" d="M1650.71 710.4l-17.62 0 8.75 -25.53 8.87 25.53zm2.1 -42.62c0,0 -2.06,-5.51 -10.97,-5.51 -8.91,0 -11,5.66 -11,5.66l-22.69 65.1c-0.14,0.52 -0.21,1.07 -0.21,1.61 0,1.28 0.39,2.53 1.12,3.57 1.19,1.82 3.06,3.1 5.18,3.57 0.76,0.19 1.54,0.29 2.32,0.31 0,0 0,0 0,0 1.25,0 2.48,-0.3 3.59,-0.88 1.66,-0.78 2.95,-2.18 3.59,-3.9l4.47 -12.88 27.41 0 4.41 12.72c0.54,1.74 1.8,3.18 3.46,3.94 1.17,0.58 2.45,0.88 3.75,0.88 0.77,0 1.54,-0.11 2.29,-0.32 2.13,-0.44 3.99,-1.73 5.15,-3.56 0.67,-1.04 1.02,-2.25 1.02,-3.48 0,-0.59 -0.08,-1.18 -0.24,-1.74l-22.65 -65.09z"/>
     <g>
      <path fill="#E30427" d="M1747.44 687.12l0 2.25c0,0.05 0,0.1 0,0.16 0,2.27 -1.1,4.41 -2.94,5.75 -2.7,1.64 -5.79,2.5 -8.95,2.5 -0.52,0 -1.04,-0.02 -1.55,-0.07l-13.5 0 0 -20.12 13.5 0c0.49,-0.05 1,-0.07 1.5,-0.07 3.18,0 6.3,0.93 8.97,2.66 1.89,1.62 2.98,3.98 2.98,6.47 0,0.15 -0.01,0.31 -0.01,0.47l0 0zm4.21 18.75c3.59,-1.33 6.69,-3.71 8.88,-6.84 1.92,-3.17 2.94,-6.8 2.94,-10.5 0,-0.16 0,-0.32 0,-0.47l0 -0.82c0,-0.11 0,-0.25 0,-0.37 0,-3.2 -0.54,-6.39 -1.6,-9.41 -1.04,-2.93 -2.8,-5.57 -5.12,-7.65 -2.71,-2.33 -5.92,-4.01 -9.38,-4.91 -5.77,-1.12 -11.67,-1.69 -17.56,-1.69 -0.32,0 -0.67,0 -0.99,0l-16.17 0c-0.12,0 -0.24,-0.01 -0.37,-0.01 -2,0 -3.94,0.72 -5.47,2.01 -1.45,1.16 -2.31,2.9 -2.34,4.75l0 65.07c0.06,1.87 0.88,3.64 2.28,4.9 1.66,1.43 3.78,2.22 5.97,2.22 2.01,0 3.96,-0.66 5.56,-1.88 1.37,-1.15 2.18,-2.85 2.22,-4.65l0 -24.09 16.9 0 12.5 27.47c0.94,1.52 2.47,2.6 4.22,2.96 0.63,0.19 1.28,0.28 1.93,0.28 0,0 0.01,0 0.01,0 1.4,-0.02 2.77,-0.39 4,-1.06 1.85,-1.05 3.29,-2.69 4.1,-4.65 0.31,-0.7 0.48,-1.45 0.48,-2.21 0,-1.07 -0.32,-2.1 -0.92,-2.98l-12.07 -25.47z"/>
     </g>
     <g>
      <path fill="#E30427" d="M1801.81 662.15c-0.13,-0.01 -0.27,-0.01 -0.41,-0.01 -2.03,0 -3.99,0.72 -5.53,2.04 -1.41,1.18 -2.23,2.91 -2.25,4.75l0.01 66.35c0.01,1.83 0.83,3.57 2.24,4.75 1.54,1.31 3.5,2.04 5.53,2.04 0.14,0 0.28,-0.01 0.41,-0.01 0.08,0 0.16,0 0.23,0 1.98,0 3.89,-0.73 5.37,-2.03 1.41,-1.18 2.23,-2.92 2.25,-4.75l0 -66.35c-0.02,-1.84 -0.84,-3.57 -2.25,-4.75 -1.48,-1.31 -3.38,-2.03 -5.36,-2.03 -0.08,0 -0.16,0 -0.24,0l0 0zm0 0l0 0 0 0z"/>
     </g>
     <g>
      <path fill="#E30427" d="M1871.41 726.97c-4.5,0 -10.63,-1.25 -13.22,-3.72 -2.59,-2.47 -3.91,-6.72 -3.91,-12.75l0 -16.57c0,-6 1.32,-10.31 3.91,-12.75 2.59,-2.44 8.72,-3.72 13.22,-3.72 4.5,0 10.84,1.25 13.34,3.72 2.5,2.47 3.78,6.72 3.78,12.75l0 16.57c0,6.03 -1.28,10.31 -3.78,12.75 -2.5,2.43 -8.68,3.72 -13.34,3.72l0 0zm31.25 -45.44c-1.13,-3.75 -3.05,-7.22 -5.62,-10.16 -2.66,-2.94 -5.94,-5.26 -9.6,-6.78 -5.19,-1.61 -10.62,-2.44 -16.06,-2.44 -5.44,0 -10.87,0.83 -16.06,2.44 -3.64,1.52 -6.91,3.84 -9.54,6.78 -2.54,2.95 -4.44,6.42 -5.56,10.16 -1.2,3.93 -1.81,8.05 -1.81,12.17 0,0.11 0,0.22 0,0.32l0 16.44c0,0.11 0,0.24 0,0.35 0,4.11 0.61,8.22 1.81,12.15 1.11,3.74 3.01,7.21 5.56,10.16 2.68,2.9 6,5.16 9.69,6.59 5.19,1.61 10.62,2.44 16.06,2.44 5.45,0 10.87,-0.83 16.06,-2.44 3.67,-1.5 6.96,-3.82 9.6,-6.78 2.58,-2.94 4.51,-6.41 5.63,-10.16 1.2,-3.93 1.81,-8.03 1.81,-12.15 0,-0.11 0,-0.23 0,-0.35l0 -16.34c0,-0.11 0,-0.21 0,-0.32 0,-4.12 -0.62,-8.24 -1.82,-12.18l-0.15 0.1zm0 0l0 0 0 0z"/>
     </g>
     <g>
      <path fill="#E30427" d="M1587.24 666.62c-0.88,-1.93 -2.51,-3.43 -4.5,-4.16 -0.83,-0.29 -1.71,-0.44 -2.59,-0.44 -3.4,0 -6.43,2.18 -7.5,5.41l-14.69 42.41 -14.56 -42.47c-1.18,-3.17 -4.19,-5.29 -7.57,-5.35 -3.37,0.01 -6.37,2.17 -7.43,5.38l-14.69 42.47 -14.5 -42.47c-0.71,-2.01 -2.18,-3.66 -4.1,-4.59 -1.04,-0.53 -2.2,-0.8 -3.37,-0.8 -0.9,0 -1.81,0.16 -2.66,0.48 -3.16,1.2 -5.25,4.22 -5.25,7.61 0,0.9 0.15,1.79 0.44,2.64l22.09 63.94c1.05,3.25 4.06,5.47 7.47,5.5 3.4,-0.04 6.41,-2.22 7.5,-5.44l14.66 -42.43 14.66 42.34c1.05,3.22 4.06,5.4 7.45,5.4 3.39,0 6.4,-2.18 7.45,-5.4l22.16 -64.06c0.33,-0.88 0.5,-1.82 0.5,-2.77 0,-1.2 -0.28,-2.4 -0.81,-3.48l-0.16 0.28zm0 0l0 0 0 0z"/>
     </g>
     <path fill="#E30427" d="M1253.2 710.34l-17.63 0 8.75 -25.53 8.88 25.53zm2.25 -42.63c0,0 -2.06,-5.5 -10.97,-5.5 -8.91,0 -10.97,5.66 -10.97,5.66l-22.84 65.1c-0.15,0.53 -0.22,1.09 -0.22,1.64 0,1.27 0.38,2.5 1.09,3.54 1.21,1.82 3.09,3.1 5.22,3.56 0.76,0.2 1.54,0.3 2.31,0.32 1.24,-0.01 2.47,-0.31 3.57,-0.88 1.67,-0.79 2.96,-2.2 3.59,-3.94l4.47 -12.84 27.41 0 4.43 12.72c0.52,1.75 1.78,3.19 3.44,3.94 1.16,0.57 2.45,0.87 3.75,0.87 0.77,0 1.54,-0.1 2.28,-0.31 2.19,-0.41 4.11,-1.7 5.32,-3.56 0.68,-1.06 1.04,-2.28 1.04,-3.54 0,-0.58 -0.08,-1.16 -0.23,-1.72l-22.69 -65.06z"/>
    </g>
   </g>
  </g>
  <rect fill="none" x="615.83" y="1143.19" width="1063.03" height="248.04"/>
  <g>
   <path fill="white" d="M827.57 1262.8c4.68,0.13 9.23,2.25 12.25,5.87 0.11,0.13 0.14,0.17 0.25,0.3 4.16,5.35 9.44,10.45 9.8,17.43 0.02,0.4 0.02,0.99 0.02,0.99 0.09,0.08 0.19,0.15 0.28,0.23 7.02,5.6 11.83,13.74 11.56,22.9 -0.27,8.92 -4.98,17.61 -12.63,22.54 -3.83,2.46 -8.2,3.99 -12.68,4.77l0.43 3.71c0.34,4.27 -0.89,8.62 -3.55,11.91 -2.25,2.78 -5.41,4.77 -8.91,5.64 -4.9,1.12 -9.84,2.7 -14.5,1.53 -1.19,-0.3 -2.35,-0.74 -3.44,-1.31 -5.74,-0.55 -11.28,-2.78 -15.79,-6.34 0,0 -0.98,0.27 -1.96,0.42 -0.08,5 -2.54,9.87 -6.61,12.93 -2.58,1.86 -5.2,3.71 -7.8,5.57 -0.47,0.33 -0.52,0.36 -0.76,0.51 -1.43,0.89 -3,1.56 -4.65,1.98 0,0 -1.32,1.34 -2.76,2.32 -3.91,2.68 -8.91,3.19 -13.69,4.22l-0.59 0.13c-0.55,0.11 -0.69,0.13 -0.97,0.17 -3.37,0.49 -6.88,-0.14 -9.93,-1.71 0,0 -2.07,0.76 -3.71,1.21 -10.01,2.75 -21.42,1.56 -29.96,-4.94 -5.82,-4.43 -9.69,-11.27 -10.7,-18.52 0,0 -1.53,-0.8 -2.85,-1.46l-2.13 -1.06c-0.61,-0.34 -1.21,-0.71 -1.79,-1.11 -0.44,0.37 -0.5,0.41 -0.73,0.59 -3.09,2.3 -6.95,3.27 -10.87,3.29 -2.83,0 -5.67,-0.01 -8.5,-0.01 -0.54,-0.01 -0.59,-0.01 -0.86,-0.03 -1.67,-0.1 -3.31,-0.46 -4.87,-1.07 0,0 -1.15,1.6 -2.41,2.75 -3.23,2.97 -7.65,4.58 -12.08,4.32 -3.47,-0.25 -6.95,-0.54 -10.43,-0.82l-0.75 -0.06c-0.72,-0.06 -0.98,-0.11 -1.43,-0.19 -7.73,-1.38 -13.99,-8.86 -13.49,-17.04 0.1,-1.61 0.32,-3.23 0.49,-4.84 2.2,-20.85 4.61,-41.65 6.9,-62.37 0,0 0.42,-2.88 1.46,-5.07 2.95,-6.16 9.91,-10.08 16.84,-9.26 4.54,0.63 9.02,1.26 13.6,1.96l0.46 -0.88 -0.81 -0.88 -0.93 -1.4c-0.93,-2.15 -1.28,-4.5 -1.54,-6.8 -0.32,-2.78 -0.52,-5.58 -0.59,-8.38l-0.12 -0.13 -1.62 -0.91c-0.47,-0.39 -0.98,-0.75 -1.41,-1.19 -1.73,-1.77 -2.75,-4.2 -2.79,-6.67 -0.01,-0.83 0.11,-1.68 0.25,-2.44 2.41,-13.2 5.69,-26.4 11.17,-38.51 1.88,-4.16 4.03,-8.28 7.06,-11.68 5.49,-6.19 12.76,-10.56 20.09,-14.43 13.22,-6.97 27.43,-12.24 41.92,-15.7 10.12,-2.42 20.85,-4.2 30.69,-0.76 4.07,1.42 7.85,3.57 11.26,6.22l1.33 -0.06c1.53,0.2 1.95,0.15 3.39,0.76 0.54,0.22 1.03,0.54 1.54,0.81 0.08,0.05 0.08,0.05 0.16,0.11 3.6,2.43 6.64,5.78 8.7,9.6 1.34,0.06 2.67,0.25 3.98,0.56l0.21 0.05 1.72 0.6c0.53,0.3 1.09,0.55 1.59,0.9 0.99,0.7 1.85,1.59 2.52,2.6 0.34,0.51 0.58,1.07 0.86,1.61 0,0 1.22,0.77 2.14,1.44 6.1,4.46 9.8,11.74 11.11,19.25 1.97,11.38 0.67,23.33 -1.65,34.41 0,0 -0.25,1.08 -0.54,1.79 -0.57,1.4 -0.82,1.58 -1.68,2.68 -0.03,0.18 -0.05,0.36 -0.07,0.54 -0.39,2.83 -0.98,5.64 -1.77,8.38 0,0 0.66,2.07 1.17,4.09 1.02,4.06 1.39,8.28 1.11,12.46 -0.06,0.94 -0.16,1.88 -0.29,2.81 0,0 1.44,1.76 2.17,3.13 0,0 2.24,-2.4 4.03,-3.7 2.82,-2.05 6.25,-3.25 9.76,-3.26 0.16,0 0.16,0 0.32,0zm-18.62 96.65c0,0 0.39,0 0.09,0 -0.03,0 -0.11,-0.01 -0.09,0zm-116.81 -7.22l0.07 0c0,0 -0.21,-0.03 -0.07,0zm4.46 -3.87l-0.01 0.13 0.15 -0.78c-0.05,0.21 -0.09,0.43 -0.14,0.65zm0.48 -1.81c-0.03,0.09 -0.07,0.21 -0.13,0.37 0.04,-0.09 0.09,-0.22 0.15,-0.36l-0.02 -0.01z"/>
   <path fill="#1F0933" d="M752.54 1150.72c8.59,0.04 17.06,2.95 23.97,8.1l0.46 -0.02c2.1,0.08 4.13,0.71 6.01,1.76 0.22,0.12 0.35,0.2 0.35,0.2 3.65,2.39 6.73,5.66 8.99,9.41 0,0 2.95,0.49 3.31,0.58 0.08,0.02 0.15,0.04 0.22,0.07l1.73 0.59c2.56,1.16 4.74,3.14 6.01,5.7 0,0 1.3,0.85 2.34,1.65 6.48,5.04 10.28,13.16 11.56,21.14 1.77,11.02 0.66,22.34 -1.58,33.41 -0.42,2.11 -1.04,4.18 -2.48,5.99 0,0 -0.41,2.73 -0.88,4.86 -0.21,0.95 -0.44,1.89 -0.7,2.83l-0.06 0.25c1.85,6.06 2.69,12.32 2.01,18.6l0.04 0.18c3.95,-3.66 9.12,-5.96 14.67,-5.56 5.61,0.41 10.7,3.63 14.21,8.02 4.36,5.41 9.12,10.86 9.52,17.7 0,0 1.03,0.91 1.87,1.71 5.49,5.21 9.35,12.26 9.93,19.8 0.86,11.21 -5.3,22.72 -15.23,28.33 -3.04,1.71 -6.36,2.93 -9.76,3.72l0.17 1.57c0.4,5.21 -1.23,10.56 -4.75,14.44 -2.68,2.95 -6.33,4.91 -10.22,5.82 -5.72,1.36 -11.54,2.99 -17.46,0.53 -0.43,-0.18 -1.02,-0.46 -1.02,-0.46 -5.33,-0.6 -10.5,-2.53 -14.92,-5.56 -0.75,4.71 -3.43,9.19 -7.34,12.15 -2.73,1.98 -5.46,3.98 -8.21,5.86 -1.56,1.06 -3.3,1.86 -5.12,2.41 0,0 -1.42,1.27 -2.64,2.12 -4.13,2.86 -9.47,3.55 -14.39,4.58l-0.83 0.18c-3.86,0.78 -7.91,0.3 -11.48,-1.28 0,0 -1.6,0.54 -2.98,0.92 -12.42,3.43 -26.86,0.94 -35.82,-8.8 -3.91,-4.25 -6.55,-9.59 -7.62,-15.34l-0.01 -0.06c-0.76,-0.39 -1.76,-0.89 -1.76,-0.89l-2.17 -1.09c-0.34,-0.18 -0.36,-0.43 -1.02,0 -5.29,3.35 -12.03,3.06 -18.7,3.05l-1.08 0c-1.65,-0.02 -3.29,-0.25 -4.87,-0.7 0,0 -0.82,0.96 -1.56,1.65 -3.7,3.45 -8.84,5.3 -13.93,5.01 -3.49,-0.26 -6.97,-0.54 -10.46,-0.82l-0.76 -0.06c-9.63,-0.9 -17.79,-10.01 -17.08,-20.08 0.29,-4.14 0.86,-8.28 1.31,-12.44 1.97,-18.17 4.06,-36.4 6.07,-54.62 0.52,-3.37 1.79,-6.7 3.99,-9.41 4.03,-4.94 10.62,-7.71 16.99,-6.96 3.12,0.43 6.25,0.87 9.37,1.32 0,0 0.22,0.25 -0.01,-0.41 -1.47,-4.3 -1.64,-8.99 -1.82,-13.53l-0.56 -0.35 -0.37 -0.26c-0.05,-0.04 -0.1,-0.08 -0.15,-0.12 -0.98,-0.79 -1.91,-1.65 -2.64,-2.67 -1.97,-2.77 -2.6,-6.3 -1.98,-9.76 2.54,-13.85 5.95,-27.62 11.98,-40.47 2.2,-4.67 4.93,-9.12 8.64,-12.82 6.1,-6.1 13.83,-10.45 21.46,-14.32 14.09,-7.14 29.05,-12.43 44.57,-15.65 4.71,-0.97 9.49,-1.67 14.29,-1.7 0.12,0 0.25,0 0.38,0zm-62.84 200.53c0,0 6.67,3.22 7.72,3.76 1.51,0.79 1.51,2.12 1.78,3.47 0.11,0.56 0.25,1.12 0.4,1.68 2.19,8.06 8.32,14.84 16.71,17.79 7.69,2.71 16.34,2.04 23.81,-0.69l0.64 -0.13c1.25,0.07 2.38,0.83 3.63,1.22 3.73,1.16 7.71,0.2 11.63,-0.58 4.03,-0.8 7.95,-1.89 11.17,-5.06 0,0 0.94,-0.58 1.62,-0.78 3.29,-0.99 6.05,-3.37 8.98,-5.46 1.99,-1.43 4.05,-2.78 5.52,-4.68 1.86,-2.4 2.95,-5.4 3.01,-8.44l0.16 -0.81c0.37,-0.62 0.41,-0.87 1.07,-1.23 0.74,-0.42 1.62,-0.41 2.45,-0.63 0,0 0.81,-0.2 1.49,0.05 0.83,0.31 1.42,0.97 2.15,1.47 3.78,2.58 8.21,4.22 12.79,4.71l0.25 0.03 0.86 0.25c0.18,0.09 0.34,0.12 0.34,0.12l0.53 -0.19 0.77 -0.06c0.7,0.14 0.95,0.09 1.52,0.58 0.36,0.3 0.6,0.84 0.6,0.84 4.13,0.69 8.36,-0.75 12.54,-1.71 4.5,-1.13 8.36,-4.57 9.86,-8.93 0.67,-1.92 0.92,-3.99 0.78,-6.03l-0.43 -3.7 0.07 -0.89c0.26,-0.55 0.55,-1.1 1.05,-1.41 0.56,-0.35 1.21,-0.39 1.83,-0.51 5.77,-1.18 11.34,-3.76 15.38,-8.06 6.86,-7.32 9.03,-18.72 4.45,-27.89 -1.95,-3.9 -4.86,-7.27 -8.28,-9.97l-0.62 -0.63c-0.68,-1.38 -0.4,-3.06 -0.83,-4.74 -1.4,-5.37 -5.65,-9.39 -8.9,-13.56 -3.07,-3.81 -8.16,-5.85 -12.95,-5.1 -3.93,0.6 -7.29,3.12 -10.03,6.02 0,0 -0.41,0.39 -0.76,0.55 -0.83,0.39 -1.86,0.24 -2.54,-0.34 -0.67,-0.56 -0.98,-1.43 -1.5,-2.16 -0.38,-0.53 -0.98,-1.28 -0.98,-1.28 -0.91,-1.5 -0.23,-3.72 -0.17,-5.95 0.13,-4.78 -0.78,-9.51 -2.22,-14.11 0,0 -0.14,-1.1 0.1,-1.97 0.72,-2.6 1.26,-5.25 1.6,-7.92 0,0 0.15,-0.73 0.51,-1.31 0.01,-0.02 1.05,-1.27 1.4,-2.24 0.6,-1.63 0.81,-3.39 1.12,-5.11 1.84,-10.13 2.74,-20.59 0.69,-30.64 -1.4,-6.83 -4.9,-13.3 -10.73,-17.27 -0.51,-0.35 -1.26,-0.83 -1.26,-0.83 -1.17,-0.98 -1.63,-2.91 -3.34,-4.17 -0.36,-0.27 -0.78,-0.47 -1.18,-0.69 -0.57,-0.31 -0.15,-0.08 -0.15,-0.08l-1.41 -0.49c-0.1,-0.02 -0.1,-0.02 -0.2,-0.04 -1.12,-0.26 -2.26,-0.42 -3.42,-0.47l-0.79 -0.17c-0.99,-0.62 -1.54,-1.73 -2.15,-2.68 -1.82,-2.83 -4.21,-5.28 -6.99,-7.16 0,0 -0.99,-0.6 -1.66,-0.85 -0.71,-0.27 -1.49,-0.33 -2.26,-0.43l-1.06 0.06c-1.55,-0.2 -2.87,-1.51 -4.38,-2.49 -3.84,-2.5 -8.13,-4.33 -12.66,-5.11 -8.19,-1.42 -16.57,0.19 -24.46,2.08 -15.96,3.81 -31.32,9.66 -45.74,17.89 -7.25,4.13 -14.26,9.17 -18.52,16.33 -3.29,5.5 -5.6,11.55 -7.64,17.67 -2.85,8.55 -4.88,17.41 -6.5,26.23 -0.21,1.14 -0.36,2.3 -0.15,3.44 0.34,1.85 1.43,3.47 2.93,4.66 0.51,0.42 0.14,0.11 0.14,0.11 1.02,0.58 1.06,0.52 1.99,1.25 0,0 0.41,0.43 0.59,0.86 0.24,0.59 0.18,1.23 0.2,1.86 0.17,4.45 0.23,9.07 1.81,13.02l0.03 0.07c0.61,0.94 0.6,0.95 1.37,1.77l0.41 0.61c0.18,0.62 0.31,0.78 0.19,1.44 -0.04,0.24 -0.13,0.47 -0.23,0.7 -0.3,0.66 -1.02,1.94 -2.21,2.13 -0.96,0.15 -1.65,-0.14 -2.44,-0.26 -3.95,-0.59 -7.89,-1.15 -11.83,-1.69 -6.52,-0.77 -13.36,3.44 -15.18,10.18 -0.18,0.67 -0.33,1.35 -0.45,2.03l-0.01 0.06c-2.3,20.81 -4.68,41.86 -6.92,62.62 -0.07,0.61 -0.14,1.22 -0.21,1.83 -0.25,2.26 -0.4,4.58 0.19,6.77 1.5,5.55 6.49,9.99 12.32,10.54 3.5,0.27 6.99,0.56 10.49,0.83l0.63 0.04c4.8,0.27 9.49,-2.11 12.39,-6.08 0,0 0.3,-0.37 0.57,-0.56 1.27,-0.9 3.01,0.14 4.88,0.46 3.47,0.61 7.45,0.28 11.14,0.2 3.2,-0.07 6.43,-0.88 9.03,-2.81 0.38,-0.28 0.64,-0.5 0.64,-0.5l0.66 -0.39 0.76 -0.16zm119.45 6.65c0.61,0.23 1.23,0.4 1.86,0.53l0.01 -0.17 -0.64 -0.72c-0.15,-0.11 -0.15,-0.11 -0.32,-0.2l-0.9 -0.23c0,0.27 -0.01,0.53 -0.01,0.79z"/>
   <path fill="#1371FF" d="M744.12 1255.57c3.77,-13.38 18.06,-23.46 32.05,-20.48 17.29,3.69 23.39,14.16 23.6,24.63 0.2,10.47 -5.59,22.46 -14.59,26.29 -8.99,3.83 -19.36,1.47 -19.36,1.47 0,0 -20.27,-4.24 -22.47,-22.03 -0.1,-0.77 -0.16,-1.55 -0.18,-2.31l-9.47 -1.76 0.08 -5.81 10.34 0zm-44.53 28.48c0,0 -20.27,-4.24 -22.47,-22.03 -2.2,-17.79 15.54,-34.05 32.82,-30.36 17.29,3.69 23.4,14.16 23.6,24.63 0.2,10.47 -5.59,22.46 -14.58,26.29 -9,3.83 -19.37,1.47 -19.37,1.47zm71.95 -39.92c10.73,0 19.44,8.71 19.44,19.44 0,10.73 -8.71,19.44 -19.44,19.44 -10.73,0 -19.44,-8.71 -19.44,-19.44 0,-10.73 8.71,-19.44 19.44,-19.44zm-66.23 -3.43c10.74,0 19.45,8.71 19.45,19.44 0,10.73 -8.71,19.44 -19.45,19.44 -10.73,0 -19.44,-8.71 -19.44,-19.44 0,-10.73 8.71,-19.44 19.44,-19.44z"/>
   <path fill="white" d="M708.15 1289.44c-0.7,-1.31 -0.91,-2.08 -0.91,-2.08 0,0 8.7,0.5 17.52,-6.21 8.81,-6.71 8.78,-18.72 8.78,-18.72l9.56 0c0,0 2.63,13.86 9,18.37 6.36,4.52 15.39,9.43 15.39,9.43 0,0 -0.7,0.67 -1.95,1.73l0 0c0,0 -3.75,4.37 -9.29,7.83 -5.54,3.47 -19.86,7.72 -19.86,7.72 0,0 -0.24,-0.06 -0.69,-0.18 -5.47,0.81 -9.13,-1.01 -16.27,-6.1 -6.83,-4.88 -9.94,-9.31 -11.28,-11.79l0 0 0 0zm74.46 -3.72c0,0 14.93,2.41 18.76,-3.77 3.83,-6.18 0.56,-9.12 -1.6,-9.65 -2.16,-0.52 -2.04,1.28 -7.66,5.74 -5.62,4.46 -9.5,7.68 -9.5,7.68zm-109.01 -11.74c-1.27,-4.3 1.2,-6.4 3.18,-5.79 0.14,0.05 0.27,0.09 0.39,0.14 1.19,-0.24 2.2,-0.09 2.2,-0.09 0,0 0.8,3.66 3.73,8.13 1.11,1.7 2.07,3.23 2.83,4.46 0.48,0.08 0.89,0.14 1.23,0.21 0.64,0.13 0.25,0.41 -0.73,0.6 0.93,1.51 1.45,2.41 1.45,2.41 -6.4,0.18 -13.53,-4.57 -14.28,-10.07zm97.87 -31.07c10.77,0 19.51,8.75 19.51,19.52 0,10.77 -8.74,19.52 -19.51,19.52 -10.78,0 -19.52,-8.75 -19.52,-19.52 0,-10.77 8.74,-19.52 19.52,-19.52zm-66.23 -2.94c10.77,0 19.52,8.75 19.52,19.52 0,10.77 -8.75,19.52 -19.52,19.52 -10.77,0 -19.52,-8.75 -19.52,-19.52 0,-10.77 8.75,-19.52 19.52,-19.52zm30.34 15.6c0,0 -6.71,-9.42 1.79,-12.66 8.49,-3.23 14.74,-4.82 10.99,1.22 -3.75,6.04 -5.98,13.82 -5.98,13.82l-6.8 -2.38zm-58.31 -0.62l-5.17 -0.34 0.95 -23.48 -6.45 3.44c0,0 4.49,-33.56 21.04,-45.22 16.54,-11.67 50.45,-20.94 58.81,-22.95 8.36,-2.01 20.09,1.6 25.42,8.6 5.34,7 10.89,13.63 10.89,13.63 0,0 9.69,-2 14.61,2.63 4.92,4.62 7.44,11.27 7.17,20.08 -0.27,8.81 -2.39,16.26 -2.39,16.26l-2.38 -2.39 -4.3 21.06c0,0 -5.26,-6.76 -6.51,-10.78 -1.25,-4.03 -30.92,-0.47 -32.71,1.19 -1.79,1.67 -18.29,4.85 -21.24,6.23 -2.95,1.38 -6.04,-1.48 -13.54,-6.99 -7.49,-5.51 -18.07,-5.48 -29.4,-1.35 -11.33,4.12 -14.66,18.21 -14.8,20.38z"/>
   <path fill="#F2AE9C" d="M708.28 1286.72c0,0 11.73,13.27 27.3,18.57 0,0 14.63,-1.67 29.76,-13.95 15.12,-12.27 -3.92,-5.39 -8.35,-7.28 -4.42,-1.89 -10.74,-6.48 -12.45,-11.85 -1.71,-5.36 -2.16,-8.99 -2.16,-8.99l-2.63 -0.79 -2.38 1.5c-2.94,2.48 -5.32,5.01 0,8.28l5.97 1.85c0,0 -8.1,-0.98 -8.84,3.26 -0.75,4.24 2.84,6.32 7.17,6.22 4.32,-0.11 -3.03,4.28 -7.17,1.43 -4.15,-2.84 -6.02,-7.56 -6.02,-7.56l-20.2 9.31zm31 7.34c0,0 -3.4,-0.14 -5.02,-0.96 -1.63,-0.82 1.28,-0.22 4.3,-0.24 3.03,-0.02 3.93,1.13 0.72,1.2zm57.61 -20c0,0 4.91,0.24 3.59,4.39 -1.32,4.15 -4.48,7.37 -9.5,7.24 -5.02,-0.13 -1.03,-3.5 1.89,-7.17 2.93,-3.67 4.02,-4.46 4.02,-4.46zm-117.28 -4.95c0,0 -3.74,0.06 -3.93,3.67 -0.18,3.61 3.4,7.21 6.7,8.26 3.3,1.05 6.37,2.18 4.78,-0.85 -1.59,-3.03 -7.55,-11.08 -7.55,-11.08zm58.95 -13.11c0,0 -4.91,-0.87 -4.54,-6.41 0.36,-5.53 11.92,-10.9 12.43,-5.5 0.51,5.41 -3.93,12.26 -7.89,11.91z"/>
   <path fill="#1F0933" d="M723.2 1238.68c-4.32,-3.19 -10.52,-6.75 -17.39,-7.55 -13.05,-1.5 -23.14,9.21 -28.01,21.34 0,0 -3.13,-45.58 33.75,-65.75 0,0 -14.41,4.26 -25.68,19.84 -11.27,15.58 -13.53,22.47 -13.53,22.47 0,0 5.59,-24.25 18.17,-34.42 12.57,-10.18 37.12,-17.37 49.98,-20.33 12.86,-2.95 31.94,-1.48 37.99,24.63 0,0 9.6,-5.79 15.3,-2.87 5.71,2.92 5.99,24.12 5.99,24.12l-2.84 -1.25c0,0 -2.44,-4.9 -4.58,-7.33 0,0 5.72,11.71 -1.37,29.12 0,0 -8.98,-5.75 -12.02,-6.13 -1.11,-0.14 -2.1,-1.15 -3.25,-2.24 4.75,0.59 7.19,2.86 4.69,1.06 -3.75,-2.7 -3.93,-5.55 -3.93,-5.55l-13.39 -1.18c-24.27,12.67 -39.18,10.84 -39.18,10.84l-0.7 1.18 0 0zm27.63 -0.53c-0.96,0.38 -2.01,0.76 -3.19,1.16 -12.73,4.33 -18.17,4.82 -18.17,4.82 0,0 -1.36,-1.47 -3.71,-3.43 2.36,1.26 6.46,2.33 12.8,0.53 4.5,-1.27 8.49,-2.19 12.27,-3.08zm32.35 -21.77c0.42,0.35 0.69,0.73 0.8,1.18 0.61,2.42 0.21,8.36 0.21,8.36 0,0 0.99,-6.12 1.7,-8.36 0.72,-2.24 -0.95,-3.11 -0.95,-3.11 -6.42,-2.9 -17.67,-4.8 -20.56,-5.04 -2.89,-0.25 -3.35,2.41 -3.35,2.41l-0.03 13.87 2.66 -0.25c0,0 0.14,-0.42 0.3,-1.37l1.23 -0.76 2.3 -5.75c0,0 1.21,3.56 6.21,4.25 5,0.67 6.7,-1.65 6.7,-1.65l0 4.67c0,0 1.66,-0.7 1.91,-4.67 0.14,-2.36 1.15,-3.23 0.87,-3.78zm-68.51 4.75c-0.14,1.28 -0.26,2.16 -0.26,2.16l3.25 0.16c0,0 0.76,-7.64 0.82,-10.14 0.05,-2.5 0.36,-5.1 -3.11,-5.32 -5.62,-0.35 -17.36,1.23 -20.08,2.46 -2.72,1.23 -2.15,2.86 -2.15,2.86l1.56 11.52c0,0 1.28,-0.88 2.05,-2.82 0.6,2.01 1.19,1.76 1.19,1.76l0.47 -1.96 0.47 -5.21c0,0 1.91,1.67 6.93,1.67 5.02,0 7.17,-1.43 7.17,-1.43l0.7 4.5c0,0 0.52,0.28 0.99,-0.21zm50.51 -7.11c-0.26,0.98 -0.55,2.75 -0.8,4.54l0 0c0.03,-2.16 0.15,-3.65 0.8,-4.54zm2.09 -1.02c1,-0.11 2.35,0.01 4.18,0.31 4.82,0.81 9.04,1.42 11.16,2.67 -0.47,-0.18 -1.24,-0.36 -2.45,-0.61 -3.73,-0.77 -9.72,-2.49 -12.89,-2.37zm-68.78 -0.17c-0.4,0.1 -0.74,0.15 -1.05,0.18 0.28,-0.07 0.62,-0.12 1.05,-0.18zm5.43 -0.47c0.22,-0.02 0.45,-0.04 0.69,-0.06 10.55,-0.9 10.14,-2.43 10.52,-0.02l0 0c-0.98,-0.03 -6.66,-0.09 -11.21,0.08z"/>
   <path fill="#1F0933" d="M675.99 1266.56c-0.78,-2.9 -1.15,-5.96 -1.03,-9.11l0.01 -0.16c-3.15,0.45 -4.97,0.68 -4.97,0.68 -1.27,-8.34 -1.24,-15.73 -0.32,-22.24 -2.41,1.01 -5.24,2.17 -6.59,2.64 0,0 5.09,-29.57 14.28,-43.71 9.18,-14.15 54.11,-31.28 74.82,-31.83 13.81,-0.36 23.02,10.28 27.62,17.42 -0.4,-3.44 -1.27,-7.17 -3.12,-9.3 0,0 8.08,5.18 7.09,13.67 0,0 3.22,-3.48 8.97,-2.05 0,0 -4.13,0.39 -3.97,2.8l0 0c4.04,-0.17 9.52,1.04 13.63,7.38 7.37,11.36 1.36,39.21 1.36,39.21l-2.48 -2.71c0.34,1.73 0.5,3.53 0.39,5.33 -0.38,5.79 -1.85,10.55 -2.86,13.25 2.13,4.36 3.25,9.29 3.05,14.48 -0.12,3.09 -0.7,6.05 -1.66,8.83 2.88,0.7 7.06,2.94 4.27,9.97 -3.48,8.77 -13.15,9.73 -21.15,8.04 -3.42,1.45 -7.16,2.29 -11.06,2.38 -22.36,18 -36.21,19.01 -36.21,19.01 -14.35,-3.37 -28.68,-16.32 -34.18,-21.73 -3.67,-0.41 -7.14,-1.48 -10.28,-3.08 -7.97,0.91 -17.15,-0.92 -19.88,-9.71 -2.06,-6.62 1.43,-8.77 4.27,-9.46zm79.08 20.17c-7.46,-4.81 -12.66,-12.78 -13.76,-21.93l-2.19 -0.09 -0.22 5.7c3.46,1.23 5.26,4.04 5.26,4.04 0,0 -2.55,-0.47 -6.09,-0.91 -3.55,-0.45 -7.15,1.89 -5.46,6.97 1.69,5.07 13.49,1.95 13.49,1.95 -6.03,5.62 -15.38,4.19 -17.41,-1.39 -0.3,-0.81 -0.45,-1.63 -0.47,-2.45 -2.22,2.54 -4.85,4.69 -7.78,6.38 -0.21,0.11 -5.85,3.27 -10.5,3.49 0,0 6.37,7.79 13.96,12.15l0 0.01c4.65,2.9 9.58,5.07 11.44,5.85 0.56,0.16 0.86,0.22 0.86,0.22 4.79,-0.91 9.36,-2.74 13.46,-4.9l0 0c9.97,-4.89 14.72,-11.11 14.72,-11.11 -3.9,-0.8 -9.29,-3.97 -9.31,-3.98zm-17.9 10.44c-0.22,0.01 -0.43,0 -0.66,-0.01 -5.96,-0.23 -7.04,-5.29 -7.04,-5.29 0,0 1.68,2.93 7.12,3.14 5.45,0.21 8.11,-1.12 8.11,-1.12 0,0 -1.7,2.67 -6.11,3.2 0.01,0.05 0.01,0.1 0,0.15 -0.04,1.57 -1.47,2.4 -1.42,0.67 0,-0.31 0,-0.54 0,-0.74zm-13.97 -10.33c0,0 7.36,2.2 14.98,2.49 7.61,0.29 15.17,-2.67 15.17,-2.67 0,0 -5.24,5.92 -15.28,5.54 -10.04,-0.38 -14.77,-4.27 -14.87,-5.36zm75.82 -12.78c-0.56,1.19 -1.2,2.34 -1.9,3.44 0.44,-0.09 0.88,-0.09 1.3,0.02 2.88,0.77 0.19,0.87 -2.25,2.45 -0.59,0.39 -1.2,0.8 -1.78,1.16 -1.26,1.44 -2.65,2.76 -4.15,3.94 2.85,0.19 8.11,-0.15 10.23,-4.84 2,-4.44 0.3,-5.86 -1.45,-6.17zm-122.04 -4.5c-1.48,0.45 -2.62,1.96 -1.19,5.9 1.6,4.41 6.09,5.42 9.04,5.58 -1.79,-1.64 -3.39,-3.49 -4.74,-5.51l0 0c-2.31,-1.77 -4.98,-2.07 -2.05,-2.61 0.15,-0.03 0.3,-0.05 0.45,-0.05 -0.57,-1.07 -1.07,-2.17 -1.51,-3.31zm95.18 -25.78c10.26,0.39 18.27,9.04 17.88,19.31 -0.39,10.26 -9.04,18.27 -19.31,17.88 -10.26,-0.39 -18.27,-9.04 -17.88,-19.31 0.39,-10.26 9.05,-18.27 19.31,-17.88zm21.54 31.44c2.19,-3.62 3.51,-7.84 3.69,-12.37 0.55,-14.3 -10.62,-26.36 -24.93,-26.91 -14.31,-0.55 -26.37,10.62 -26.92,24.93 -0.29,7.69 2.8,14.73 7.95,19.68 -3.02,-3.25 -5.35,-7.42 -6.66,-12.36 0,0 1.8,2.15 3.38,1.84 0,0 2.04,3.86 6.03,7.44 -4.26,-4.16 -6.81,-10.03 -6.57,-16.44 0.47,-12.03 10.6,-21.42 22.63,-20.96 12.03,0.46 21.42,10.6 20.96,22.62 -0.3,7.71 -4.56,14.33 -10.75,17.97 8.83,-4.32 11.17,-12.49 11.33,-18.87 0,0 1.51,0.33 2.15,-2.52 0,0 1.25,8.21 -2.29,15.95zm-71.71 3.98c5.41,-4.55 8.95,-11.27 9.25,-18.88 0.54,-14.31 -10.63,-26.37 -24.93,-26.91 -14.31,-0.55 -26.37,10.62 -26.92,24.92 -0.21,5.55 1.34,10.76 4.15,15.09 -4.07,-7.99 -2.72,-16.85 -2.72,-16.85 0.64,2.85 2.15,2.52 2.15,2.52 0.15,5.94 2.19,13.44 9.6,17.93 -5.72,-4.13 -9.34,-10.95 -9.05,-18.53 0.46,-12.02 10.6,-21.41 22.63,-20.95 12.02,0.46 21.42,10.6 20.95,22.62 -0.19,5.15 -2.17,9.82 -5.3,13.44 3.18,-3.2 4.79,-6.27 4.79,-6.27 1.59,0.32 3.39,-1.84 3.39,-1.84 -1.5,5.65 -4.33,10.29 -7.99,13.71zm-15.98 -37.95c10.26,0.39 18.27,9.04 17.88,19.3 -0.4,10.27 -9.04,18.28 -19.31,17.89 -10.26,-0.4 -18.27,-9.05 -17.88,-19.31 0.39,-10.26 9.04,-18.28 19.31,-17.88zm31.5 24.44c-0.21,-0.58 -1.15,-0.52 -1.48,0.11 -0.36,0.69 -1.39,3.99 -0.2,3.92 0.55,-0.03 0.97,-0.74 1.26,-1.51 0.15,-0.73 0.29,-1.58 0.42,-2.52zm3.72 -7.36l-5.49 -0.21c0.01,0.54 0,1.1 -0.02,1.65 -0.02,0.47 -0.05,0.94 -0.09,1.4l5.47 0.21c-0.01,-0.46 0,-0.93 0.02,-1.4 0.02,-0.55 0.05,-1.11 0.11,-1.65zm1.73 -7.69c0.77,-2.92 3.52,-6.98 2.93,-7.62 -0.62,-0.67 -7.73,1.91 -9.64,2.99 -1.91,1.09 -1.44,8.05 0.26,8.05 0.98,0 1.47,-0.68 1.7,-1.25l0.19 -4.86c0,0 0.99,0.56 1.07,5.76 0.69,0.51 2.09,0.1 2.89,-1.25 0.18,-0.62 0.38,-1.22 0.6,-1.82zm52.37 -8.35c0.8,-2.39 1.74,-6.33 1.8,-11.78 0.12,-9.66 -1.38,-14 -1.38,-14 0,0 1.21,1.66 2.53,4.28l3.19 2.54c0,0 1.17,-8.14 0.26,-19.13 -0.91,-10.99 -10.99,-19.02 -21.59,-11.11 0,0 -4.87,-16.89 -18.04,-22.46 -13.17,-5.58 -30.58,0 -56.15,10.77 -25.57,10.76 -28.69,23.76 -33,37.01 -2.16,6.64 -4.11,13.56 -4.11,13.56l1.66 -0.81c6.02,-27.6 28.28,-37.6 28.28,-37.6 -28.32,24.1 -23.62,58.91 -23.62,58.91l0.42 -0.08c2.97,-14.26 15.89,-24.73 30.92,-24.16 9.83,0.38 18.39,5.39 23.66,12.84 3.41,-0.79 6.56,-1.55 9.27,-2.26 8.26,-2.15 16.28,-6.56 22.86,-11.01 -0.58,-0.21 -1.05,-0.71 -1.23,-1.29 -0.06,-0.22 -0.09,-0.34 -0.06,-0.75l1.24 -12.54c0.02,-0.11 0.02,-0.13 0.04,-0.24 0.09,-0.4 0.31,-0.76 0.61,-1.03 0.49,-0.43 1.3,-0.49 1.3,-0.49 0.72,-0.02 1.44,-0.01 2.15,0.02 0.12,0 0.24,0.01 0.36,0.01 5.89,0.26 11.76,1.43 17.23,3.7 0.17,0.06 0.25,0.06 0.57,0.25 1,0.59 0.95,1.98 0.95,1.98l-1.6 10.82c0,0 -0.02,0.07 -0.02,0.13l-0.08 0.26c-0.07,0.21 0.02,0.05 -0.22,0.42l-0.16 0.22c-0.15,0.17 0,0.05 -0.37,0.31l-0.23 0.13c-0.2,0.11 -0.02,0.05 -0.46,0.16l-0.26 0.04c-0.23,0.02 -0.04,0.04 -0.48,-0.03 0,0 -0.27,-0.05 -0.46,-0.09 -2.11,-0.4 -4.25,-0.75 -6.39,-1.04 0.44,0.73 0.96,1.54 1.57,2.37 7.72,1.23 14.43,5.35 19.04,11.17zm-81.89 -32.84c0.71,0.03 1.43,0.07 2.14,0.15 0,0 0.81,0.12 1.26,0.58 0.28,0.3 0.47,0.68 0.53,1.08 0.02,0.11 0.02,0.13 0.02,0.24l0.29 12.6c-0.01,0.41 -0.05,0.53 -0.13,0.74 -0.27,0.7 -0.96,1.22 -1.72,1.26 -0.39,0.02 -0.48,-0.02 -0.67,-0.04 -5.95,-0.39 -11.95,-0.15 -17.85,0.52 -0.19,0.02 -0.46,0.06 -0.46,0.06 -0.45,0.03 -0.26,0.02 -0.48,-0.02l-0.27 -0.05c-0.42,-0.14 -0.24,-0.07 -0.44,-0.19l-0.22 -0.15c-0.34,-0.29 -0.2,-0.16 -0.34,-0.34l-0.15 -0.23c-0.21,-0.39 -0.13,-0.22 -0.18,-0.44l-0.06 -0.27c0,-0.05 -0.01,-0.12 -0.01,-0.12l-0.77 -10.92c0,0 0.05,-1.39 1.09,-1.89 0.34,-0.17 0.42,-0.16 0.59,-0.22 5.63,-1.84 11.57,-2.55 17.47,-2.36 0.12,0 0.24,0.01 0.36,0.01zm52.98 5.94c5.09,0.21 10.16,1.15 14.94,2.97l-0.98 6.58c-4.99,-0.86 -10.05,-1.46 -15.12,-1.63l-0.07 0 0.76 -7.94c0.16,0.01 0.31,0.01 0.47,0.02zm-53.36 -2.04c-5.09,-0.18 -10.21,0.37 -15.12,1.82l0.47 6.64c5.04,-0.49 10.13,-0.69 15.2,-0.48l0.07 0.01 -0.15 -7.97c-0.16,-0.01 -0.31,-0.02 -0.47,-0.02z"/>
   <path fill="#1F0933" d="M772.31 1250.51c6.26,0.24 11.15,5.51 10.91,11.77 -0.24,6.26 -5.52,11.15 -11.78,10.91 -6.26,-0.24 -11.15,-5.52 -10.9,-11.78 0.24,-6.26 5.51,-11.14 11.77,-10.9zm-66.15 -2.54c6.26,0.24 11.14,5.52 10.9,11.78 -0.24,6.26 -5.51,11.15 -11.77,10.91 -6.26,-0.24 -11.15,-5.52 -10.91,-11.78 0.24,-6.26 5.52,-11.14 11.78,-10.91zm70.4 16.83c1.32,0.05 2.35,1.16 2.3,2.48 -0.05,1.32 -1.16,2.35 -2.48,2.3 -1.32,-0.05 -2.35,-1.16 -2.3,-2.48 0.05,-1.32 1.16,-2.35 2.48,-2.3zm-66.15 -2.54c1.32,0.05 2.35,1.17 2.3,2.49 -0.05,1.32 -1.16,2.35 -2.49,2.3 -1.31,-0.05 -2.35,-1.17 -2.3,-2.49 0.06,-1.32 1.17,-2.35 2.49,-2.3zm59.7 -9.54c3.74,0.14 6.66,3.29 6.51,7.03 -0.14,3.74 -3.29,6.66 -7.03,6.51 -3.74,-0.14 -6.65,-3.29 -6.51,-7.03 0.14,-3.73 3.29,-6.65 7.03,-6.51zm-66.15 -2.53c3.74,0.14 6.65,3.29 6.51,7.03 -0.14,3.73 -3.29,6.65 -7.03,6.51 -3.74,-0.14 -6.65,-3.29 -6.51,-7.03 0.14,-3.74 3.29,-6.66 7.03,-6.51z"/>
   <path fill="#1F0933" d="M647.17 1273.47c0.22,0.01 0.44,0.03 0.66,0.05 4.43,0.61 8.85,1.28 13.28,1.92 3.37,0.5 6.03,3.85 5.53,7.41l-1.49 10.11c0,0 0.58,-0.84 1.26,-1.39 1.21,-1.01 2.79,-1.54 4.36,-1.51 4.45,0.16 8.9,0.38 13.34,0.57 3.53,0.17 6.57,3.48 6.22,7.18l-0.44 4.24c0.46,-0.5 1.58,-1.31 2.53,-1.72 7.48,-3.19 16.3,-3.34 23.45,1.07 4.34,2.67 7.27,7.37 8.29,12.47 1.14,5.68 0.11,11.65 -1.97,16.87l-0.02 0.07c0.09,-0.04 0.18,-0.07 0.27,-0.11 2.17,-0.78 4.43,-1.49 6.73,-1.7 0.45,-0.04 0.92,-0.03 1.37,0.02l-1.46 -4.84c0,0 -0.31,-1.09 -0.29,-2.04 0.05,-2.48 1.63,-4.86 3.97,-5.88 3.49,-1.46 6.99,-2.89 10.49,-4.34 2.17,-0.88 4.77,-0.51 6.62,0.99l0.57 -4.43c0,0 0.14,-0.92 0.43,-1.64 0.54,-1.33 1.54,-2.47 2.78,-3.2l11.18 -6.43c0.31,-0.18 0.41,-0.22 0.6,-0.31 3.32,-1.47 7.75,0.39 8.88,4.04 0.13,0.4 0.1,0.18 0.12,0.1 0.12,-0.33 0.15,-0.4 0.24,-0.59 1.3,-2.98 4.25,-5.15 7.5,-5.79 4.28,-0.84 9.11,0.98 11.37,4.69 2.34,3.84 1.32,9.25 -2.56,12.13 0,0 1.55,1.53 2.05,3.07 1.99,-2.7 4.7,-4.81 7.69,-6.34l0.02 -0.01c-0.68,-3.62 -1.37,-7.25 -2.06,-10.88 0,0 -0.18,-1.12 -0.05,-2.09 0.37,-2.65 2.48,-4.92 5.1,-5.5 3.31,-0.69 6.63,-1.34 9.95,-2.01 0.54,-0.11 1.1,-0.15 1.65,-0.12 0.69,-5.23 3.65,-10.2 7.81,-13.56 0,0 0.99,-0.75 1.92,-1.09 2.54,-0.92 5.6,-0.09 7.34,2.09 2.16,2.76 4.28,5.54 6.42,8.31 0.21,0.29 0.26,0.37 0.38,0.56 1.27,2.06 1.17,4.78 -0.05,6.92 -0.02,0.04 -0.04,0.07 -0.06,0.1 -0.11,0.23 -0.22,0.43 -0.13,0.53 1.22,1.31 2.96,2.16 4.55,3.36 4.19,3.17 7.72,7.51 8.33,12.81 0.65,5.52 -1.36,11.33 -5.36,15.12 -4.41,4.17 -10.79,5.82 -17,5.95 -1.44,0.03 -2.87,-0.3 -4.07,-1.1l1.71 14.88c0,0 0.09,1.16 -0.11,2.11 -0.51,2.4 -2.46,4.4 -4.89,4.99 -2.4,0.55 -4.81,1.07 -7.21,1.61 -1.86,0.4 -3.87,-0.16 -5.25,-1.49l-0.37 -0.03c-6.91,-0.01 -13.61,-3.61 -17.13,-9.6 0,0 -0.42,0.84 -0.93,1.44 -1.21,1.41 -3.02,2.26 -4.9,2.3 -2.55,0.01 -5.09,0 -7.63,0 -3.48,-0.03 -6.64,-3.12 -6.52,-6.74 0,-0.09 0,-0.17 0.01,-0.26 0.52,-6.84 1.14,-13.67 1.71,-20.5 0.19,-2.15 1.5,-4.16 3.41,-5.21 -0.04,-0.03 -0.08,-0.06 -0.12,-0.1 -1.42,-1.23 -2.49,-2.88 -2.98,-4.7l-4.57 33.78 7.71 8.8c0,0 0.83,1.04 1.2,2.04 0.97,2.62 0.03,5.82 -2.26,7.53 -2.54,1.84 -5.1,3.64 -7.65,5.46 -1.56,1.1 -3.58,1.48 -5.42,1.01 0,0 -0.25,0.88 -0.65,1.58 -0.89,1.56 -2.44,2.71 -4.2,3.12 -2.85,0.64 -5.7,1.24 -8.54,1.86 -3.17,0.67 -6.63,-1.28 -7.63,-4.46l-0.57 -1.88c-0.02,0.13 -0.03,0.19 -0.03,0.19 -0.4,2.28 -2.05,4.23 -4.25,5.07 -7.85,2.98 -17.2,2.77 -24,-2.28 -3.38,-2.51 -5.8,-6.24 -6.76,-10.37 -0.59,-2.56 -0.66,-5.22 -0.35,-7.84 0,0 0.16,-0.15 -0.12,-0.11 -2.13,0.27 -4.15,-0.81 -6.09,-1.78 -1.29,-0.64 -2.59,-1.29 -3.89,-1.94 0,0 -0.64,-0.35 -1.07,-0.72 -0.76,-0.67 -1.33,-1.56 -1.61,-2.54 -0.11,-0.39 -0.18,-0.28 -0.28,-0.32 -2.67,-1.03 -5.11,-2.66 -6.92,-4.88l-0.46 4.25c0,0 -0.15,1.11 -0.53,1.97 -1.01,2.27 -3.39,3.84 -5.9,3.88 -3.21,0.02 -6.42,0 -9.63,0 -3.43,-0.02 -6.57,-2.99 -6.52,-6.64l0.18 -9.68 -3.94 0.22 -2.44 16.54c-0.48,3.11 -3.43,5.67 -6.66,5.57 -0.08,0 -0.16,-0.01 -0.24,-0.01 -3.66,-0.27 -7.32,-0.58 -10.98,-0.87 -3.34,-0.28 -6.21,-3.41 -6,-6.9 0,-0.09 0.01,-0.17 0.02,-0.25 2.3,-22.16 4.88,-44.28 7.32,-66.42 0.37,-3.16 3.21,-5.8 6.53,-5.81 0.08,0 0.08,0 0.16,0z"/>
   <path fill="#1371FF" d="M731.29 1346.21c1.14,-0.2 1.92,-1.27 1.77,-2.41 -0.33,-2.39 -0.85,-6.21 -1.18,-8.58 -0.08,-0.57 -0.38,-1.09 -0.84,-1.43 -0.47,-0.35 -1.05,-0.49 -1.62,-0.4 -5.05,0.85 -17.3,4.23 -18.82,17.04 -1.84,15.43 13.23,20.52 25.33,15.82 1.01,-0.4 1.57,-1.48 1.31,-2.52 -0.37,-1.48 -0.9,-3.59 -1.28,-5.14 -0.29,-1.13 -1.41,-1.83 -2.55,-1.58 -3.58,0.76 -10.72,1.74 -11.37,-2.4 -0.92,-5.84 5.74,-7.78 9.25,-8.4z"/>
   <path fill="#851DE8" d="M750.98 1330.26c0.07,0.28 0.33,0.48 0.62,0.46 0.29,-0.02 0.52,-0.24 0.56,-0.53 0.72,-5.76 2.19,-17.56 2.63,-21.15 0.09,-0.68 0.48,-1.27 1.06,-1.6 2.13,-1.23 7.47,-4.3 11.15,-6.42 0.71,-0.41 1.59,-0.38 2.27,0.08 0.68,0.46 1.04,1.26 0.93,2.07 -1.3,9.64 -4.37,32.36 -5.05,37.32 -0.08,0.62 0.11,1.24 0.52,1.71 1.64,1.87 6,6.87 8.36,9.56 0.4,0.46 0.59,1.06 0.52,1.67 -0.07,0.6 -0.39,1.14 -0.88,1.5 -2.2,1.56 -5.71,4.07 -7.58,5.41 -0.75,0.54 -1.77,0.53 -2.52,-0.02 -1.53,-1.11 -4.08,-2.98 -5.43,-3.95 -0.13,-0.1 -0.32,-0.11 -0.46,-0.01 -0.14,0.09 -0.2,0.26 -0.16,0.43 0.36,1.45 1.01,4.08 1.46,5.95 0.14,0.56 0.05,1.16 -0.26,1.65 -0.31,0.49 -0.8,0.84 -1.37,0.97 -2.37,0.51 -6.16,1.33 -8.44,1.83 -1.09,0.24 -2.19,-0.4 -2.52,-1.47 -2.3,-7.53 -10.82,-35.32 -13.12,-42.81 -0.32,-1.06 0.22,-2.2 1.24,-2.62 2.63,-1.09 7.51,-3.11 10.4,-4.31 0.58,-0.24 1.24,-0.21 1.8,0.07 0.56,0.28 0.96,0.8 1.11,1.41 0.82,3.29 2.27,9.17 3.16,12.8z"/>
   <path fill="#F57513" d="M681.44 1341.4c-0.12,1.1 -1.04,1.94 -2.14,1.94 -2.52,0 -6.91,0 -9.54,0 -0.58,0 -1.13,-0.24 -1.54,-0.65 -0.4,-0.41 -0.63,-0.97 -0.61,-1.54 0.05,-3.14 0.16,-8.88 0.22,-12.08 0.01,-0.6 -0.23,-1.18 -0.66,-1.59 -0.43,-0.42 -1.02,-0.64 -1.61,-0.6 -2.38,0.13 -6.03,0.34 -8.17,0.47 -1.02,0.05 -1.86,0.82 -2.01,1.83 -0.59,4.04 -2.07,14.05 -2.7,18.32 -0.16,1.13 -1.17,1.93 -2.29,1.84 -2.83,-0.23 -7.96,-0.63 -10.89,-0.86 -0.58,-0.05 -1.12,-0.33 -1.49,-0.77 -0.37,-0.45 -0.55,-1.03 -0.48,-1.61 1.16,-10.55 6.15,-55.77 7.31,-66.33 0.06,-0.58 0.36,-1.11 0.82,-1.46 0.46,-0.36 1.05,-0.51 1.63,-0.43 3.38,0.49 9.83,1.41 13.18,1.9 0.57,0.08 1.08,0.38 1.42,0.84 0.34,0.46 0.49,1.03 0.41,1.6 -0.77,5.2 -2.73,18.48 -3.47,23.52 -0.16,1.12 0.56,2.17 1.66,2.41 1.48,0.33 3.52,0.78 5.12,1.14 0.63,0.14 1.29,-0.01 1.8,-0.41 0.51,-0.4 0.81,-1.01 0.82,-1.65 0.06,-3 0.14,-7.86 0.2,-10.67 0.01,-0.58 0.25,-1.13 0.67,-1.53 0.43,-0.39 0.99,-0.61 1.57,-0.58 3.38,0.14 9.82,0.42 13.24,0.56 0.6,0.03 1.15,0.29 1.54,0.74 0.39,0.45 0.57,1.04 0.51,1.63 -0.84,8.23 -3.74,36.37 -4.52,44.02z"/>
   <path fill="#F57513" d="M804.09 1311.48c0.94,-0.39 1.47,-1.38 1.28,-2.38 -0.57,-3.05 -1.75,-9.31 -2.37,-12.58 -0.22,-1.16 0.53,-2.28 1.69,-2.51 2.62,-0.53 7.12,-1.44 9.84,-1.99 0.59,-0.12 1.2,0.02 1.69,0.37 0.49,0.36 0.8,0.9 0.87,1.5 1.03,8.92 4.72,40.89 5.67,49.08 0.12,1.09 -0.6,2.1 -1.67,2.35 -2.06,0.45 -5.29,1.18 -7.12,1.59 -0.36,0.08 -0.74,0.01 -1.06,-0.19 -0.31,-0.21 -0.52,-0.53 -0.59,-0.9l0 0c-0.08,-0.43 -0.48,-0.72 -0.92,-0.66 -9.5,1.16 -19.01,-5.46 -17.82,-19.69 0.65,-7.82 5.56,-11.88 10.51,-13.99zm4.04 12.17c-0.04,-0.19 -0.22,-0.33 -0.42,-0.3 -3.01,0.4 -5.13,2.6 -3.95,6.74 0.86,2.99 3.59,3.36 6,3.02 0.04,0 0.08,-0.03 0.1,-0.06 0.02,-0.03 0.03,-0.07 0.02,-0.11 -0.2,-1.07 -1.45,-7.7 -1.75,-9.29z"/>
   <path fill="#FF1344" d="M704.23 1318.79c0.08,0.04 0.19,0.01 0.24,-0.08 1.87,-3 2.55,-6.82 -8.07,-4.91 -1.1,0.19 -2.16,-0.5 -2.44,-1.58 -0.4,-1.57 -0.95,-3.74 -1.33,-5.22 -0.25,-1.01 0.24,-2.05 1.18,-2.49 3.39,-1.5 11.62,-4.22 19.58,0.51 10.15,6.03 9.93,24.87 -6.71,39.9 -0.65,0.59 -1.6,0.72 -2.4,0.32 -1.69,-0.84 -4.63,-2.31 -6.15,-3.07 -0.23,-0.12 -0.41,-0.34 -0.47,-0.6 -0.05,-0.26 0.01,-0.53 0.17,-0.74l0 0c0.23,-0.29 0.29,-0.67 0.17,-1.02 -0.13,-0.34 -0.42,-0.6 -0.77,-0.68 -13.81,-3.04 -11.63,-18.35 -1.66,-20.74 3.56,-0.84 6.42,-0.47 8.66,0.4zm-2.09 6.68c2.33,0.81 3.68,3.03 3.02,4.96 -0.67,1.93 -3.11,2.85 -5.44,2.04 -2.33,-0.81 -3.68,-3.03 -3.01,-4.96 0.66,-1.93 3.1,-2.84 5.43,-2.04z"/>
   <path fill="#FF1344" d="M825.99 1277.38c0.94,-0.71 2.27,-0.53 2.98,0.4 1.72,2.21 4.79,6.2 6.36,8.24 0.54,0.7 0.6,1.67 0.13,2.43 -0.92,1.5 -1.9,4.22 0.86,6.54 4.05,3.42 14.1,7.69 10.47,19.23 -2.82,8.94 -13.2,10.05 -17.74,10.1 -1.18,0 -2.14,-0.95 -2.14,-2.14 -0.01,-1.44 -0.02,-3.34 -0.03,-4.73 0,-1.04 0.73,-1.94 1.75,-2.13 2.81,-0.53 7.93,-2.07 7.3,-6.06 -0.85,-5.47 -10.94,-3.59 -15.04,-12.99 -3.61,-8.26 0.77,-15.46 5.1,-18.89z"/>
   <path fill="#00F5A9" d="M788.4 1337.33c-0.04,1.16 -0.99,2.09 -2.15,2.09 -2.11,0 -5.35,0 -7.54,0 -0.6,0 -1.17,-0.25 -1.58,-0.69 -0.41,-0.45 -0.61,-1.04 -0.56,-1.64 0.4,-4.85 1.33,-15.97 1.7,-20.41 0.09,-1.07 0.96,-1.91 2.04,-1.97 1.79,-0.08 4.48,-0.21 6.4,-0.31 0.59,-0.02 1.17,0.2 1.6,0.62 0.43,0.42 0.67,0.99 0.65,1.59 -0.13,4.87 -0.44,16.06 -0.56,20.72zm-4.01 -38.5c3.36,0 6.08,2.33 6.08,5.2 0,2.87 -2.72,5.19 -6.08,5.19 -3.36,0 -6.09,-2.32 -6.09,-5.19 0,-2.87 2.73,-5.2 6.09,-5.2z"/>
   <path fill="white" d="M722 1354.35c0.01,0.08 0.03,0.17 0.04,0.26 0.65,4.14 7.79,3.16 11.37,2.4 1.14,-0.25 2.26,0.45 2.55,1.58 0.38,1.55 0.91,3.66 1.28,5.14 0.1,0.42 0.07,0.85 -0.07,1.23 -0.36,-1.44 -0.85,-3.38 -1.21,-4.84 -0.29,-1.12 -1.41,-1.81 -2.55,-1.57 -3.58,0.76 -10.72,1.72 -11.37,-2.38 -0.11,-0.65 -0.11,-1.26 -0.04,-1.82zm35.78 3.51l1.2 4.88c0.11,0.41 0.08,0.84 -0.06,1.23l-1.4 -5.64c-0.04,-0.16 0.02,-0.33 0.16,-0.42 0.04,-0.02 0.07,-0.04 0.1,-0.05zm7.47 -16.37c0.09,0.26 0.23,0.5 0.42,0.71 1.64,1.87 6,6.87 8.36,9.56 0.4,0.46 0.59,1.06 0.52,1.67 -0.02,0.19 -0.07,0.37 -0.14,0.54 -0.09,-0.22 -0.21,-0.43 -0.38,-0.61 -2.36,-2.67 -6.72,-7.61 -8.36,-9.47 -0.41,-0.46 -0.6,-1.08 -0.52,-1.69l0.1 -0.71zm-54.79 12.22c-0.04,-1.03 0,-2.13 0.14,-3.28 1.52,-12.81 13.77,-16.19 18.82,-17.04 0.57,-0.09 1.15,0.05 1.62,0.4 0.46,0.34 0.76,0.86 0.84,1.43 0.33,2.37 0.85,6.19 1.18,8.58 0.04,0.34 0.01,0.68 -0.1,0.98 -0.32,-2.35 -0.78,-5.67 -1.08,-7.8 -0.08,-0.56 -0.38,-1.07 -0.84,-1.42 -0.47,-0.34 -1.05,-0.48 -1.62,-0.39 -5.05,0.85 -17.3,4.19 -18.82,16.87 -0.07,0.57 -0.12,1.13 -0.14,1.67zm-72.85 -6.73c-0.09,-0.28 -0.12,-0.58 -0.08,-0.88 1.16,-10.55 6.15,-55.77 7.31,-66.33 0.06,-0.58 0.36,-1.11 0.82,-1.46 0.46,-0.36 1.05,-0.51 1.63,-0.43 3.38,0.49 9.83,1.41 13.18,1.9 0.57,0.08 1.08,0.38 1.42,0.84 0.34,0.46 0.49,1.03 0.41,1.6l-0.17 1.11c-0.07,-0.14 -0.14,-0.28 -0.24,-0.4 -0.34,-0.46 -0.85,-0.76 -1.42,-0.84 -3.35,-0.48 -9.8,-1.39 -13.18,-1.88 -0.58,-0.08 -1.17,0.07 -1.63,0.43 -0.46,0.35 -0.76,0.87 -0.82,1.45l-7.23 64.89zm165.55 -49.6l-0.16 -0.86c-0.22,-1.16 0.53,-2.28 1.69,-2.51 2.62,-0.53 7.12,-1.44 9.84,-1.99 0.59,-0.12 1.2,0.02 1.69,0.37 0.49,0.36 0.8,0.9 0.87,1.5 1.03,8.92 4.72,40.89 5.67,49.08 0.03,0.31 0,0.62 -0.09,0.91l-5.58 -47.82c-0.07,-0.59 -0.38,-1.13 -0.87,-1.48 -0.49,-0.35 -1.1,-0.48 -1.69,-0.36 -2.72,0.54 -7.22,1.44 -9.84,1.96 -0.7,0.14 -1.25,0.6 -1.53,1.2zm-105.47 43.71c0.14,0.11 0.24,0.27 0.31,0.44 0.06,0.19 0.08,0.39 0.03,0.58 -0.18,-0.13 -0.31,-0.32 -0.37,-0.54 -0.03,-0.16 -0.02,-0.33 0.03,-0.48zm-29.89 -10.58c0.02,0.13 0.03,0.25 0.03,0.38l-0.2 10.62c-0.02,-0.12 -0.03,-0.24 -0.02,-0.36l0.19 -10.64zm108.85 7.37c-0.08,-0.25 -0.11,-0.52 -0.08,-0.79 0.4,-4.85 1.33,-15.97 1.7,-20.41 0.09,-1.07 0.96,-1.91 2.04,-1.97 1.79,-0.08 4.48,-0.21 6.4,-0.31 0.59,-0.02 1.17,0.2 1.6,0.62 0.43,0.42 0.67,0.99 0.65,1.59l-0.04 1.48c-0.08,-0.42 -0.29,-0.81 -0.61,-1.11 -0.43,-0.41 -1.01,-0.64 -1.6,-0.61 -1.92,0.1 -4.61,0.23 -6.4,0.31 -1.08,0.05 -1.95,0.89 -2.04,1.95l-1.62 19.25zm26.85 -9.01c0.06,0.38 0.14,0.79 0.26,1.22 0.84,2.91 3.45,3.34 5.82,3.05l0.3 1.59c0.01,0.04 0,0.07 -0.02,0.11 -0.02,0.03 -0.06,0.05 -0.1,0.05 -2.41,0.34 -5.14,-0.03 -6,-2.99 -0.33,-1.16 -0.4,-2.17 -0.26,-3.03zm-106.83 0.59c0.37,1.3 1.49,2.47 3.05,3.01 2.33,0.81 4.77,-0.11 5.44,-2.04 0.01,-0.04 0.02,-0.07 0.03,-0.11 0.19,0.63 0.19,1.29 -0.03,1.92 -0.67,1.91 -3.11,2.82 -5.44,2.02 -2.28,-0.78 -3.63,-2.91 -3.05,-4.8zm36.71 -6.2l-0.11 -0.35c-0.32,-1.06 0.22,-2.2 1.24,-2.62 2.63,-1.09 7.51,-3.11 10.4,-4.31 0.58,-0.24 1.24,-0.21 1.8,0.07 0.56,0.28 0.96,0.8 1.11,1.41 0.82,3.29 2.27,9.17 3.16,12.8 0.07,0.28 0.33,0.48 0.62,0.46 0.29,-0.02 0.52,-0.24 0.56,-0.53 0.72,-5.76 2.19,-17.56 2.63,-21.15 0.09,-0.68 0.48,-1.27 1.06,-1.6 2.13,-1.23 7.47,-4.3 11.15,-6.42 0.71,-0.41 1.59,-0.38 2.27,0.08 0.68,0.46 1.04,1.26 0.93,2.07l-0.13 1.01c-0.16,-0.39 -0.43,-0.74 -0.8,-0.98 -0.68,-0.45 -1.56,-0.48 -2.27,-0.08 -3.68,2.1 -9.02,5.14 -11.15,6.36 -0.58,0.33 -0.97,0.91 -1.06,1.58 -0.44,3.56 -1.91,15.24 -2.63,20.95 -0.04,0.28 -0.27,0.5 -0.56,0.52 -0.29,0.01 -0.55,-0.18 -0.62,-0.46 -0.89,-3.59 -2.34,-9.41 -3.16,-12.67 -0.15,-0.61 -0.55,-1.12 -1.11,-1.4 -0.56,-0.28 -1.22,-0.3 -1.8,-0.06 -2.89,1.18 -7.77,3.18 -10.4,4.26 -0.51,0.21 -0.91,0.6 -1.13,1.06zm-27.99 -6.46c0.49,1.07 -0.1,2.53 -0.92,3.84 -0.05,0.08 -0.16,0.11 -0.24,0.08 -2.24,-0.86 -5.1,-1.24 -8.66,-0.4 -4.7,1.12 -7.67,5.07 -8.05,9.26 -0.44,-4.86 2.67,-9.9 8.05,-11.19 3.56,-0.84 6.42,-0.47 8.66,0.4 0.08,0.04 0.19,0.01 0.24,-0.08 0.38,-0.62 0.72,-1.28 0.92,-1.91zm99.84 -6.44l0.14 0.77c0.19,0.98 -0.34,1.96 -1.28,2.35 -4.95,2.09 -9.86,6.11 -10.51,13.85 -0.04,0.48 -0.07,0.96 -0.09,1.42 -0.03,-1.05 -0.01,-2.14 0.09,-3.28 0.65,-7.82 5.56,-11.88 10.51,-13.99 0.52,-0.22 0.92,-0.63 1.14,-1.12zm-112.45 -2.77l-0.15 -0.59c-0.25,-1.01 0.24,-2.05 1.18,-2.49 3.39,-1.5 11.62,-4.22 19.58,0.51 4.64,2.76 7.11,8.2 6.84,14.73 -0.25,-5.61 -2.67,-10.21 -6.84,-12.66 -7.96,-4.69 -16.19,-2 -19.58,-0.51 -0.46,0.21 -0.82,0.58 -1.03,1.01zm143.07 3.3c0.03,0.13 0.06,0.26 0.08,0.39 0.63,3.95 -4.49,5.47 -7.3,6 -0.95,0.18 -1.66,0.96 -1.74,1.9 -0.01,-0.61 -0.01,-1.21 -0.01,-1.73 0,-1.04 0.73,-1.94 1.75,-2.13 2.39,-0.45 6.44,-1.63 7.22,-4.43zm-176.88 -4.02c0.26,0.63 0.81,1.13 1.52,1.28 1.48,0.33 3.52,0.78 5.12,1.14 0.63,0.14 1.29,-0.01 1.8,-0.41 0.51,-0.4 0.81,-1.01 0.82,-1.65 0.06,-3 0.14,-7.86 0.2,-10.67 0.01,-0.58 0.25,-1.13 0.67,-1.53 0.43,-0.39 0.99,-0.61 1.57,-0.58 3.38,0.14 9.82,0.42 13.24,0.56 0.6,0.03 1.15,0.29 1.54,0.74 0.39,0.45 0.57,1.04 0.51,1.63l-0.12 1.18c-0.09,-0.23 -0.22,-0.45 -0.39,-0.65 -0.39,-0.44 -0.94,-0.71 -1.54,-0.74 -3.42,-0.14 -9.86,-0.41 -13.24,-0.55 -0.58,-0.02 -1.14,0.18 -1.57,0.58 -0.42,0.39 -0.66,0.93 -0.67,1.51 -0.06,2.78 -0.14,7.59 -0.2,10.56 -0.01,0.64 -0.31,1.24 -0.82,1.63 -0.51,0.4 -1.17,0.55 -1.8,0.41 -1.6,-0.35 -3.64,-0.8 -5.12,-1.12 -1.1,-0.25 -1.82,-1.29 -1.66,-2.39l0.14 -0.93zm175.68 -14.32c0.22,0.81 0.73,1.65 1.67,2.44 3.59,3.03 11.89,6.73 11.2,15.57 -0.61,-7.33 -7.89,-10.65 -11.2,-13.41 -1.82,-1.52 -2.01,-3.2 -1.67,-4.6zm-56.22 12.52c-0.09,-0.34 -0.13,-0.68 -0.13,-1.04 0,-2.87 2.73,-5.2 6.09,-5.2 3.36,0 6.08,2.33 6.08,5.2 0,0.36 -0.04,0.7 -0.12,1.04 -0.56,-2.35 -3.02,-4.11 -5.96,-4.11 -2.94,0 -5.4,1.76 -5.96,4.11zm41.17 -13.86c-0.47,-6.07 2.98,-11.13 6.39,-13.83 0.94,-0.71 2.27,-0.53 2.98,0.4 1.72,2.21 4.79,6.2 6.36,8.24 0.54,0.7 0.6,1.67 0.13,2.43l0 0c-0.04,-0.06 -0.08,-0.12 -0.13,-0.18 -1.57,-2.02 -4.64,-5.97 -6.36,-8.15 -0.71,-0.92 -2.04,-1.1 -2.98,-0.4 -2.99,2.34 -6,6.47 -6.39,11.49z"/>
  </g>
  <path fill="gray" fill-rule="nonzero" d="M907.21 1570.26c-1.62,2.01 -3.39,3.52 -5.32,4.53 -1.93,1.01 -4.33,1.51 -7.23,1.51 -3.97,0 -7.58,-1.68 -10.82,-5.03 -3.24,-3.34 -4.86,-7.27 -4.86,-11.77 0,-4.52 1.6,-8.44 4.8,-11.79 3.19,-3.35 6.77,-5.02 10.76,-5.02 2.19,0 4.34,0.57 6.47,1.74 2.11,1.15 3.94,2.7 5.47,4.63l-3.41 2.62c-2.28,-3.2 -5.12,-4.79 -8.53,-4.79 -2.93,0 -5.5,1.24 -7.72,3.71 -2.21,2.47 -3.31,5.44 -3.31,8.9 0,3.45 1.1,6.43 3.31,8.93 2.22,2.48 4.79,3.74 7.72,3.74 2.32,0 4.12,-0.36 5.41,-1.05 1.29,-0.71 2.53,-1.82 3.71,-3.35l3.55 2.49zm26.71 -18.12c-1.44,-3.5 -3.71,-5.25 -6.79,-5.25 -3.09,0 -5.47,1.24 -7.12,3.71 -1.67,2.47 -2.5,5.44 -2.5,8.9l0 15.75 -4.53 0 0 -31.45 4.53 0 0 3.81c2.84,-3.28 5.95,-4.92 9.32,-4.92 5.39,0 9.13,2.44 11.22,7.35l-4.13 2.1zm7.94 -15.52c-0.7,-0.73 -1.05,-1.59 -1.05,-2.6 0,-1.01 0.35,-1.86 1.05,-2.55 0.7,-0.71 1.55,-1.06 2.56,-1.06 1.01,0 1.87,0.35 2.6,1.06 0.71,0.69 1.07,1.54 1.07,2.55 0,1.01 -0.36,1.87 -1.07,2.6 -0.73,0.72 -1.59,1.08 -2.6,1.08 -1.01,0 -1.86,-0.36 -2.56,-1.08zm0.33 38.63l0 -31.45 4.52 0 0 31.45 -4.52 0zm18.8 -24.53c-2.17,2.57 -3.25,5.49 -3.25,8.78 0,3.28 1.08,6.2 3.25,8.79 2.17,2.58 4.76,3.88 7.78,3.88 3.02,0 5.62,-1.3 7.78,-3.88 2.16,-2.59 3.25,-5.51 3.25,-8.79 0,-3.29 -1.09,-6.21 -3.25,-8.78 -2.16,-2.55 -4.76,-3.83 -7.78,-3.83 -3.02,0 -5.61,1.28 -7.78,3.83zm-7.78 8.81c0,-4.54 1.56,-8.47 4.66,-11.82 3.11,-3.35 6.84,-5.02 11.2,-5.02 4.35,0 7.93,2.01 10.73,6.04l0 -4.93 4.59 0 0 31.45 -4.59 0 0 -4.8c-2.67,3.9 -6.2,5.85 -10.57,5.85 -4.38,0 -8.14,-1.67 -11.29,-4.99 -3.15,-3.32 -4.73,-7.25 -4.73,-11.78zm45.45 -8.81c-2.16,2.57 -3.25,5.49 -3.25,8.78 0,3.28 1.09,6.2 3.25,8.79 2.18,2.58 4.77,3.88 7.79,3.88 3.01,0 5.61,-1.3 7.78,-3.88 2.16,-2.59 3.24,-5.51 3.24,-8.79 0,-3.29 -1.08,-6.21 -3.24,-8.78 -2.17,-2.55 -4.77,-3.83 -7.78,-3.83 -3.02,0 -5.61,1.28 -7.79,3.83zm-7.77 8.81c0,-4.54 1.56,-8.47 4.66,-11.82 3.1,-3.35 6.83,-5.02 11.19,-5.02 4.36,0 7.93,2.01 10.73,6.04l0 -22.26 4.6 0 0 48.78 -4.6 0 0 -4.8c-2.66,3.9 -6.19,5.85 -10.56,5.85 -4.38,0 -8.15,-1.67 -11.29,-4.99 -3.15,-3.32 -4.73,-7.25 -4.73,-11.78zm45.52 -8.93c-2.21,2.47 -3.32,5.44 -3.32,8.9 0,3.45 1.11,6.43 3.32,8.93 2.22,2.48 4.78,3.74 7.72,3.74 2.93,0 5.5,-1.26 7.7,-3.74 2.22,-2.5 3.32,-5.48 3.32,-8.93 0,-3.46 -1.1,-6.43 -3.32,-8.9 -2.2,-2.47 -4.77,-3.71 -7.7,-3.71 -2.94,0 -5.5,1.24 -7.72,3.71zm-2.98 20.68c-3.24,-3.35 -4.87,-7.28 -4.87,-11.78 0,-4.52 1.61,-8.44 4.8,-11.79 3.19,-3.35 6.78,-5.02 10.77,-5.02 3.97,0 7.58,1.67 10.8,5.02 3.21,3.35 4.81,7.27 4.81,11.79 0,4.55 -1.58,8.49 -4.75,11.81 -3.18,3.32 -6.75,4.99 -10.73,4.99 -3.99,0 -7.6,-1.68 -10.83,-5.02zm74.05 -1.02c-1.62,2.01 -3.39,3.52 -5.32,4.53 -1.93,1.01 -4.34,1.51 -7.23,1.51 -3.98,0 -7.58,-1.68 -10.82,-5.03 -3.24,-3.34 -4.86,-7.27 -4.86,-11.77 0,-4.52 1.6,-8.44 4.79,-11.79 3.2,-3.35 6.78,-5.02 10.77,-5.02 2.18,0 4.33,0.57 6.46,1.74 2.12,1.15 3.95,2.7 5.48,4.63l-3.42 2.62c-2.27,-3.2 -5.11,-4.79 -8.52,-4.79 -2.94,0 -5.5,1.24 -7.72,3.71 -2.21,2.47 -3.32,5.44 -3.32,8.9 0,3.45 1.11,6.43 3.32,8.93 2.22,2.48 4.78,3.74 7.72,3.74 2.32,0 4.12,-0.36 5.41,-1.05 1.29,-0.71 2.53,-1.82 3.71,-3.35l3.55 2.49zm11.05 -19.66c-2.21,2.47 -3.32,5.44 -3.32,8.9 0,3.45 1.11,6.43 3.32,8.93 2.21,2.48 4.78,3.74 7.72,3.74 2.93,0 5.5,-1.26 7.7,-3.74 2.22,-2.5 3.32,-5.48 3.32,-8.93 0,-3.46 -1.1,-6.43 -3.32,-8.9 -2.2,-2.47 -4.77,-3.71 -7.7,-3.71 -2.94,0 -5.51,1.24 -7.72,3.71zm-2.98 20.68c-3.24,-3.35 -4.87,-7.28 -4.87,-11.78 0,-4.52 1.61,-8.44 4.8,-11.79 3.19,-3.35 6.78,-5.02 10.77,-5.02 3.97,0 7.58,1.67 10.8,5.02 3.21,3.35 4.81,7.27 4.81,11.79 0,4.55 -1.58,8.49 -4.75,11.81 -3.18,3.32 -6.75,4.99 -10.73,4.99 -3.99,0 -7.6,-1.68 -10.83,-5.02zm55.46 -22.16c2.2,-4.29 5.08,-6.43 8.64,-6.43 3.56,0 6.5,1.2 8.8,3.61 2.29,2.41 3.45,5.42 3.45,9.06l0 19.89 -4.54 0 0 -19.89c0,-2.36 -0.7,-4.37 -2.1,-6.01 -1.4,-1.64 -3.26,-2.46 -5.58,-2.46 -2.31,0 -4.11,1.28 -5.38,3.83 -1.27,2.57 -1.91,5.49 -1.91,8.78l0 15.75 -4.52 0 0 -19.89c0,-2.36 -0.7,-4.37 -2.1,-6.01 -1.4,-1.64 -3.26,-2.46 -5.58,-2.46 -2.32,0 -4.12,1.28 -5.39,3.83 -1.26,2.57 -1.9,5.49 -1.9,8.78l0 15.75 -4.53 0 0 -31.45 4.53 0 0 3.03c2.01,-2.76 4.61,-4.14 7.81,-4.14 3.2,0 5.93,1.2 8.21,3.61 0.87,0.87 1.57,1.81 2.09,2.82z"/>
  <path fill="gray" fill-rule="nonzero" d="M1434.74 1569.9c2.17,-2.59 3.25,-5.51 3.25,-8.79 0,-3.29 -1.08,-6.21 -3.25,-8.78 -2.16,-2.55 -4.76,-3.83 -7.77,-3.83 -3.03,0 -5.62,1.28 -7.79,3.83 -2.16,2.57 -3.25,5.49 -3.25,8.78 0,3.28 1.09,6.2 3.25,8.79 2.17,2.58 4.76,3.88 7.79,3.88 3.01,0 5.61,-1.3 7.77,-3.88zm-18.81 -19.56c2.8,-4.03 6.39,-6.04 10.73,-6.04 4.36,0 8.1,1.68 11.23,5.05 3.13,3.38 4.7,7.3 4.7,11.79 0,4.48 -1.6,8.4 -4.77,11.74 -3.17,3.35 -6.94,5.03 -11.31,5.03 -4.38,0 -7.91,-1.95 -10.58,-5.85l0 4.8 -4.52 0 0 -48.78 4.52 0 0 22.26z"/>
  <polygon id="1" fill="gray" fill-rule="nonzero" points="1459.58,1570.95 1469.89,1545.41 1474.87,1545.41 1456.63,1590.31 1451.77,1590.31 1457.15,1576.93 1444.35,1545.41 1449.34,1545.41 "/>
  <g>
   <path fill="gray" fill-rule="nonzero" d="M1505.45 1367.23c1.47,-1.76 2.21,-3.75 2.21,-5.97 0,-2.23 -0.74,-4.22 -2.21,-5.96 -1.47,-1.73 -3.23,-2.6 -5.28,-2.6 -2.05,0 -3.81,0.87 -5.28,2.6 -1.47,1.74 -2.21,3.73 -2.21,5.96 0,2.22 0.74,4.21 2.21,5.97 1.47,1.74 3.23,2.63 5.28,2.63 2.05,0 3.81,-0.89 5.28,-2.63zm-12.77 -13.28c1.91,-2.74 4.34,-4.1 7.29,-4.1 2.96,0 5.5,1.14 7.62,3.43 2.12,2.29 3.18,4.95 3.18,8 0,3.04 -1.08,5.7 -3.23,7.97 -2.15,2.27 -4.71,3.41 -7.68,3.41 -2.97,0 -5.37,-1.32 -7.18,-3.97l0 3.26 -3.07 0 0 -33.11 3.07 0 0 15.11zm29.63 13.99l6.99 -17.34 3.39 0 -12.38 30.48 -3.3 0 3.65 -9.09 -8.68 -21.39 3.38 0 6.95 17.34z"/>
   <path fill="gray" fill-rule="nonzero" d="M1258.26 1354.22c1.49,-2.92 3.45,-4.37 5.87,-4.37 2.42,0 4.41,0.81 5.97,2.45 1.55,1.63 2.34,3.68 2.34,6.15l0 13.5 -3.08 0 0 -13.5c0,-1.6 -0.47,-2.96 -1.42,-4.08 -0.95,-1.11 -2.22,-1.67 -3.79,-1.67 -1.57,0 -2.79,0.87 -3.66,2.6 -0.86,1.74 -1.29,3.73 -1.29,5.96l0 10.69 -3.07 0 0 -13.5c0,-1.6 -0.47,-2.96 -1.42,-4.08 -0.96,-1.11 -2.22,-1.67 -3.79,-1.67 -1.58,0 -2.8,0.87 -3.66,2.6 -0.86,1.74 -1.29,3.73 -1.29,5.96l0 10.69 -3.07 0 0 -21.35 3.07 0 0 2.06c1.37,-1.87 3.13,-2.81 5.3,-2.81 2.17,0 4.03,0.81 5.57,2.45 0.59,0.59 1.07,1.23 1.42,1.92zm23.68 1.08c-1.46,1.74 -2.2,3.73 -2.2,5.96 0,2.22 0.74,4.21 2.2,5.97 1.48,1.74 3.23,2.63 5.29,2.63 2.04,0 3.81,-0.89 5.28,-2.63 1.46,-1.76 2.2,-3.75 2.2,-5.97 0,-2.23 -0.74,-4.22 -2.2,-5.96 -1.47,-1.73 -3.24,-2.6 -5.28,-2.6 -2.06,0 -3.81,0.87 -5.29,2.6zm-5.27 5.98c0,-3.08 1.05,-5.75 3.16,-8.02 2.11,-2.28 4.64,-3.41 7.6,-3.41 2.95,0 5.38,1.36 7.28,4.1l0 -3.35 3.12 0 0 21.35 -3.12 0 0 -3.26c-1.81,2.65 -4.21,3.97 -7.17,3.97 -2.97,0 -5.53,-1.13 -7.67,-3.39 -2.13,-2.25 -3.2,-4.92 -3.2,-7.99zm26.91 10.67l0 -33.11 3.07 0 0 20.23 8.46 -8.47 4.46 0 -8.2 8.2 8.82 13.15 -3.79 0 -7.3 -10.92 -2.45 2.45 0 8.47 -3.07 0zm20.49 -10.69c0,2.34 0.75,4.36 2.25,6.06 1.51,1.68 3.25,2.54 5.24,2.54 2.17,0 3.75,-0.31 4.74,-0.92 1,-0.61 1.9,-1.59 2.7,-2.96l2.49 1.65c-1.1,1.69 -2.37,2.95 -3.83,3.79 -1.46,0.82 -3.46,1.24 -6.02,1.24 -2.7,0 -5.15,-1.14 -7.34,-3.41 -2.2,-2.27 -3.3,-4.94 -3.3,-7.99 0,-3.07 1.08,-5.73 3.25,-8 2.17,-2.28 4.6,-3.41 7.31,-3.41 2.7,0 5.15,1.13 7.33,3.41 2.18,2.27 3.27,4.93 3.27,8l-18.09 0zm0.49 -2.81l14.04 0c-0.54,-1.69 -1.46,-3.08 -2.77,-4.14 -1.31,-1.08 -2.73,-1.61 -4.27,-1.61 -1.54,0 -2.97,0.53 -4.26,1.61 -1.29,1.06 -2.2,2.45 -2.74,4.14zm36.67 13.5l-6.95 -21.35 3.29 0 5.39 16.72 5.4 -16.72 3.16 0 5.39 16.67 5.44 -16.67 3.3 0 -6.95 21.35 -3.48 0 -5.26 -16.13 -5.25 16.13 -3.48 0zm27.81 -26.22c-0.48,-0.5 -0.72,-1.08 -0.72,-1.77 0,-0.68 0.24,-1.26 0.72,-1.73 0.47,-0.48 1.05,-0.71 1.73,-0.71 0.69,0 1.27,0.23 1.77,0.71 0.48,0.47 0.73,1.05 0.73,1.73 0,0.69 -0.25,1.27 -0.73,1.77 -0.5,0.49 -1.08,0.73 -1.77,0.73 -0.68,0 -1.26,-0.24 -1.73,-0.73zm0.22 26.22l0 -21.35 3.07 0 0 21.35 -3.07 0zm7.21 -18.54l0 -2.81 2.72 0 0 -7.08 3.13 0 0 7.08 4.89 0 0 2.81 -4.89 0 0 18.54 -3.13 0 0 -18.54 -2.72 0zm17.24 -0.22c1.93,-2.23 4.04,-3.34 6.33,-3.34 2.77,0 5.03,0.77 6.8,2.31 1.76,1.55 2.64,3.64 2.64,6.29l0 13.5 -3.07 0 0 -13.5c0,-1.69 -0.61,-3.08 -1.85,-4.14 -1.23,-1.08 -2.78,-1.61 -4.65,-1.61 -1.87,0 -3.37,0.84 -4.5,2.52 -1.13,1.67 -1.7,3.69 -1.7,6.04l0 10.69 -3.07 0 0 -33.11 3.07 0 0 14.35z"/>
   <path fill="#FF1344" fill-rule="nonzero" d="M1458.8 1344.29c2.29,-4.58 4.58,-6.87 9.16,-6.87 5.06,0 9.17,4.11 9.17,9.17 0,9.16 -9.17,18.33 -18.33,27.49 -9.17,-9.16 -18.33,-18.33 -18.33,-27.49 0,-5.06 4.1,-9.17 9.16,-9.17 4.58,0 6.88,2.29 9.17,6.87z"/>
   <g>
    <path fill="#1F0933" d="M1548.54 1329.8c0.12,0 0.23,0.01 0.35,0.02 2.35,0.33 4.69,0.68 7.04,1.02 1.78,0.26 3.19,2.04 2.92,3.92l-0.79 5.36c0,0 0.32,-0.44 0.67,-0.74 0.64,-0.53 1.48,-0.81 2.31,-0.79 2.36,0.08 4.72,0.2 7.07,0.3 1.87,0.09 3.48,1.84 3.29,3.8l-0.22 2.25c0.24,-0.27 0.83,-0.7 1.33,-0.91 3.97,-1.7 8.64,-1.77 12.43,0.56 2.3,1.42 3.85,3.91 4.39,6.61 0.6,3 0.06,6.17 -1.04,8.94l-0.02 0.03c0.05,-0.02 0.1,-0.03 0.15,-0.05 1.15,-0.42 2.35,-0.8 3.56,-0.91 0.24,-0.02 0.49,-0.01 0.73,0.02l-0.78 -2.57c0,0 -0.16,-0.58 -0.14,-1.08 0.02,-1.32 0.85,-2.57 2.1,-3.11 1.84,-0.78 3.7,-1.54 5.55,-2.3 1.15,-0.47 2.53,-0.27 3.51,0.52l0.3 -2.35c0,0 0.08,-0.48 0.23,-0.86 0.29,-0.71 0.82,-1.32 1.47,-1.7l5.92 -3.41c0.17,-0.09 0.22,-0.12 0.32,-0.16 1.76,-0.78 4.11,0.2 4.71,2.14 0.07,0.21 0.05,0.09 0.07,0.05 0.06,-0.18 0.07,-0.21 0.12,-0.31 0.69,-1.58 2.25,-2.73 3.97,-3.07 2.27,-0.45 4.83,0.52 6.03,2.49 1.24,2.03 0.7,4.89 -1.36,6.42 0,0 0.82,0.81 1.09,1.63 1.05,-1.43 2.49,-2.55 4.07,-3.36l0.01 0c-0.36,-1.93 -0.72,-3.85 -1.09,-5.77 0,0 -0.09,-0.59 -0.02,-1.11 0.19,-1.4 1.31,-2.6 2.7,-2.91 1.75,-0.37 3.51,-0.71 5.27,-1.07 0.29,-0.05 0.58,-0.07 0.87,-0.06 0.37,-2.77 1.94,-5.4 4.14,-7.18 0,0 0.52,-0.4 1.02,-0.58 1.35,-0.49 2.97,-0.05 3.89,1.11 1.14,1.46 2.27,2.93 3.4,4.4 0.11,0.15 0.14,0.19 0.2,0.29 0.67,1.1 0.62,2.54 -0.03,3.67 -0.01,0.02 -0.02,0.04 -0.03,0.06 -0.06,0.12 -0.12,0.22 -0.07,0.27 0.65,0.7 1.57,1.15 2.41,1.79 2.22,1.67 4.09,3.98 4.42,6.78 0.34,2.93 -0.72,6.01 -2.84,8.01 -2.34,2.21 -5.72,3.09 -9.01,3.16 -0.76,0.01 -1.52,-0.16 -2.16,-0.59l0.91 7.89c0,0 0.05,0.61 -0.06,1.11 -0.27,1.27 -1.3,2.33 -2.59,2.65 -1.27,0.29 -2.55,0.57 -3.82,0.85 -0.98,0.22 -2.05,-0.08 -2.78,-0.79l-0.2 -0.01c-3.66,-0.01 -7.21,-1.92 -9.07,-5.09 0,0 -0.23,0.44 -0.5,0.76 -0.63,0.75 -1.6,1.2 -2.59,1.22 -1.35,0.01 -2.7,0 -4.05,0 -1.84,-0.01 -3.51,-1.65 -3.45,-3.57 0,-0.05 0,-0.09 0.01,-0.14 0.27,-3.62 0.6,-7.24 0.9,-10.86 0.1,-1.14 0.8,-2.21 1.81,-2.76 -0.02,-0.01 -0.04,-0.03 -0.06,-0.05 -0.76,-0.66 -1.33,-1.53 -1.58,-2.49l-2.43 17.89 4.09 4.67c0,0 0.44,0.55 0.64,1.08 0.51,1.39 0.01,3.08 -1.2,3.99 -1.35,0.97 -2.71,1.93 -4.06,2.89 -0.82,0.58 -1.89,0.79 -2.87,0.54 0,0 -0.13,0.46 -0.34,0.83 -0.47,0.83 -1.29,1.44 -2.23,1.66 -1.5,0.33 -3.01,0.65 -4.52,0.98 -1.68,0.35 -3.51,-0.68 -4.04,-2.36l-0.31 -1c-0.01,0.07 -0.01,0.1 -0.01,0.1 -0.21,1.21 -1.08,2.24 -2.25,2.69 -4.16,1.58 -9.12,1.47 -12.72,-1.21 -1.79,-1.33 -3.07,-3.3 -3.58,-5.49 -0.31,-1.36 -0.35,-2.77 -0.18,-4.16 0,0 0.08,-0.08 -0.07,-0.06 -1.13,0.15 -2.2,-0.43 -3.22,-0.94 -0.69,-0.34 -1.38,-0.68 -2.06,-1.03 0,0 -0.34,-0.18 -0.57,-0.38 -0.41,-0.35 -0.71,-0.83 -0.86,-1.34 -0.06,-0.21 -0.09,-0.15 -0.14,-0.17 -1.42,-0.55 -2.71,-1.42 -3.67,-2.59l-0.24 2.25c0,0 -0.08,0.59 -0.28,1.05 -0.54,1.2 -1.8,2.03 -3.13,2.05 -1.7,0.01 -3.4,0 -5.1,0 -1.82,-0.01 -3.48,-1.58 -3.46,-3.52l0.1 -5.12 -2.09 0.11 -1.29 8.76c-0.25,1.65 -1.82,3.01 -3.53,2.96 -0.04,-0.01 -0.08,-0.01 -0.13,-0.01 -1.94,-0.14 -3.88,-0.31 -5.82,-0.46 -1.76,-0.15 -3.28,-1.8 -3.17,-3.66 0,-0.04 0,-0.08 0.01,-0.13 1.22,-11.74 2.58,-23.46 3.88,-35.19 0.19,-1.67 1.69,-3.07 3.45,-3.08 0.05,0 0.05,0 0.09,0.01z"/>
    <path fill="#1371FF" d="M1593.11 1368.33c0.6,-0.1 1.02,-0.67 0.93,-1.28 -0.17,-1.26 -0.45,-3.29 -0.62,-4.54 -0.04,-0.3 -0.2,-0.57 -0.45,-0.76 -0.24,-0.18 -0.55,-0.26 -0.85,-0.21 -2.68,0.45 -9.17,2.24 -9.98,9.03 -0.97,8.17 7.02,10.87 13.43,8.38 0.53,-0.21 0.83,-0.78 0.69,-1.34 -0.2,-0.78 -0.47,-1.9 -0.68,-2.72 -0.15,-0.6 -0.75,-0.97 -1.35,-0.84 -1.89,0.41 -5.68,0.93 -6.02,-1.27 -0.49,-3.09 3.04,-4.12 4.9,-4.45z"/>
    <path fill="#851DE8" d="M1603.54 1359.88c0.04,0.15 0.17,0.25 0.33,0.24 0.15,0 0.28,-0.12 0.3,-0.27 0.38,-3.06 1.15,-9.31 1.39,-11.21 0.04,-0.36 0.25,-0.67 0.56,-0.85 1.13,-0.65 3.96,-2.28 5.91,-3.4 0.37,-0.22 0.84,-0.2 1.2,0.04 0.36,0.25 0.55,0.67 0.49,1.1 -0.69,5.11 -2.31,17.14 -2.67,19.77 -0.05,0.33 0.05,0.66 0.27,0.91 0.87,0.99 3.18,3.64 4.43,5.06 0.22,0.25 0.31,0.57 0.28,0.89 -0.04,0.32 -0.21,0.6 -0.47,0.79 -1.16,0.83 -3.02,2.16 -4.01,2.87 -0.4,0.28 -0.94,0.28 -1.34,-0.01 -0.81,-0.59 -2.16,-1.58 -2.88,-2.1 -0.07,-0.05 -0.17,-0.05 -0.24,0 -0.07,0.05 -0.11,0.14 -0.09,0.23 0.19,0.76 0.54,2.16 0.78,3.15 0.07,0.3 0.02,0.61 -0.14,0.87 -0.16,0.27 -0.42,0.45 -0.72,0.52 -1.26,0.27 -3.27,0.71 -4.48,0.97 -0.58,0.12 -1.16,-0.22 -1.33,-0.78 -1.22,-3.99 -5.73,-18.72 -6.95,-22.68 -0.17,-0.57 0.11,-1.17 0.65,-1.39 1.4,-0.58 3.98,-1.65 5.51,-2.28 0.31,-0.13 0.66,-0.12 0.96,0.03 0.29,0.15 0.51,0.43 0.59,0.75 0.43,1.74 1.2,4.86 1.67,6.78z"/>
    <path fill="#F57513" d="M1566.69 1365.79c-0.05,0.58 -0.55,1.02 -1.13,1.02 -1.33,0 -3.66,0 -5.05,0 -0.31,0 -0.6,-0.12 -0.82,-0.34 -0.21,-0.22 -0.33,-0.52 -0.32,-0.82 0.03,-1.66 0.08,-4.7 0.12,-6.4 0,-0.32 -0.12,-0.62 -0.35,-0.84 -0.23,-0.22 -0.54,-0.34 -0.86,-0.32 -1.26,0.07 -3.19,0.18 -4.33,0.25 -0.54,0.03 -0.98,0.44 -1.06,0.97 -0.31,2.14 -1.09,7.44 -1.43,9.71 -0.09,0.59 -0.62,1.02 -1.22,0.97 -1.49,-0.12 -4.21,-0.33 -5.76,-0.45 -0.31,-0.03 -0.6,-0.18 -0.79,-0.41 -0.2,-0.24 -0.29,-0.55 -0.26,-0.86 0.62,-5.59 3.26,-29.54 3.88,-35.14 0.03,-0.3 0.19,-0.58 0.43,-0.77 0.25,-0.19 0.56,-0.27 0.86,-0.23 1.8,0.26 5.21,0.75 6.99,1.01 0.3,0.04 0.57,0.2 0.75,0.44 0.18,0.25 0.26,0.55 0.21,0.85 -0.4,2.76 -1.44,9.79 -1.83,12.46 -0.09,0.59 0.3,1.15 0.88,1.28 0.78,0.17 1.86,0.41 2.71,0.6 0.33,0.07 0.69,0 0.95,-0.22 0.27,-0.21 0.43,-0.53 0.44,-0.87 0.03,-1.59 0.07,-4.16 0.1,-5.65 0.01,-0.31 0.14,-0.6 0.36,-0.81 0.22,-0.21 0.52,-0.32 0.83,-0.31 1.79,0.08 5.2,0.22 7.02,0.3 0.31,0.01 0.6,0.15 0.81,0.39 0.21,0.24 0.3,0.55 0.27,0.86 -0.45,4.36 -1.98,19.27 -2.4,23.33z"/>
    <path fill="#F57513" d="M1631.68 1349.93c0.49,-0.21 0.78,-0.73 0.68,-1.26 -0.31,-1.61 -0.93,-4.93 -1.26,-6.66 -0.12,-0.62 0.28,-1.21 0.89,-1.33 1.39,-0.28 3.78,-0.77 5.22,-1.06 0.31,-0.06 0.64,0.01 0.89,0.2 0.26,0.19 0.43,0.47 0.47,0.79 0.54,4.73 2.5,21.67 3,26.01 0.06,0.57 -0.32,1.11 -0.89,1.24 -1.08,0.24 -2.8,0.62 -3.77,0.84 -0.19,0.04 -0.39,0.01 -0.56,-0.1 -0.16,-0.11 -0.27,-0.28 -0.31,-0.47l0 0c-0.04,-0.23 -0.26,-0.39 -0.49,-0.36 -5.03,0.62 -10.07,-2.89 -9.44,-10.42 0.34,-4.15 2.94,-6.3 5.57,-7.42zm2.14 6.45c-0.02,-0.1 -0.12,-0.17 -0.22,-0.16 -1.6,0.21 -2.72,1.38 -2.1,3.57 0.46,1.59 1.9,1.78 3.18,1.6 0.02,0 0.04,-0.01 0.06,-0.03 0.01,-0.02 0.01,-0.04 0.01,-0.06 -0.11,-0.57 -0.77,-4.08 -0.93,-4.92z"/>
    <path fill="#FF1344" d="M1578.77 1353.81c0.05,0.02 0.1,0 0.13,-0.05 0.99,-1.59 1.35,-3.61 -4.28,-2.6 -0.58,0.1 -1.14,-0.26 -1.29,-0.84 -0.21,-0.83 -0.51,-1.98 -0.7,-2.76 -0.14,-0.54 0.12,-1.09 0.62,-1.32 1.8,-0.8 6.16,-2.23 10.37,0.27 5.38,3.2 5.26,13.18 -3.55,21.14 -0.35,0.31 -0.85,0.38 -1.27,0.17 -0.9,-0.45 -2.45,-1.23 -3.26,-1.63 -0.12,-0.06 -0.22,-0.18 -0.25,-0.32 -0.03,-0.13 0.01,-0.28 0.09,-0.39l0 0c0.12,-0.15 0.15,-0.35 0.09,-0.54 -0.07,-0.18 -0.22,-0.31 -0.41,-0.36 -7.31,-1.61 -6.16,-9.72 -0.88,-10.98 1.89,-0.45 3.41,-0.25 4.59,0.21zm-1.11 3.54c1.24,0.42 1.96,1.6 1.6,2.62 -0.35,1.03 -1.64,1.51 -2.88,1.08 -1.23,-0.42 -1.95,-1.6 -1.6,-2.62 0.36,-1.03 1.65,-1.51 2.88,-1.08z"/>
    <path fill="#FF1344" d="M1643.28 1331.87c0.5,-0.38 1.2,-0.29 1.58,0.21 0.91,1.17 2.54,3.28 3.37,4.36 0.29,0.37 0.32,0.89 0.07,1.29 -0.49,0.8 -1.01,2.24 0.45,3.46 2.15,1.82 7.47,4.08 5.55,10.19 -1.49,4.74 -6.99,5.33 -9.4,5.36 -0.62,0 -1.13,-0.51 -1.13,-1.14 -0.01,-0.76 -0.01,-1.77 -0.02,-2.51 0,-0.55 0.39,-1.02 0.93,-1.12 1.49,-0.29 4.2,-1.1 3.87,-3.21 -0.46,-2.9 -5.8,-1.91 -7.97,-6.89 -1.91,-4.37 0.41,-8.19 2.7,-10z"/>
    <path fill="#00F5A9" d="M1623.36 1363.63c-0.01,0.61 -0.52,1.11 -1.14,1.11 -1.11,0 -2.83,0 -3.99,0 -0.32,0 -0.62,-0.14 -0.84,-0.37 -0.21,-0.24 -0.32,-0.55 -0.29,-0.87 0.21,-2.57 0.7,-8.46 0.9,-10.81 0.04,-0.57 0.51,-1.02 1.08,-1.04 0.95,-0.05 2.37,-0.12 3.39,-0.17 0.31,-0.01 0.62,0.1 0.85,0.33 0.23,0.22 0.35,0.53 0.34,0.84 -0.07,2.58 -0.23,8.51 -0.3,10.98zm-2.12 -20.4c1.78,0 3.22,1.24 3.22,2.75 0,1.52 -1.44,2.76 -3.22,2.76 -1.78,0 -3.23,-1.24 -3.23,-2.76 0,-1.51 1.45,-2.75 3.23,-2.75z"/>
    <path fill="#E6E6E6" d="M1588.19 1372.64c0,0.05 0.01,0.09 0.02,0.14 0.34,2.2 4.13,1.68 6.02,1.27 0.6,-0.13 1.2,0.24 1.35,0.84 0.21,0.82 0.48,1.94 0.68,2.72 0.05,0.23 0.04,0.45 -0.03,0.66 -0.2,-0.77 -0.46,-1.8 -0.65,-2.57 -0.15,-0.59 -0.75,-0.96 -1.35,-0.83 -1.89,0.4 -5.68,0.91 -6.02,-1.26 -0.06,-0.35 -0.06,-0.67 -0.02,-0.97zm18.95 1.87l0.64 2.58c0.05,0.22 0.04,0.45 -0.03,0.66l-0.75 -3c-0.02,-0.08 0.02,-0.17 0.09,-0.22 0.02,-0.01 0.04,-0.02 0.05,-0.02zm3.96 -8.68c0.05,0.14 0.12,0.27 0.22,0.38 0.87,0.99 3.18,3.64 4.43,5.06 0.22,0.25 0.31,0.57 0.28,0.89 -0.01,0.1 -0.04,0.19 -0.08,0.29 -0.04,-0.12 -0.11,-0.23 -0.2,-0.33 -1.25,-1.42 -3.56,-4.03 -4.43,-5.02 -0.22,-0.24 -0.32,-0.57 -0.27,-0.89l0.05 -0.38zm-29.03 6.48c-0.02,-0.55 0,-1.13 0.07,-1.74 0.81,-6.79 7.3,-8.58 9.98,-9.03 0.3,-0.05 0.61,0.03 0.85,0.21 0.25,0.19 0.41,0.46 0.45,0.76 0.17,1.25 0.45,3.28 0.62,4.54 0.03,0.19 0.01,0.36 -0.05,0.53 -0.17,-1.25 -0.41,-3.01 -0.57,-4.14 -0.04,-0.3 -0.2,-0.57 -0.45,-0.75 -0.24,-0.18 -0.55,-0.25 -0.85,-0.21 -2.68,0.45 -9.17,2.22 -9.98,8.94 -0.03,0.3 -0.06,0.6 -0.07,0.89zm-38.59 -3.57c-0.05,-0.15 -0.07,-0.31 -0.05,-0.47 0.62,-5.59 3.26,-29.54 3.88,-35.14 0.03,-0.3 0.19,-0.58 0.43,-0.77 0.25,-0.19 0.56,-0.27 0.86,-0.23 1.8,0.26 5.21,0.75 6.99,1.01 0.3,0.04 0.57,0.2 0.75,0.44 0.18,0.25 0.26,0.55 0.21,0.85l-0.08 0.59c-0.04,-0.07 -0.08,-0.15 -0.13,-0.22 -0.18,-0.24 -0.45,-0.39 -0.75,-0.44 -1.78,-0.25 -5.19,-0.74 -6.99,-0.99 -0.3,-0.05 -0.61,0.03 -0.86,0.22 -0.24,0.19 -0.4,0.47 -0.43,0.77l-3.83 34.38zm87.7 -26.28l-0.08 -0.45c-0.12,-0.62 0.28,-1.21 0.89,-1.33 1.39,-0.28 3.78,-0.77 5.22,-1.06 0.31,-0.06 0.64,0.01 0.89,0.2 0.26,0.19 0.43,0.47 0.47,0.79 0.54,4.73 2.5,21.67 3,26.01 0.02,0.16 0,0.33 -0.05,0.48l-2.95 -25.34c-0.04,-0.31 -0.21,-0.59 -0.47,-0.78 -0.25,-0.19 -0.58,-0.26 -0.89,-0.19 -1.44,0.28 -3.83,0.76 -5.22,1.04 -0.37,0.07 -0.66,0.31 -0.81,0.63zm-55.87 23.16c0.07,0.06 0.12,0.14 0.16,0.23 0.03,0.1 0.04,0.21 0.02,0.31 -0.1,-0.07 -0.17,-0.17 -0.2,-0.29 -0.02,-0.08 -0.01,-0.17 0.02,-0.25zm-15.84 -5.6c0.01,0.06 0.02,0.13 0.02,0.19l-0.11 5.63c-0.01,-0.06 -0.01,-0.13 -0.01,-0.19l0.1 -5.63zm57.67 3.9c-0.04,-0.13 -0.06,-0.28 -0.04,-0.42 0.21,-2.57 0.7,-8.46 0.9,-10.81 0.04,-0.57 0.51,-1.02 1.08,-1.04 0.95,-0.05 2.37,-0.12 3.39,-0.17 0.31,-0.01 0.62,0.1 0.85,0.33 0.23,0.22 0.35,0.53 0.34,0.84l-0.02 0.78c-0.04,-0.22 -0.15,-0.42 -0.32,-0.58 -0.23,-0.22 -0.54,-0.34 -0.85,-0.32 -1.02,0.04 -2.44,0.11 -3.39,0.16 -0.57,0.03 -1.04,0.47 -1.08,1.03l-0.86 10.2zm14.23 -4.78c0.02,0.21 0.07,0.42 0.13,0.65 0.45,1.55 1.83,1.77 3.09,1.62l0.16 0.84c0,0.02 0,0.04 -0.01,0.06 -0.02,0.01 -0.04,0.02 -0.06,0.03 -1.28,0.17 -2.72,-0.02 -3.18,-1.59 -0.17,-0.61 -0.21,-1.15 -0.13,-1.61zm-56.61 0.32c0.2,0.69 0.8,1.31 1.62,1.59 1.24,0.43 2.53,-0.05 2.88,-1.08 0.01,-0.02 0.02,-0.04 0.02,-0.06 0.1,0.34 0.1,0.69 -0.02,1.02 -0.35,1.01 -1.64,1.49 -2.88,1.07 -1.21,-0.41 -1.92,-1.54 -1.62,-2.54zm19.46 -3.28l-0.06 -0.19c-0.17,-0.57 0.11,-1.17 0.65,-1.39 1.4,-0.58 3.98,-1.65 5.51,-2.28 0.31,-0.13 0.66,-0.12 0.96,0.03 0.29,0.15 0.51,0.43 0.59,0.75 0.43,1.74 1.2,4.86 1.67,6.78 0.04,0.15 0.17,0.25 0.33,0.24 0.15,0 0.28,-0.12 0.3,-0.27 0.38,-3.06 1.15,-9.31 1.39,-11.21 0.04,-0.36 0.25,-0.67 0.56,-0.85 1.13,-0.65 3.96,-2.28 5.91,-3.4 0.37,-0.22 0.84,-0.2 1.2,0.04 0.36,0.25 0.55,0.67 0.49,1.1l-0.07 0.53c-0.08,-0.2 -0.23,-0.39 -0.42,-0.51 -0.36,-0.24 -0.83,-0.26 -1.2,-0.05 -1.95,1.12 -4.78,2.73 -5.91,3.37 -0.31,0.18 -0.52,0.49 -0.56,0.84 -0.24,1.88 -1.01,8.07 -1.39,11.1 -0.02,0.15 -0.15,0.26 -0.3,0.27 -0.16,0.01 -0.29,-0.09 -0.33,-0.24 -0.47,-1.9 -1.24,-4.99 -1.67,-6.71 -0.08,-0.32 -0.3,-0.59 -0.59,-0.74 -0.3,-0.15 -0.65,-0.16 -0.96,-0.04 -1.53,0.63 -4.11,1.69 -5.51,2.26 -0.27,0.11 -0.48,0.32 -0.59,0.57zm-14.84 -3.43c0.27,0.57 -0.05,1.34 -0.48,2.03 -0.03,0.05 -0.08,0.07 -0.13,0.05 -1.18,-0.46 -2.7,-0.66 -4.59,-0.21 -2.49,0.59 -4.06,2.68 -4.26,4.9 -0.24,-2.57 1.41,-5.24 4.26,-5.92 1.89,-0.45 3.41,-0.25 4.59,0.21 0.05,0.02 0.1,0 0.13,-0.05 0.2,-0.33 0.38,-0.67 0.48,-1.01zm52.9 -3.41l0.08 0.4c0.1,0.53 -0.19,1.05 -0.68,1.25 -2.63,1.11 -5.23,3.24 -5.57,7.34 -0.02,0.26 -0.04,0.51 -0.05,0.75 -0.02,-0.55 0,-1.13 0.05,-1.73 0.34,-4.15 2.94,-6.3 5.57,-7.42 0.28,-0.11 0.49,-0.33 0.6,-0.59zm-59.58 -1.47l-0.07 -0.31c-0.14,-0.54 0.12,-1.09 0.62,-1.32 1.8,-0.8 6.16,-2.23 10.37,0.27 2.46,1.46 3.77,4.34 3.63,7.8 -0.13,-2.97 -1.42,-5.4 -3.63,-6.7 -4.21,-2.49 -8.57,-1.06 -10.37,-0.27 -0.25,0.11 -0.43,0.3 -0.55,0.53zm75.8 1.75c0.02,0.07 0.04,0.14 0.05,0.21 0.33,2.09 -2.38,2.9 -3.87,3.17 -0.5,0.1 -0.88,0.51 -0.92,1.01 -0.01,-0.32 -0.01,-0.64 -0.01,-0.92 0,-0.55 0.39,-1.02 0.93,-1.12 1.27,-0.24 3.41,-0.87 3.82,-2.35zm-93.71 -2.13c0.14,0.33 0.43,0.6 0.81,0.68 0.78,0.17 1.86,0.41 2.71,0.6 0.33,0.07 0.69,0 0.95,-0.22 0.27,-0.21 0.43,-0.53 0.44,-0.87 0.03,-1.59 0.07,-4.16 0.1,-5.65 0.01,-0.31 0.14,-0.6 0.36,-0.81 0.22,-0.21 0.52,-0.32 0.83,-0.31 1.79,0.08 5.2,0.22 7.02,0.3 0.31,0.01 0.6,0.15 0.81,0.39 0.21,0.24 0.3,0.55 0.27,0.86l-0.06 0.63c-0.05,-0.13 -0.12,-0.24 -0.21,-0.35 -0.21,-0.23 -0.5,-0.37 -0.81,-0.39 -1.82,-0.07 -5.23,-0.22 -7.02,-0.29 -0.31,-0.01 -0.61,0.1 -0.83,0.3 -0.22,0.21 -0.35,0.5 -0.36,0.81 -0.03,1.47 -0.07,4.02 -0.1,5.59 -0.01,0.34 -0.17,0.66 -0.44,0.87 -0.26,0.21 -0.62,0.29 -0.95,0.21 -0.85,-0.18 -1.93,-0.42 -2.71,-0.59 -0.58,-0.13 -0.97,-0.68 -0.88,-1.27l0.07 -0.49zm93.08 -7.59c0.12,0.43 0.38,0.88 0.88,1.29 1.91,1.61 6.31,3.57 5.94,8.25 -0.32,-3.88 -4.19,-5.64 -5.94,-7.1 -0.96,-0.8 -1.06,-1.7 -0.88,-2.44zm-29.79 6.64c-0.04,-0.18 -0.07,-0.37 -0.07,-0.56 0,-1.51 1.45,-2.75 3.23,-2.75 1.78,0 3.22,1.24 3.22,2.75 0,0.19 -0.02,0.38 -0.06,0.56 -0.3,-1.25 -1.6,-2.18 -3.16,-2.18 -1.56,0 -2.86,0.93 -3.16,2.18zm21.81 -7.35c-0.24,-3.21 1.58,-5.89 3.39,-7.32 0.5,-0.38 1.2,-0.29 1.58,0.21 0.91,1.17 2.54,3.28 3.37,4.36 0.29,0.37 0.32,0.89 0.07,1.29l0 0c-0.02,-0.03 -0.05,-0.06 -0.07,-0.09 -0.83,-1.07 -2.46,-3.17 -3.37,-4.32 -0.38,-0.49 -1.08,-0.59 -1.58,-0.22 -1.58,1.25 -3.18,3.43 -3.39,6.09z"/>
   </g>
  </g>
  <g>
   <path fill="#373435" d="M1471.38 1173.66l0 31.13 0 4.35c1.65,-1.22 14.38,-0.79 20.54,-0.79l6.44 0c10.61,0 18.8,2.37 24.57,8.01 5.78,5.64 8.66,13.76 8.66,24.37l0 37.45c0,10.61 -2.88,18.73 -8.66,24.37 -5.77,5.64 -13.96,8.46 -24.57,8.46l-19.31 0c-15.87,0.23 -29.21,-6.55 -32.48,-24.02l-0.01 -0.04c-0.04,-0.25 -0.09,-0.49 -0.13,-0.74l-0.07 -0.42 -0.06 -0.4 -0.1 -0.73 -0.03 -0.21 -0.08 -0.76 -0.03 -0.24c-0.03,-0.31 -0.06,-0.62 -0.09,-0.94 -0.02,-0.31 -0.04,-0.62 -0.06,-0.94l-0.02 -0.31 -0.04 -0.75 -0.01 -0.26 -0.02 -0.83 -0.01 -0.21c0,-0.3 0,-0.59 -0.01,-0.89l0 -0.13 0 -104.53c0,-2.81 1.41,-4.23 4.23,-4.23l17.12 0c2.82,0 4.23,1.42 4.23,4.23zm0.35 99.83l0 -40.88c0,-1.48 0.83,-2.21 2.49,-2.21l19.44 0c4.42,0 7.52,0.9 9.31,2.71 1.8,1.82 2.69,4.87 2.69,9.17l0 34.64c0,4.29 -0.89,7.35 -2.69,9.16 -1.79,1.81 -4.89,2.72 -9.31,2.72l-7.65 0c-9.52,0 -14.28,-5.1 -14.28,-15.31z"/>
   <path fill="#FF1344" fill-rule="nonzero" d="M1151.83 1311.01l-4.84 0c-10.6,0 -18.79,-2.82 -24.56,-8.46 -5.78,-5.64 -8.66,-13.76 -8.66,-24.37l0 -37.05c0,-10.61 2.88,-18.73 8.66,-24.37 5.77,-5.64 13.96,-8.45 24.56,-8.46l48.02 -0.01c2.95,-0.01 4.43,1.52 4.43,4.33l0 93.4c0,2.81 -1.49,4.04 -4.43,4.23l-16.95 1.09c-2.81,0.18 -4.23,-1.41 -4.23,-4.23l0 -6.64 -0.81 0c-1.47,3.62 -5.55,6.01 -9.31,7.82 -3.76,1.81 -7.72,2.72 -11.88,2.72zm22 -37.13l0 -40.88c0,-1.48 -0.81,-2.19 -2.42,-2.21l-20.39 -0.34c-4.29,-0.07 -7.32,0.91 -9.06,2.72 -1.74,1.81 -2.62,4.87 -2.62,9.17l0 34.63c0,4.3 0.87,7.35 2.62,9.17 1.75,1.81 4.77,2.72 9.06,2.72l7.45 0c9.27,0 15.36,-4.77 15.36,-14.98z"/>
   <path fill="#373435" fill-rule="nonzero" d="M1606.24 1230.45l-8.06 0c-1.61,0 -2.72,-0.26 -3.32,-0.8 -0.61,-0.54 -0.91,-1.61 -0.91,-3.22l0 -13.9c0,-2.82 1.41,-4.23 4.23,-4.23l8.06 0c1.48,0 2.21,-0.74 2.21,-2.21l0 -19.13c0,-2.82 1.48,-4.23 4.43,-4.23l16.92 0c2.82,0 4.23,1.41 4.23,4.23l0 19.13c0,1.47 0.8,2.21 2.42,2.21l7.85 0c2.82,0 4.23,1.41 4.23,4.23l0 13.9c0,1.47 -0.3,2.51 -0.91,3.12 -0.6,0.6 -1.71,0.9 -3.32,0.9l-7.85 0c-1.61,0 -2.42,0.74 -2.42,2.22l0 44.51c0,4.16 0.94,7.14 2.82,8.96 1.88,1.81 4.97,2.72 9.26,2.72l8.06 0c2.82,0 4.23,1.41 4.23,4.23l0 13.89c0,1.48 -0.31,2.52 -0.91,3.12 -0.6,0.61 -1.71,0.91 -3.32,0.91l-12.29 0c-10.6,0 -18.83,-2.82 -24.67,-8.46 -5.84,-5.64 -8.76,-13.69 -8.76,-24.17l0 -45.71c0,-1.48 -0.73,-2.22 -2.21,-2.22z"/>
   <path fill="#373435" fill-rule="nonzero" d="M1552.74 1306.78l0 -94.25c0,-2.82 1.34,-4.23 4.03,-4.23l17.31 0c2.82,0 4.23,1.41 4.23,4.23l0 94.25c0,1.74 -0.3,2.89 -0.9,3.42 -0.61,0.54 -1.65,0.81 -3.12,0.81l-17.32 0c-2.82,0 -4.23,-1.41 -4.23,-4.23z"/>
   <path fill="#373435" fill-rule="nonzero" d="M1552.74 1190.98l0 -17.52c0,-2.68 1.34,-4.03 4.03,-4.03l17.52 0c2.68,0 4.02,1.28 4.02,3.83l0 17.72c0,2.69 -1.34,4.03 -4.02,4.03l-17.52 0c-2.69,0 -4.03,-1.34 -4.03,-4.03z"/>
   <path fill="#00F5A9" fill-rule="nonzero" d="M1428.35 1282.01l0 24.77c0,2.82 -1.28,4.23 -3.83,4.23l-17.92 0c-2.69,0 -4.03,-1.48 -4.03,-4.43l0 -24.37c0,-2.69 1.34,-4.03 4.03,-4.03l17.92 0c2.55,0 3.83,1.28 3.83,3.83z"/>
   <path fill="#00F5A9" fill-rule="nonzero" d="M1428.35 1212.13l0 24.77c0,2.82 -1.28,4.23 -3.83,4.23l-17.92 0c-2.69,0 -4.03,-1.55 -4.03,-4.63l0 -24.17c0,-2.69 1.34,-4.03 4.03,-4.03l17.92 0c2.55,0 3.83,1.28 3.83,3.83z"/>
   <path fill="#851DE8" fill-rule="nonzero" d="M1324.21 1311.01l-17.12 0c-2.81,0 -4.22,-1.41 -4.22,-4.23l0 -94.43c0,-2.82 1.41,-4.23 4.22,-4.23l17.12 0c2.82,0 4.23,1.41 4.23,4.23l0 94.43c0,2.82 -1.41,4.23 -4.23,4.23z"/>
   <path fill="#851DE8" fill-rule="nonzero" d="M1361.67 1208.3l19.53 0c1.62,0 2.69,0.47 3.23,1.41 0.53,0.94 0.33,2.15 -0.61,3.63l-26.78 44.1 0 0.81 27.99 47.72c0.81,1.35 0.87,2.52 0.2,3.53 -0.67,1 -1.88,1.51 -3.62,1.51l-17.32 0c-2.28,0 -3.93,-0.27 -4.94,-0.81 -1,-0.53 -2.04,-1.68 -3.12,-3.42l-25.57 -44.91c-1.21,-2.15 -1.21,-4.36 0,-6.64l24.16 -42.9c1.48,-2.69 3.76,-4.03 6.85,-4.03z"/>
   <path fill="#1371FF" fill-rule="nonzero" d="M1285.55 1293.09l0 13.89c0,1.48 -0.31,2.52 -0.91,3.12 -0.6,0.61 -1.71,0.91 -3.32,0.91l-30.01 0c-10.6,0 -18.79,-2.82 -24.57,-8.46 -5.77,-5.64 -8.66,-13.76 -8.66,-24.37l0 -37.05c0,-10.61 2.89,-18.73 8.66,-24.37 5.78,-5.64 13.97,-8.46 24.57,-8.46l30.01 0c2.82,0 4.23,1.41 4.23,4.23l0 13.9c0,1.47 -0.31,2.51 -0.91,3.12 -0.6,0.6 -1.71,0.9 -3.32,0.9l-25.98 0c-4.16,0 -7.15,0.91 -8.96,2.72 -1.81,1.82 -2.72,4.87 -2.72,9.17l0 34.63c0,4.3 0.91,7.35 2.72,9.17 1.81,1.81 4.8,2.72 8.96,2.72l25.98 0c2.82,0 4.23,1.41 4.23,4.23z"/>
   <path fill="#F57513" fill-rule="nonzero" d="M1031.8 1311.01l-17.12 0c-2.81,0 -4.22,-1.41 -4.22,-4.23l0 -133.12c0,-2.81 1.41,-4.23 4.22,-4.23l17.12 0c2.82,0 4.23,1.42 4.23,4.23l0 35.48c1.89,-1.18 13.3,-0.84 20.54,-0.84l6.45 0c21.08,0 33.22,10.52 33.22,32.4l0 65.65c0,2.82 -1.48,4.15 -4.43,4.23l-17.01 0.43c-2.81,0.07 -4.23,-1.41 -4.23,-4.23l0 -64.44c0,-8.1 -1.21,-11.89 -11.88,-11.89l-8.76 0c-10.33,0 -13.9,1.23 -13.9,15.31l0 61.02c0,2.82 -1.41,4.23 -4.23,4.23z"/>
  </g>
 </g>
</svg>
