<?xml version="1.0" encoding="UTF-8"?>
<!DOCTYPE svg PUBLIC "-//W3C//DTD SVG 1.1//EN" "http://www.w3.org/Graphics/SVG/1.1/DTD/svg11.dtd">
<!-- Creator: CorelDRAW 2017 -->
<svg xmlns="http://www.w3.org/2000/svg" xml:space="preserve" width="1063px" height="248px" version="1.1" shape-rendering="geometricPrecision" text-rendering="geometricPrecision" image-rendering="optimizeQuality" fill-rule="evenodd" clip-rule="evenodd"
viewBox="0 0 496.41 115.83"
 xmlns:xlink="http://www.w3.org/1999/xlink">
 <g id="Camada_x0020_1">
  <metadata id="CorelCorpID_0Corel-Layer"/>
  <rect fill="none" width="496.41" height="115.83"/>
  <g id="_1841900882656">
   <path fill="white" d="M98.88 55.86c2.18,0.05 4.31,1.05 5.72,2.74 0.05,0.06 0.06,0.07 0.11,0.14 1.95,2.5 4.42,4.88 4.58,8.13 0.01,0.19 0.01,0.47 0.01,0.47 0.05,0.03 0.09,0.07 0.14,0.1 3.27,2.62 5.52,6.42 5.39,10.7 -0.13,4.17 -2.32,8.22 -5.9,10.52 -1.78,1.15 -3.83,1.87 -5.92,2.23l0.2 1.73c0.16,2 -0.41,4.03 -1.65,5.57 -1.06,1.29 -2.53,2.22 -4.16,2.63 -2.29,0.52 -4.6,1.26 -6.78,0.72 -0.55,-0.14 -1.09,-0.35 -1.6,-0.62 -2.69,-0.25 -5.27,-1.3 -7.37,-2.96 0,0 -0.47,0.13 -0.92,0.2 -0.04,2.34 -1.19,4.61 -3.09,6.03 -1.2,0.88 -2.42,1.74 -3.64,2.61 -0.22,0.15 -0.24,0.16 -0.36,0.23 -0.67,0.42 -1.4,0.73 -2.17,0.93 0,0 -0.61,0.62 -1.29,1.08 -1.82,1.25 -4.16,1.49 -6.39,1.97l-0.28 0.06c-0.25,0.06 -0.32,0.07 -0.45,0.09 -1.57,0.22 -3.21,-0.07 -4.63,-0.81 0,0 -0.97,0.36 -1.74,0.57 -4.67,1.29 -10,0.73 -13.99,-2.31 -2.71,-2.07 -4.52,-5.26 -4.99,-8.64 0,0 -0.72,-0.38 -1.34,-0.69l-0.99 -0.49c-0.28,-0.16 -0.57,-0.33 -0.83,-0.52 -0.21,0.18 -0.24,0.19 -0.35,0.27 -1.44,1.08 -3.24,1.53 -5.07,1.54 -1.33,0 -2.65,0 -3.97,0 -0.25,0 -0.28,-0.01 -0.4,-0.02 -0.78,-0.04 -1.55,-0.21 -2.28,-0.5 0,0 -0.53,0.75 -1.12,1.29 -1.51,1.39 -3.57,2.14 -5.65,2.02 -1.61,-0.12 -3.24,-0.26 -4.86,-0.39l-0.35 -0.02c-0.34,-0.03 -0.46,-0.05 -0.67,-0.09 -3.61,-0.65 -6.54,-4.14 -6.3,-7.96 0.04,-0.75 0.15,-1.51 0.23,-2.26 1.02,-9.74 2.15,-19.45 3.22,-29.13 0,0 0.2,-1.34 0.68,-2.36 1.38,-2.88 4.63,-4.71 7.87,-4.33 2.12,0.3 4.21,0.59 6.34,0.92l0.22 -0.42 -0.38 -0.4 -0.43 -0.66c-0.43,-1 -0.6,-2.1 -0.72,-3.17 -0.15,-1.3 -0.25,-2.61 -0.28,-3.92l-0.05 -0.06 -0.76 -0.42c-0.22,-0.19 -0.46,-0.35 -0.66,-0.56 -0.81,-0.83 -1.28,-1.96 -1.3,-3.12 -0.01,-0.38 0.05,-0.78 0.11,-1.13 1.13,-6.17 2.66,-12.33 5.22,-17.98 0.88,-1.95 1.89,-3.87 3.3,-5.46 2.56,-2.89 5.96,-4.93 9.38,-6.74 6.17,-3.25 12.81,-5.72 19.58,-7.33 4.72,-1.13 9.73,-1.96 14.33,-0.36 1.9,0.67 3.66,1.67 5.25,2.91l0.63 -0.03c0.71,0.09 0.91,0.07 1.58,0.35 0.25,0.11 0.48,0.26 0.72,0.39 0.04,0.02 0.04,0.02 0.07,0.04 1.69,1.14 3.1,2.7 4.07,4.49 0.62,0.02 1.24,0.12 1.85,0.26l0.1 0.02 0.81 0.28c0.24,0.14 0.5,0.26 0.74,0.42 0.46,0.33 0.86,0.74 1.18,1.22 0.15,0.24 0.26,0.5 0.4,0.75 0,0 0.56,0.36 0.99,0.67 2.86,2.08 4.58,5.48 5.19,8.99 0.93,5.31 0.32,10.9 -0.77,16.07 0,0 -0.11,0.51 -0.25,0.84 -0.27,0.65 -0.38,0.73 -0.78,1.25 -0.01,0.08 -0.03,0.17 -0.04,0.25 -0.18,1.32 -0.45,2.64 -0.82,3.91 0,0 0.31,0.97 0.54,1.91 0.48,1.9 0.65,3.87 0.52,5.82 -0.03,0.44 -0.07,0.88 -0.13,1.31 0,0 0.67,0.82 1.01,1.46 0,0 1.05,-1.11 1.88,-1.72 1.32,-0.96 2.92,-1.52 4.56,-1.52 0.07,0 0.07,0 0.15,0zm-8.69 45.13c0,0 0.18,0 0.03,0 -0.01,0 -0.05,-0.01 -0.03,0zm-54.55 -3.38l0.03 0.01c0,0 -0.1,-0.02 -0.03,-0.01zm2.08 -1.8l-0.01 0.06 0.08 -0.36c-0.03,0.1 -0.05,0.2 -0.07,0.3zm0.22 -0.85c-0.01,0.05 -0.03,0.1 -0.06,0.18 0.02,-0.04 0.04,-0.11 0.07,-0.17l-0.01 -0.01z"/>
   <path fill="#1F0933" d="M63.84 3.52c4.01,0.01 7.97,1.37 11.2,3.78l0.21 -0.01c0.98,0.04 1.93,0.33 2.81,0.82 0.1,0.06 0.16,0.09 0.16,0.09 1.7,1.12 3.14,2.65 4.2,4.4 0,0 1.38,0.23 1.55,0.27 0.03,0.01 0.06,0.02 0.1,0.03l0.8 0.28c1.2,0.54 2.22,1.46 2.81,2.66 0,0 0.61,0.4 1.09,0.77 3.03,2.36 4.81,6.14 5.4,9.87 0.83,5.15 0.31,10.43 -0.73,15.61 -0.2,0.98 -0.49,1.95 -1.16,2.79 0,0 -0.19,1.28 -0.41,2.27 -0.1,0.44 -0.21,0.88 -0.33,1.32l-0.03 0.12c0.86,2.83 1.26,5.75 0.94,8.69l0.02 0.08c1.84,-1.71 4.26,-2.79 6.85,-2.6 2.62,0.2 4.99,1.7 6.63,3.75 2.04,2.52 4.26,5.07 4.45,8.26 0,0 0.48,0.43 0.87,0.8 2.57,2.44 4.37,5.73 4.64,9.25 0.4,5.23 -2.47,10.61 -7.11,13.22 -1.42,0.81 -2.97,1.37 -4.56,1.74l0.08 0.74c0.19,2.43 -0.57,4.93 -2.22,6.74 -1.25,1.38 -2.95,2.29 -4.77,2.72 -2.67,0.63 -5.39,1.39 -8.16,0.25 -0.19,-0.09 -0.47,-0.22 -0.47,-0.22 -2.49,-0.28 -4.9,-1.18 -6.97,-2.6 -0.35,2.2 -1.6,4.3 -3.43,5.68 -1.27,0.92 -2.54,1.86 -3.83,2.74 -0.73,0.49 -1.54,0.86 -2.39,1.12 0,0 -0.66,0.6 -1.23,0.99 -1.93,1.34 -4.42,1.66 -6.72,2.14l-0.39 0.08c-1.8,0.37 -3.7,0.14 -5.36,-0.59 0,0 -0.75,0.25 -1.39,0.42 -5.8,1.61 -12.55,0.45 -16.73,-4.1 -1.82,-1.99 -3.06,-4.48 -3.56,-7.17l0 -0.02c-0.36,-0.19 -0.83,-0.42 -0.83,-0.42l-1.01 -0.51c-0.16,-0.09 -0.16,-0.2 -0.47,0 -2.47,1.56 -5.62,1.43 -8.74,1.42l-0.5 0c-0.77,-0.01 -1.54,-0.11 -2.28,-0.32 0,0 -0.38,0.44 -0.72,0.77 -1.73,1.61 -4.13,2.47 -6.51,2.34 -1.63,-0.12 -3.25,-0.26 -4.88,-0.39l-0.36 -0.02c-4.5,-0.43 -8.31,-4.68 -7.98,-9.38 0.14,-1.93 0.41,-3.87 0.62,-5.81 0.92,-8.49 1.89,-17 2.83,-25.51 0.25,-1.57 0.84,-3.13 1.86,-4.39 1.89,-2.31 4.96,-3.6 7.94,-3.25 1.45,0.2 2.92,0.4 4.37,0.62 0,0 0.11,0.11 0,-0.19 -0.69,-2.02 -0.76,-4.21 -0.85,-6.32l-0.26 -0.17 -0.17 -0.12c-0.03,-0.02 -0.05,-0.04 -0.07,-0.05 -0.46,-0.37 -0.9,-0.78 -1.24,-1.25 -0.92,-1.3 -1.21,-2.94 -0.92,-4.56 1.18,-6.47 2.77,-12.9 5.59,-18.9 1.03,-2.18 2.31,-4.26 4.04,-5.99 2.85,-2.84 6.45,-4.88 10.02,-6.68 6.58,-3.34 13.56,-5.81 20.81,-7.31 2.2,-0.45 4.44,-0.78 6.67,-0.79 0.06,0 0.12,0 0.18,0zm-29.34 93.64c0,0 3.11,1.5 3.6,1.76 0.71,0.36 0.71,0.98 0.83,1.61 0.06,0.27 0.12,0.53 0.19,0.79 1.03,3.76 3.89,6.93 7.81,8.31 3.59,1.26 7.62,0.95 11.11,-0.32l0.3 -0.07c0.58,0.04 1.11,0.39 1.7,0.57 1.74,0.55 3.6,0.1 5.43,-0.27 1.88,-0.37 3.71,-0.88 5.21,-2.36 0,0 0.44,-0.27 0.76,-0.36 1.54,-0.47 2.83,-1.58 4.19,-2.55 0.93,-0.67 1.89,-1.3 2.58,-2.19 0.87,-1.12 1.38,-2.52 1.41,-3.94l0.07 -0.38c0.17,-0.29 0.19,-0.4 0.5,-0.57 0.35,-0.2 0.76,-0.2 1.15,-0.3 0,0 0.37,-0.09 0.69,0.03 0.39,0.14 0.66,0.45 1,0.68 1.77,1.21 3.84,1.97 5.98,2.2l0.12 0.01 0.4 0.12c0.08,0.05 0.16,0.06 0.16,0.06l0.24 -0.09 0.36 -0.03c0.33,0.07 0.44,0.04 0.71,0.27 0.17,0.14 0.28,0.4 0.28,0.4 1.93,0.32 3.91,-0.35 5.86,-0.8 2.1,-0.53 3.9,-2.14 4.6,-4.17 0.31,-0.9 0.43,-1.87 0.37,-2.82l-0.2 -1.73 0.03 -0.41c0.12,-0.26 0.25,-0.52 0.49,-0.66 0.26,-0.16 0.56,-0.18 0.85,-0.24 2.7,-0.55 5.3,-1.76 7.18,-3.76 3.21,-3.42 4.22,-8.75 2.08,-13.03 -0.91,-1.82 -2.27,-3.39 -3.86,-4.65l-0.29 -0.3c-0.32,-0.64 -0.19,-1.43 -0.39,-2.21 -0.65,-2.51 -2.64,-4.38 -4.16,-6.33 -1.43,-1.78 -3.81,-2.73 -6.05,-2.39 -1.83,0.29 -3.4,1.46 -4.68,2.82 0,0 -0.19,0.18 -0.35,0.25 -0.39,0.19 -0.87,0.11 -1.19,-0.15 -0.31,-0.27 -0.46,-0.67 -0.7,-1.01 -0.17,-0.25 -0.45,-0.6 -0.45,-0.6 -0.43,-0.7 -0.11,-1.74 -0.09,-2.78 0.07,-2.23 -0.36,-4.44 -1.03,-6.59 0,0 -0.07,-0.51 0.04,-0.92 0.34,-1.21 0.59,-2.45 0.75,-3.7 0,0 0.07,-0.34 0.24,-0.61 0.01,-0.01 0.49,-0.59 0.65,-1.05 0.28,-0.76 0.38,-1.58 0.53,-2.38 0.86,-4.73 1.28,-9.62 0.32,-14.31 -0.66,-3.19 -2.29,-6.21 -5.01,-8.06 -0.24,-0.17 -0.59,-0.39 -0.59,-0.39 -0.55,-0.46 -0.76,-1.36 -1.56,-1.95 -0.17,-0.12 -0.36,-0.22 -0.55,-0.32 -0.27,-0.15 -0.07,-0.04 -0.07,-0.04l-0.66 -0.23c-0.05,-0.01 -0.05,-0.01 -0.09,-0.02 -0.53,-0.12 -1.06,-0.19 -1.6,-0.22l-0.37 -0.08c-0.46,-0.28 -0.72,-0.8 -1,-1.25 -0.85,-1.32 -1.97,-2.46 -3.27,-3.34 0,0 -0.46,-0.28 -0.77,-0.4 -0.34,-0.12 -0.7,-0.15 -1.06,-0.2l-0.49 0.03c-0.72,-0.09 -1.34,-0.7 -2.05,-1.16 -1.79,-1.17 -3.79,-2.03 -5.91,-2.39 -3.82,-0.66 -7.74,0.09 -11.42,0.97 -7.45,1.78 -14.63,4.51 -21.36,8.36 -3.39,1.92 -6.66,4.28 -8.65,7.62 -1.54,2.57 -2.62,5.4 -3.57,8.25 -1.33,4 -2.28,8.13 -3.03,12.25 -0.1,0.53 -0.17,1.08 -0.07,1.61 0.15,0.86 0.67,1.62 1.36,2.18 0.24,0.19 0.07,0.05 0.07,0.05 0.48,0.27 0.5,0.24 0.93,0.58 0,0 0.19,0.2 0.27,0.4 0.12,0.28 0.09,0.57 0.1,0.87 0.08,2.08 0.1,4.23 0.84,6.08l0.02 0.03c0.28,0.44 0.28,0.45 0.64,0.83l0.19 0.29c0.08,0.28 0.14,0.36 0.09,0.67 -0.02,0.11 -0.07,0.22 -0.11,0.32 -0.14,0.31 -0.48,0.91 -1.03,1 -0.45,0.07 -0.77,-0.07 -1.14,-0.12 -1.84,-0.28 -3.68,-0.54 -5.52,-0.79 -3.05,-0.36 -6.25,1.6 -7.1,4.75 -0.08,0.31 -0.15,0.63 -0.2,0.95l-0.01 0.03c-1.07,9.71 -2.19,19.55 -3.23,29.24 -0.03,0.28 -0.07,0.57 -0.1,0.85 -0.12,1.06 -0.19,2.14 0.09,3.17 0.7,2.59 3.03,4.66 5.75,4.92 1.64,0.13 3.27,0.26 4.9,0.38l0.3 0.03c2.24,0.12 4.43,-0.99 5.78,-2.84 0,0 0.14,-0.18 0.27,-0.26 0.59,-0.43 1.41,0.06 2.28,0.21 1.62,0.28 3.48,0.13 5.2,0.09 1.49,-0.03 3,-0.41 4.22,-1.31 0.17,-0.13 0.29,-0.24 0.29,-0.24l0.31 -0.18 0.36 -0.07zm55.78 3.11c0.28,0.1 0.57,0.18 0.87,0.24l0 -0.08 -0.3 -0.33c-0.07,-0.06 -0.07,-0.06 -0.15,-0.1l-0.42 -0.1c0,0.12 0,0.24 0,0.37z"/>
   <path fill="#1371FF" d="M59.91 52.48c1.76,-6.25 8.44,-10.96 14.97,-9.56 8.07,1.72 10.92,6.61 11.02,11.5 0.09,4.89 -2.61,10.49 -6.81,12.27 -4.21,1.79 -9.05,0.69 -9.05,0.69 0,0 -9.46,-1.98 -10.49,-10.29 -0.05,-0.36 -0.07,-0.72 -0.08,-1.08l-4.43 -0.82 0.04 -2.71 4.83 0zm-20.79 13.3c0,0 -9.47,-1.98 -10.5,-10.29 -1.03,-8.3 7.26,-15.9 15.33,-14.18 8.07,1.73 10.93,6.62 11.02,11.51 0.09,4.88 -2.61,10.48 -6.81,12.27 -4.2,1.79 -9.04,0.69 -9.04,0.69zm33.6 -18.64c5.01,0 9.07,4.06 9.07,9.08 0,5.01 -4.06,9.07 -9.07,9.07 -5.02,0 -9.08,-4.06 -9.08,-9.07 0,-5.02 4.06,-9.08 9.08,-9.08zm-30.93 -1.61c5.01,0 9.08,4.07 9.08,9.08 0,5.01 -4.07,9.08 -9.08,9.08 -5.01,0 -9.08,-4.07 -9.08,-9.08 0,-5.01 4.07,-9.08 9.08,-9.08z"/>
   <path fill="white" d="M43.11 68.29c-0.32,-0.61 -0.42,-0.96 -0.42,-0.96 0,0 4.06,0.23 8.18,-2.91 4.11,-3.13 4.1,-8.74 4.1,-8.74l4.46 0c0,0 1.23,6.47 4.21,8.58 2.97,2.11 7.18,4.4 7.18,4.4 0,0 -0.32,0.32 -0.91,0.81l0 0c0,0 -1.75,2.04 -4.34,3.66 -2.58,1.62 -9.27,3.61 -9.27,3.61 0,0 -0.11,-0.03 -0.32,-0.09 -2.56,0.38 -4.26,-0.47 -7.6,-2.85 -3.19,-2.28 -4.64,-4.35 -5.27,-5.51l0 0 0 0zm34.77 -1.73c0,0 6.98,1.12 8.77,-1.76 1.78,-2.89 0.26,-4.26 -0.75,-4.51 -1.01,-0.24 -0.95,0.6 -3.58,2.68 -2.62,2.08 -4.44,3.59 -4.44,3.59zm-50.9 -5.48c-0.59,-2.01 0.56,-2.99 1.48,-2.71 0.07,0.02 0.13,0.04 0.19,0.07 0.55,-0.11 1.02,-0.05 1.02,-0.05 0,0 0.38,1.71 1.74,3.8 0.53,0.8 0.97,1.51 1.33,2.09 0.22,0.03 0.41,0.06 0.57,0.09 0.3,0.06 0.12,0.19 -0.34,0.28 0.43,0.71 0.68,1.13 0.68,1.13 -2.99,0.08 -6.32,-2.14 -6.67,-4.7zm45.7 -14.51c5.03,0 9.11,4.08 9.11,9.11 0,5.03 -4.08,9.12 -9.11,9.12 -5.03,0 -9.11,-4.09 -9.11,-9.12 0,-5.03 4.08,-9.11 9.11,-9.11zm-30.93 -1.37c5.03,0 9.12,4.08 9.12,9.11 0,5.03 -4.09,9.12 -9.12,9.12 -5.03,0 -9.11,-4.09 -9.11,-9.12 0,-5.03 4.08,-9.11 9.11,-9.11zm14.17 7.28c0,0 -3.13,-4.4 0.84,-5.91 3.96,-1.51 6.88,-2.25 5.13,0.57 -1.75,2.82 -2.79,6.45 -2.79,6.45l-3.18 -1.11zm-27.23 -0.29l-2.41 -0.16 0.44 -10.96 -3.01 1.6c0,0 2.1,-15.67 9.82,-21.12 7.73,-5.44 23.56,-9.77 27.47,-10.71 3.9,-0.94 9.38,0.75 11.87,4.02 2.49,3.26 5.08,6.36 5.08,6.36 0,0 4.53,-0.93 6.83,1.23 2.29,2.16 3.47,5.26 3.35,9.37 -0.13,4.12 -1.12,7.6 -1.12,7.6l-1.11 -1.12 -2.01 9.83c0,0 -2.45,-3.15 -3.04,-5.03 -0.59,-1.88 -14.44,-0.22 -15.28,0.56 -0.83,0.78 -8.54,2.26 -9.91,2.91 -1.38,0.64 -2.83,-0.7 -6.33,-3.27 -3.49,-2.57 -8.44,-2.56 -13.73,-0.63 -5.29,1.93 -6.84,8.51 -6.91,9.52z"/>
   <path fill="#F2AE9C" d="M43.17 67.02c0,0 5.48,6.2 12.75,8.68 0,0 6.83,-0.79 13.9,-6.52 7.06,-5.73 -1.83,-2.51 -3.9,-3.4 -2.07,-0.88 -5.02,-3.02 -5.81,-5.53 -0.8,-2.5 -1.01,-4.2 -1.01,-4.2l-1.23 -0.37 -1.11 0.7c-1.37,1.16 -2.48,2.34 0,3.87l2.79 0.86c0,0 -3.79,-0.45 -4.13,1.53 -0.35,1.98 1.32,2.95 3.35,2.9 2.02,-0.05 -1.42,2 -3.35,0.67 -1.94,-1.33 -2.81,-3.53 -2.81,-3.53l-9.44 4.34zm14.48 3.43c0,0 -1.59,-0.06 -2.35,-0.45 -0.76,-0.38 0.6,-0.1 2.02,-0.11 1.41,0 1.83,0.53 0.33,0.56zm26.9 -9.34c0,0 2.29,0.12 1.68,2.05 -0.62,1.94 -2.09,3.44 -4.44,3.38 -2.34,-0.05 -0.48,-1.63 0.89,-3.34 1.36,-1.72 1.87,-2.09 1.87,-2.09zm-54.76 -2.31c0,0 -1.75,0.03 -1.84,1.72 -0.08,1.68 1.59,3.36 3.13,3.85 1.54,0.49 2.97,1.02 2.23,-0.39 -0.74,-1.42 -3.52,-5.18 -3.52,-5.18zm27.53 -6.12c0,0 -2.3,-0.41 -2.13,-2.99 0.17,-2.59 5.57,-5.1 5.81,-2.57 0.23,2.52 -1.84,5.72 -3.68,5.56z"/>
   <path fill="#1F0933" d="M50.14 44.59c-2.02,-1.49 -4.91,-3.15 -8.12,-3.52 -6.09,-0.71 -10.81,4.29 -13.08,9.96 0,0 -1.46,-21.29 15.76,-30.7 0,0 -6.73,1.99 -11.99,9.26 -5.26,7.28 -6.32,10.5 -6.32,10.5 0,0 2.61,-11.33 8.48,-16.08 5.88,-4.75 17.34,-8.11 23.35,-9.49 6,-1.38 14.91,-0.69 17.74,11.5 0,0 4.48,-2.7 7.14,-1.34 2.67,1.36 2.8,11.26 2.8,11.26l-1.33 -0.58c0,0 -1.14,-2.29 -2.14,-3.42 0,0 2.67,5.46 -0.64,13.59 0,0 -4.19,-2.68 -5.61,-2.86 -0.52,-0.07 -0.98,-0.53 -1.52,-1.04 2.22,0.27 3.36,1.33 2.19,0.49 -1.75,-1.26 -1.83,-2.59 -1.83,-2.59l-6.26 -0.55c-11.33,5.92 -18.29,5.06 -18.29,5.06l-0.33 0.55 0 0zm12.9 -0.24c-0.44,0.17 -0.94,0.35 -1.48,0.54 -5.95,2.02 -8.49,2.25 -8.49,2.25 0,0 -0.64,-0.69 -1.73,-1.61 1.1,0.59 3.01,1.09 5.98,0.25 2.1,-0.59 3.96,-1.02 5.72,-1.43zm15.11 -10.17c0.19,0.16 0.32,0.34 0.37,0.55 0.29,1.13 0.1,3.9 0.1,3.9 0,0 0.46,-2.85 0.8,-3.9 0.33,-1.05 -0.45,-1.45 -0.45,-1.45 -3,-1.36 -8.25,-2.24 -9.6,-2.36 -1.35,-0.11 -1.56,1.13 -1.56,1.13l-0.02 6.48 1.25 -0.12c0,0 0.06,-0.2 0.13,-0.64l0.58 -0.36 1.07 -2.68c0,0 0.57,1.66 2.9,1.98 2.34,0.32 3.13,-0.77 3.13,-0.77l0 2.18c0,0 0.78,-0.32 0.89,-2.18 0.07,-1.1 0.54,-1.51 0.41,-1.76zm-31.99 2.21c-0.07,0.6 -0.12,1.02 -0.12,1.02l1.51 0.07c0,0 0.36,-3.57 0.39,-4.73 0.02,-1.17 0.17,-2.39 -1.46,-2.49 -2.62,-0.16 -8.1,0.58 -9.37,1.15 -1.27,0.57 -1.01,1.34 -1.01,1.34l0.73 5.37c0,0 0.6,-0.41 0.96,-1.31 0.28,0.94 0.55,0.82 0.55,0.82l0.23 -0.92 0.21 -2.43c0,0 0.9,0.78 3.24,0.78 2.35,0 3.35,-0.67 3.35,-0.67l0.33 2.1c0,0 0.24,0.13 0.46,-0.1zm23.58 -3.31c-0.12,0.45 -0.25,1.28 -0.37,2.12l0 0c0.02,-1.01 0.07,-1.71 0.37,-2.12zm0.98 -0.48c0.47,-0.05 1.1,0 1.95,0.15 2.25,0.37 4.23,0.66 5.21,1.24 -0.21,-0.08 -0.57,-0.16 -1.14,-0.28 -1.74,-0.37 -4.54,-1.17 -6.02,-1.11zm-32.12 -0.08c-0.18,0.05 -0.34,0.07 -0.49,0.09 0.13,-0.04 0.29,-0.06 0.49,-0.09zm2.54 -0.22c0.1,-0.01 0.21,-0.02 0.32,-0.03 4.93,-0.42 4.74,-1.13 4.91,-0.01l0 0c-0.46,-0.01 -3.11,-0.04 -5.23,0.04z"/>
   <path fill="#1F0933" d="M28.1 57.61c-0.37,-1.35 -0.54,-2.78 -0.48,-4.25l0 -0.08c-1.47,0.21 -2.32,0.32 -2.32,0.32 -0.6,-3.9 -0.58,-7.35 -0.15,-10.39 -1.13,0.47 -2.45,1.02 -3.08,1.24 0,0 2.38,-13.81 6.67,-20.42 4.29,-6.6 25.27,-14.6 34.94,-14.86 6.45,-0.17 10.75,4.8 12.9,8.13 -0.19,-1.6 -0.6,-3.34 -1.46,-4.34 0,0 3.77,2.42 3.31,6.39 0,0 1.5,-1.63 4.19,-0.96 0,0 -1.93,0.18 -1.85,1.31l0 0c1.88,-0.08 4.44,0.48 6.36,3.44 3.44,5.31 0.64,18.31 0.64,18.31l-1.16 -1.26c0.16,0.8 0.23,1.65 0.18,2.49 -0.18,2.7 -0.86,4.92 -1.34,6.18 1,2.04 1.52,4.34 1.43,6.76 -0.06,1.45 -0.33,2.83 -0.78,4.13 1.35,0.33 3.3,1.37 2,4.65 -1.63,4.1 -6.14,4.55 -9.88,3.76 -1.6,0.68 -3.34,1.07 -5.17,1.11 -10.44,8.4 -16.9,8.88 -16.9,8.88 -6.7,-1.58 -13.4,-7.62 -15.96,-10.15 -1.72,-0.19 -3.34,-0.69 -4.81,-1.44 -3.72,0.43 -8,-0.43 -9.28,-4.53 -0.96,-3.09 0.67,-4.1 2,-4.42zm36.93 9.42c-3.49,-2.25 -5.92,-5.97 -6.43,-10.24l-1.02 -0.04 -0.11 2.66c1.62,0.57 2.46,1.89 2.46,1.89 0,0 -1.19,-0.22 -2.85,-0.43 -1.65,-0.21 -3.33,0.88 -2.54,3.25 0.79,2.37 6.29,0.91 6.29,0.91 -2.81,2.63 -7.18,1.96 -8.13,-0.64 -0.13,-0.38 -0.21,-0.77 -0.22,-1.15 -1.03,1.19 -2.26,2.19 -3.63,2.98 -0.09,0.05 -2.73,1.53 -4.9,1.63 0,0 2.97,3.64 6.52,5.68l0 0c2.17,1.35 4.47,2.37 5.34,2.73 0.26,0.08 0.4,0.1 0.4,0.1 2.24,-0.42 4.37,-1.28 6.29,-2.28l0 0c4.65,-2.29 6.87,-5.19 6.87,-5.19 -1.82,-0.38 -4.34,-1.86 -4.34,-1.86zm-8.37 4.88c-0.1,0 -0.2,0 -0.3,-0.01 -2.78,-0.1 -3.29,-2.47 -3.29,-2.47 0,0 0.78,1.37 3.33,1.47 2.54,0.1 3.78,-0.53 3.78,-0.53 0,0 -0.79,1.25 -2.85,1.5 0,0.02 0,0.04 0,0.07 -0.02,0.73 -0.69,1.12 -0.67,0.31 0.01,-0.14 0.01,-0.25 0,-0.34zm-6.52 -4.83c0,0 3.44,1.03 7,1.17 3.55,0.13 7.08,-1.25 7.08,-1.25 0,0 -2.45,2.76 -7.14,2.58 -4.68,-0.18 -6.89,-1.99 -6.94,-2.5zm35.41 -5.97c-0.27,0.56 -0.56,1.1 -0.89,1.61 0.21,-0.04 0.41,-0.04 0.61,0.01 1.34,0.36 0.09,0.4 -1.05,1.14 -0.28,0.18 -0.56,0.38 -0.83,0.55 -0.59,0.67 -1.24,1.28 -1.94,1.84 1.33,0.08 3.79,-0.08 4.77,-2.26 0.94,-2.08 0.14,-2.74 -0.67,-2.89zm-56.99 -2.1c-0.69,0.21 -1.22,0.92 -0.56,2.76 0.75,2.06 2.85,2.53 4.22,2.6 -0.83,-0.76 -1.58,-1.63 -2.21,-2.57l0 0c-1.08,-0.83 -2.33,-0.97 -0.96,-1.22 0.07,-0.02 0.14,-0.02 0.21,-0.02 -0.26,-0.5 -0.5,-1.02 -0.7,-1.55zm44.44 -12.04c4.8,0.19 8.54,4.23 8.35,9.02 -0.18,4.79 -4.22,8.53 -9.01,8.35 -4.79,-0.18 -8.54,-4.22 -8.35,-9.02 0.18,-4.79 4.22,-8.53 9.01,-8.35zm10.06 14.69c1.02,-1.7 1.64,-3.67 1.73,-5.78 0.25,-6.68 -4.97,-12.31 -11.65,-12.57 -6.68,-0.25 -12.31,4.96 -12.56,11.64 -0.14,3.59 1.3,6.88 3.7,9.19 -1.4,-1.51 -2.49,-3.46 -3.11,-5.77 0,0 0.85,1.01 1.59,0.86 0,0 0.95,1.81 2.81,3.48 -1.99,-1.95 -3.18,-4.69 -3.07,-7.68 0.22,-5.62 4.95,-10 10.57,-9.79 5.62,0.22 10,4.95 9.79,10.57 -0.14,3.59 -2.13,6.68 -5.02,8.39 4.12,-2.02 5.21,-5.84 5.29,-8.82 0,0 0.7,0.16 1,-1.17 0,0 0.59,3.83 -1.07,7.45zm-33.49 1.85c2.53,-2.12 4.19,-5.26 4.32,-8.81 0.26,-6.68 -4.96,-12.31 -11.64,-12.57 -6.68,-0.26 -12.31,4.96 -12.57,11.64 -0.1,2.59 0.63,5.02 1.94,7.05 -1.9,-3.74 -1.27,-7.87 -1.27,-7.87 0.3,1.33 1,1.17 1,1.17 0.07,2.78 1.03,6.28 4.49,8.38 -2.67,-1.93 -4.36,-5.12 -4.23,-8.66 0.22,-5.61 4.95,-10 10.57,-9.78 5.61,0.21 10,4.95 9.78,10.56 -0.09,2.41 -1.01,4.59 -2.47,6.28 1.48,-1.5 2.24,-2.93 2.24,-2.93 0.74,0.15 1.58,-0.86 1.58,-0.86 -0.7,2.64 -2.02,4.8 -3.74,6.4zm-7.46 -17.72c4.79,0.18 8.54,4.22 8.35,9.02 -0.18,4.79 -4.22,8.53 -9.01,8.35 -4.8,-0.19 -8.54,-4.23 -8.35,-9.02 0.18,-4.79 4.22,-8.53 9.01,-8.35zm14.71 11.41c-0.09,-0.27 -0.53,-0.24 -0.69,0.05 -0.17,0.33 -0.65,1.87 -0.09,1.84 0.25,-0.02 0.45,-0.35 0.59,-0.71 0.07,-0.34 0.13,-0.73 0.19,-1.18zm1.74 -3.43l-2.56 -0.1c0,0.25 0,0.51 -0.01,0.77 -0.01,0.22 -0.03,0.44 -0.04,0.66l2.55 0.09c0,-0.21 0,-0.43 0.01,-0.65 0.01,-0.26 0.02,-0.52 0.05,-0.77zm0.81 -3.59c0.36,-1.37 1.64,-3.26 1.37,-3.56 -0.29,-0.31 -3.61,0.89 -4.5,1.4 -0.9,0.5 -0.68,3.75 0.12,3.75 0.46,0 0.68,-0.31 0.79,-0.58l0.09 -2.27c0,0 0.46,0.26 0.5,2.69 0.32,0.24 0.98,0.05 1.35,-0.59 0.08,-0.28 0.18,-0.56 0.28,-0.84zm24.46 -3.9c0.37,-1.12 0.81,-2.96 0.84,-5.5 0.05,-4.51 -0.65,-6.54 -0.65,-6.54 0,0 0.56,0.78 1.18,2l1.49 1.18c0,0 0.55,-3.8 0.12,-8.93 -0.42,-5.13 -5.13,-8.88 -10.08,-5.19 0,0 -2.27,-7.88 -8.42,-10.49 -6.15,-2.6 -14.28,0 -26.22,5.03 -11.94,5.03 -13.4,11.1 -15.41,17.29 -1.01,3.1 -1.92,6.33 -1.92,6.33l0.77 -0.38c2.81,-12.89 13.21,-17.56 13.21,-17.56 -13.23,11.25 -11.03,27.51 -11.03,27.51l0.19 -0.04c1.39,-6.66 7.42,-11.55 14.44,-11.28 4.59,0.18 8.59,2.52 11.05,6 1.6,-0.37 3.06,-0.73 4.33,-1.06 3.86,-1 7.6,-3.06 10.68,-5.14 -0.28,-0.1 -0.5,-0.33 -0.58,-0.6 -0.03,-0.11 -0.04,-0.16 -0.03,-0.35l0.58 -5.86c0.01,-0.05 0.01,-0.06 0.02,-0.11 0.04,-0.18 0.14,-0.36 0.29,-0.48 0.22,-0.2 0.6,-0.23 0.6,-0.23 0.34,-0.01 0.67,0 1.01,0.01 0.05,0 0.11,0 0.16,0 2.76,0.13 5.5,0.67 8.05,1.73 0.08,0.03 0.12,0.03 0.27,0.12 0.46,0.27 0.44,0.92 0.44,0.92l-0.75 5.06c0,0 0,0.03 -0.01,0.06l-0.03 0.12c-0.04,0.1 0.01,0.02 -0.11,0.2l-0.07 0.1c-0.07,0.07 0,0.02 -0.17,0.14l-0.11 0.06c-0.1,0.05 -0.01,0.03 -0.21,0.08l-0.13 0.01c-0.1,0.01 -0.02,0.02 -0.22,-0.01 0,0 -0.13,-0.02 -0.22,-0.04 -0.98,-0.19 -1.98,-0.35 -2.98,-0.49 0.2,0.35 0.45,0.72 0.73,1.11 3.61,0.57 6.74,2.5 8.9,5.22zm-38.25 -15.34c0.34,0.02 0.67,0.04 1,0.07 0,0 0.38,0.06 0.59,0.27 0.13,0.14 0.22,0.32 0.25,0.51 0.01,0.05 0.01,0.06 0.01,0.11l0.13 5.88c0,0.2 -0.02,0.25 -0.06,0.35 -0.12,0.32 -0.44,0.57 -0.8,0.59 -0.18,0.01 -0.22,-0.01 -0.31,-0.02 -2.78,-0.19 -5.58,-0.07 -8.34,0.24 -0.09,0.01 -0.21,0.03 -0.21,0.03 -0.21,0.01 -0.12,0.01 -0.23,-0.01l-0.12 -0.02c-0.2,-0.07 -0.12,-0.04 -0.21,-0.09l-0.1 -0.07c-0.16,-0.14 -0.1,-0.08 -0.16,-0.16l-0.07 -0.11c-0.1,-0.18 -0.06,-0.1 -0.09,-0.2l-0.02 -0.13c0,-0.02 -0.01,-0.06 -0.01,-0.06l-0.36 -5.09c0,0 0.03,-0.65 0.51,-0.89 0.16,-0.08 0.2,-0.07 0.28,-0.1 2.63,-0.86 5.4,-1.19 8.16,-1.1 0.05,0 0.11,0 0.16,0zm24.74 2.78c2.38,0.09 4.75,0.54 6.98,1.38l-0.46 3.08c-2.33,-0.41 -4.69,-0.68 -7.06,-0.76l-0.03 -0.01 0.36 -3.7c0.07,0 0.14,0 0.21,0.01zm-24.91 -0.96c-2.38,-0.08 -4.77,0.18 -7.07,0.85l0.23 3.1c2.35,-0.22 4.73,-0.32 7.09,-0.22l0.04 0 -0.08 -3.72c-0.07,0 -0.14,-0.01 -0.21,-0.01z"/>
   <path fill="#1F0933" d="M73.07 50.11c2.93,0.12 5.21,2.58 5.1,5.5 -0.11,2.93 -2.58,5.21 -5.5,5.1 -2.92,-0.11 -5.21,-2.58 -5.09,-5.5 0.11,-2.93 2.57,-5.21 5.49,-5.1zm-30.89 -1.18c2.93,0.11 5.21,2.58 5.1,5.5 -0.12,2.92 -2.58,5.21 -5.5,5.09 -2.92,-0.11 -5.21,-2.57 -5.1,-5.5 0.12,-2.92 2.58,-5.2 5.5,-5.09zm32.88 7.86c0.62,0.02 1.1,0.54 1.07,1.16 -0.02,0.61 -0.54,1.1 -1.16,1.07 -0.61,-0.02 -1.09,-0.54 -1.07,-1.16 0.02,-0.61 0.54,-1.1 1.16,-1.07zm-30.89 -1.19c0.61,0.03 1.1,0.55 1.07,1.16 -0.02,0.62 -0.54,1.1 -1.16,1.08 -0.61,-0.03 -1.1,-0.54 -1.07,-1.16 0.02,-0.62 0.54,-1.1 1.16,-1.08zm27.88 -4.45c1.74,0.06 3.11,1.54 3.04,3.28 -0.07,1.75 -1.54,3.11 -3.28,3.04 -1.75,-0.06 -3.11,-1.54 -3.05,-3.28 0.07,-1.75 1.54,-3.11 3.29,-3.04zm-30.89 -1.18c1.74,0.06 3.1,1.53 3.04,3.28 -0.07,1.74 -1.54,3.11 -3.29,3.04 -1.74,-0.07 -3.1,-1.54 -3.04,-3.28 0.07,-1.75 1.54,-3.11 3.29,-3.04z"/>
   <path fill="#1F0933" d="M14.64 60.84c0.1,0 0.2,0.01 0.3,0.02 2.07,0.29 4.14,0.6 6.21,0.9 1.57,0.23 2.81,1.8 2.58,3.46l-0.7 4.72c0,0 0.28,-0.39 0.59,-0.65 0.57,-0.47 1.3,-0.72 2.04,-0.7 2.08,0.07 4.15,0.17 6.23,0.26 1.65,0.08 3.07,1.63 2.9,3.36l-0.2 1.97c0.21,-0.23 0.74,-0.61 1.18,-0.8 3.49,-1.49 7.61,-1.56 10.95,0.5 2.02,1.25 3.39,3.44 3.87,5.82 0.53,2.65 0.05,5.44 -0.92,7.88l-0.01 0.03c0.04,-0.01 0.08,-0.03 0.13,-0.05 1.01,-0.36 2.07,-0.69 3.14,-0.79 0.21,-0.02 0.43,-0.02 0.64,0.01l-0.68 -2.26c0,0 -0.15,-0.51 -0.14,-0.95 0.03,-1.16 0.76,-2.27 1.86,-2.75 1.62,-0.68 3.26,-1.35 4.89,-2.03 1.02,-0.41 2.23,-0.23 3.1,0.46l0.26 -2.06c0,0 0.07,-0.43 0.2,-0.77 0.25,-0.62 0.72,-1.15 1.3,-1.49l5.22 -3.01c0.15,-0.08 0.19,-0.1 0.28,-0.14 1.55,-0.69 3.62,0.18 4.15,1.89 0.06,0.18 0.04,0.08 0.06,0.04 0.05,-0.15 0.07,-0.18 0.1,-0.27 0.61,-1.4 1.99,-2.41 3.51,-2.71 2,-0.39 4.25,0.46 5.31,2.19 1.09,1.8 0.61,4.32 -1.2,5.67 0,0 0.73,0.71 0.96,1.43 0.93,-1.26 2.19,-2.25 3.59,-2.96l0.01 0c-0.32,-1.7 -0.64,-3.39 -0.96,-5.09 0,0 -0.09,-0.52 -0.02,-0.97 0.17,-1.24 1.15,-2.3 2.38,-2.57 1.54,-0.32 3.09,-0.63 4.64,-0.94 0.26,-0.05 0.52,-0.07 0.78,-0.05 0.32,-2.44 1.7,-4.77 3.64,-6.34 0,0 0.46,-0.35 0.9,-0.5 1.19,-0.44 2.61,-0.05 3.43,0.97 1,1.29 2,2.59 2.99,3.88 0.1,0.13 0.13,0.17 0.18,0.26 0.59,0.97 0.55,2.24 -0.02,3.24 -0.01,0.01 -0.02,0.03 -0.03,0.04 -0.05,0.11 -0.11,0.2 -0.06,0.25 0.57,0.61 1.38,1.01 2.12,1.57 1.96,1.48 3.61,3.51 3.89,5.98 0.3,2.58 -0.63,5.29 -2.5,7.06 -2.06,1.95 -5.04,2.72 -7.94,2.78 -0.67,0.01 -1.34,-0.14 -1.9,-0.52l0.8 6.95c0,0 0.04,0.55 -0.05,0.99 -0.24,1.12 -1.15,2.05 -2.28,2.33 -1.12,0.26 -2.25,0.5 -3.37,0.75 -0.87,0.19 -1.81,-0.07 -2.46,-0.69l-0.17 -0.02c-3.22,0 -6.35,-1.68 -8,-4.48 0,0 -0.19,0.39 -0.43,0.67 -0.56,0.66 -1.41,1.06 -2.29,1.07 -1.19,0.01 -2.38,0 -3.56,0 -1.63,-0.01 -3.1,-1.45 -3.05,-3.14 0,-0.04 0.01,-0.08 0.01,-0.12 0.24,-3.2 0.53,-6.39 0.8,-9.58 0.09,-1 0.7,-1.94 1.59,-2.43 -0.02,-0.01 -0.04,-0.03 -0.06,-0.05 -0.66,-0.57 -1.16,-1.34 -1.39,-2.19l-2.13 15.77 3.6 4.11c0,0 0.39,0.49 0.56,0.95 0.45,1.23 0.01,2.72 -1.06,3.52 -1.18,0.86 -2.38,1.7 -3.57,2.55 -0.73,0.52 -1.67,0.69 -2.53,0.47 0,0 -0.12,0.42 -0.3,0.74 -0.42,0.73 -1.14,1.26 -1.97,1.46 -1.32,0.3 -2.66,0.58 -3.98,0.87 -1.48,0.31 -3.1,-0.6 -3.56,-2.09l-0.27 -0.88c-0.01,0.07 -0.02,0.09 -0.02,0.09 -0.18,1.07 -0.95,1.98 -1.98,2.37 -3.67,1.4 -8.03,1.3 -11.21,-1.06 -1.58,-1.18 -2.71,-2.92 -3.15,-4.84 -0.28,-1.2 -0.31,-2.44 -0.17,-3.67 0,0 0.08,-0.07 -0.05,-0.05 -1,0.13 -1.94,-0.38 -2.85,-0.83 -0.6,-0.3 -1.21,-0.6 -1.81,-0.91 0,0 -0.3,-0.16 -0.5,-0.33 -0.36,-0.31 -0.63,-0.73 -0.76,-1.19 -0.05,-0.18 -0.08,-0.13 -0.13,-0.15 -1.24,-0.48 -2.38,-1.24 -3.23,-2.27l-0.21 1.98c0,0 -0.07,0.52 -0.25,0.92 -0.47,1.06 -1.59,1.79 -2.75,1.81 -1.5,0.01 -3,0 -4.5,0 -1.6,-0.01 -3.07,-1.39 -3.05,-3.1l0.09 -4.52 -1.85 0.1 -1.13 7.73c-0.23,1.45 -1.6,2.64 -3.11,2.6 -0.04,-0.01 -0.08,-0.01 -0.12,-0.01 -1.7,-0.12 -3.41,-0.27 -5.12,-0.4 -1.56,-0.14 -2.9,-1.59 -2.81,-3.23 0.01,-0.04 0.01,-0.07 0.01,-0.11 1.08,-10.35 2.28,-20.68 3.42,-31.02 0.18,-1.48 1.5,-2.71 3.05,-2.71 0.04,0 0.04,0 0.08,0z"/>
   <path fill="#1371FF" d="M53.92 94.8c0.53,-0.09 0.9,-0.59 0.82,-1.12 -0.15,-1.11 -0.39,-2.9 -0.55,-4.01 -0.03,-0.26 -0.17,-0.5 -0.39,-0.66 -0.21,-0.17 -0.49,-0.23 -0.75,-0.19 -2.36,0.4 -8.08,1.98 -8.79,7.95 -0.86,7.21 6.18,9.59 11.83,7.39 0.47,-0.18 0.73,-0.69 0.61,-1.17 -0.17,-0.69 -0.42,-1.68 -0.6,-2.4 -0.13,-0.53 -0.66,-0.86 -1.19,-0.74 -1.67,0.35 -5,0.81 -5.31,-1.12 -0.43,-2.73 2.68,-3.64 4.32,-3.93z"/>
   <path fill="#851DE8" d="M63.11 87.36c0.04,0.13 0.16,0.22 0.29,0.21 0.14,-0.01 0.25,-0.11 0.27,-0.24 0.33,-2.7 1.02,-8.21 1.22,-9.88 0.04,-0.32 0.23,-0.59 0.5,-0.75 0.99,-0.57 3.49,-2.01 5.2,-3 0.34,-0.19 0.75,-0.17 1.07,0.04 0.31,0.21 0.48,0.59 0.43,0.97 -0.61,4.5 -2.04,15.11 -2.36,17.43 -0.04,0.28 0.05,0.57 0.24,0.79 0.77,0.88 2.81,3.21 3.91,4.47 0.19,0.21 0.27,0.49 0.24,0.78 -0.03,0.28 -0.18,0.53 -0.41,0.7 -1.03,0.73 -2.67,1.9 -3.54,2.52 -0.35,0.25 -0.82,0.25 -1.17,0 -0.72,-0.52 -1.91,-1.4 -2.54,-1.85 -0.06,-0.05 -0.15,-0.05 -0.22,-0.01 -0.06,0.05 -0.09,0.13 -0.07,0.2 0.16,0.68 0.47,1.91 0.68,2.78 0.07,0.27 0.02,0.55 -0.12,0.78 -0.14,0.23 -0.37,0.39 -0.64,0.45 -1.11,0.24 -2.88,0.62 -3.94,0.85 -0.51,0.11 -1.02,-0.19 -1.18,-0.69 -1.07,-3.51 -5.05,-16.49 -6.12,-19.99 -0.16,-0.49 0.09,-1.02 0.57,-1.22 1.23,-0.51 3.51,-1.45 4.86,-2.01 0.27,-0.11 0.58,-0.1 0.84,0.03 0.26,0.13 0.45,0.37 0.52,0.66 0.38,1.54 1.06,4.28 1.47,5.98z"/>
   <path fill="#F57513" d="M30.64 92.56c-0.05,0.51 -0.49,0.9 -1,0.9 -1.18,0 -3.22,0 -4.45,0 -0.28,0 -0.53,-0.11 -0.72,-0.3 -0.19,-0.19 -0.29,-0.45 -0.29,-0.72 0.03,-1.46 0.08,-4.14 0.1,-5.64 0.01,-0.28 -0.1,-0.55 -0.3,-0.74 -0.21,-0.2 -0.48,-0.3 -0.76,-0.28 -1.11,0.06 -2.81,0.16 -3.81,0.22 -0.48,0.02 -0.87,0.38 -0.94,0.85 -0.28,1.89 -0.96,6.56 -1.26,8.56 -0.07,0.52 -0.54,0.9 -1.07,0.86 -1.32,-0.11 -3.72,-0.3 -5.09,-0.41 -0.27,-0.02 -0.52,-0.15 -0.69,-0.36 -0.17,-0.21 -0.26,-0.48 -0.23,-0.75 0.55,-4.92 2.88,-26.04 3.42,-30.97 0.03,-0.27 0.17,-0.52 0.38,-0.68 0.22,-0.17 0.49,-0.24 0.76,-0.2 1.58,0.22 4.59,0.66 6.16,0.88 0.26,0.04 0.5,0.18 0.66,0.4 0.16,0.21 0.23,0.48 0.19,0.74 -0.36,2.43 -1.27,8.63 -1.62,10.99 -0.07,0.52 0.27,1.01 0.78,1.12 0.69,0.16 1.64,0.37 2.39,0.53 0.29,0.07 0.6,0 0.84,-0.19 0.24,-0.18 0.38,-0.47 0.38,-0.77 0.03,-1.4 0.07,-3.67 0.09,-4.98 0.01,-0.27 0.12,-0.53 0.32,-0.71 0.2,-0.19 0.46,-0.29 0.73,-0.27 1.58,0.06 4.58,0.19 6.19,0.26 0.27,0.01 0.53,0.13 0.71,0.34 0.18,0.21 0.27,0.49 0.24,0.76 -0.39,3.85 -1.74,16.99 -2.11,20.56z"/>
   <path fill="#F57513" d="M87.92 78.59c0.43,-0.19 0.68,-0.65 0.59,-1.11 -0.26,-1.43 -0.82,-4.35 -1.1,-5.88 -0.11,-0.54 0.24,-1.06 0.78,-1.17 1.23,-0.25 3.33,-0.67 4.6,-0.93 0.28,-0.06 0.56,0.01 0.79,0.17 0.23,0.17 0.37,0.42 0.41,0.7 0.48,4.17 2.2,19.1 2.64,22.92 0.06,0.51 -0.28,0.99 -0.78,1.1 -0.96,0.21 -2.47,0.55 -3.32,0.74 -0.17,0.04 -0.35,0.01 -0.49,-0.09 -0.15,-0.09 -0.25,-0.24 -0.28,-0.41l0 0c-0.04,-0.21 -0.23,-0.34 -0.43,-0.32 -4.44,0.55 -8.88,-2.54 -8.32,-9.19 0.3,-3.65 2.59,-5.55 4.91,-6.53zm1.88 5.68c-0.02,-0.09 -0.1,-0.15 -0.2,-0.14 -1.4,0.19 -2.39,1.22 -1.84,3.15 0.4,1.39 1.68,1.56 2.8,1.41 0.02,0 0.04,-0.01 0.05,-0.03 0.01,-0.01 0.01,-0.03 0.01,-0.05 -0.09,-0.5 -0.68,-3.6 -0.82,-4.34z"/>
   <path fill="#FF1344" d="M41.28 82c0.04,0.02 0.09,0 0.11,-0.04 0.88,-1.4 1.19,-3.18 -3.76,-2.29 -0.52,0.09 -1.01,-0.23 -1.14,-0.74 -0.19,-0.73 -0.45,-1.74 -0.62,-2.44 -0.12,-0.47 0.11,-0.95 0.55,-1.16 1.58,-0.7 5.42,-1.97 9.14,0.24 4.74,2.82 4.64,11.61 -3.13,18.63 -0.31,0.28 -0.75,0.34 -1.12,0.15 -0.79,-0.39 -2.16,-1.08 -2.87,-1.43 -0.11,-0.06 -0.2,-0.16 -0.22,-0.28 -0.03,-0.12 0,-0.25 0.08,-0.35l0 0c0.1,-0.13 0.13,-0.31 0.07,-0.47 -0.06,-0.16 -0.19,-0.28 -0.36,-0.32 -6.44,-1.42 -5.43,-8.57 -0.77,-9.68 1.66,-0.4 3,-0.22 4.04,0.18zm-0.97 3.12c1.09,0.38 1.72,1.42 1.41,2.32 -0.32,0.9 -1.45,1.33 -2.54,0.95 -1.09,-0.38 -1.72,-1.42 -1.41,-2.32 0.31,-0.9 1.45,-1.32 2.54,-0.95z"/>
   <path fill="#FF1344" d="M98.14 62.66c0.44,-0.33 1.06,-0.24 1.4,0.19 0.8,1.03 2.23,2.89 2.96,3.85 0.26,0.33 0.28,0.78 0.07,1.13 -0.43,0.7 -0.89,1.97 0.39,3.06 1.9,1.59 6.59,3.59 4.89,8.98 -1.31,4.17 -6.16,4.69 -8.28,4.71 -0.55,0 -1,-0.44 -1,-0.99 0,-0.68 -0.01,-1.57 -0.01,-2.22 0,-0.48 0.34,-0.9 0.82,-0.99 1.31,-0.25 3.7,-0.96 3.4,-2.83 -0.4,-2.55 -5.1,-1.68 -7.02,-6.07 -1.68,-3.85 0.36,-7.22 2.38,-8.82z"/>
   <path fill="#00F5A9" d="M80.59 90.66c-0.02,0.54 -0.46,0.98 -1.01,0.98 -0.98,0 -2.49,0 -3.52,0 -0.28,0 -0.54,-0.12 -0.73,-0.33 -0.2,-0.21 -0.29,-0.48 -0.27,-0.76 0.19,-2.27 0.62,-7.46 0.8,-9.53 0.04,-0.5 0.45,-0.9 0.95,-0.92 0.83,-0.04 2.09,-0.1 2.99,-0.15 0.28,-0.01 0.55,0.09 0.75,0.29 0.2,0.19 0.31,0.47 0.3,0.74 -0.06,2.28 -0.2,7.5 -0.26,9.68zm-1.88 -17.98c1.57,0 2.85,1.09 2.85,2.43 0,1.34 -1.28,2.42 -2.85,2.42 -1.56,0 -2.84,-1.08 -2.84,-2.42 0,-1.34 1.28,-2.43 2.84,-2.43z"/>
   <path fill="white" d="M49.58 98.61c0.01,0.04 0.01,0.08 0.02,0.12 0.31,1.93 3.64,1.47 5.31,1.12 0.53,-0.12 1.06,0.21 1.19,0.74 0.18,0.72 0.43,1.71 0.6,2.4 0.05,0.19 0.03,0.39 -0.03,0.57 -0.17,-0.67 -0.4,-1.58 -0.57,-2.26 -0.13,-0.52 -0.66,-0.84 -1.19,-0.73 -1.67,0.35 -5,0.8 -5.31,-1.11 -0.05,-0.31 -0.05,-0.59 -0.02,-0.85zm16.71 1.64l0.56 2.27c0.05,0.2 0.04,0.4 -0.03,0.58l-0.65 -2.63c-0.02,-0.08 0.01,-0.16 0.07,-0.2 0.02,-0.01 0.03,-0.02 0.05,-0.02zm3.49 -7.65c0.04,0.12 0.11,0.23 0.19,0.33 0.77,0.88 2.81,3.21 3.91,4.47 0.19,0.21 0.27,0.49 0.24,0.78 -0.01,0.08 -0.03,0.17 -0.06,0.25 -0.04,-0.1 -0.1,-0.2 -0.18,-0.29 -1.1,-1.24 -3.14,-3.55 -3.91,-4.42 -0.19,-0.21 -0.28,-0.5 -0.24,-0.79l0.05 -0.33zm-25.59 5.71c-0.02,-0.48 0,-1 0.07,-1.54 0.71,-5.97 6.43,-7.55 8.79,-7.95 0.26,-0.04 0.54,0.02 0.75,0.19 0.22,0.16 0.36,0.4 0.39,0.66 0.16,1.11 0.4,2.9 0.55,4.01 0.03,0.16 0.01,0.32 -0.04,0.46 -0.15,-1.1 -0.37,-2.65 -0.51,-3.64 -0.03,-0.27 -0.17,-0.51 -0.39,-0.67 -0.21,-0.15 -0.49,-0.22 -0.75,-0.18 -2.36,0.39 -8.08,1.96 -8.79,7.88 -0.04,0.26 -0.06,0.52 -0.07,0.78zm-34.02 -3.15c-0.04,-0.13 -0.05,-0.27 -0.04,-0.41 0.55,-4.92 2.88,-26.04 3.42,-30.97 0.03,-0.27 0.17,-0.52 0.38,-0.68 0.22,-0.17 0.49,-0.24 0.76,-0.2 1.58,0.22 4.59,0.66 6.16,0.88 0.26,0.04 0.5,0.18 0.66,0.4 0.16,0.21 0.23,0.48 0.19,0.74l-0.08 0.52c-0.03,-0.06 -0.06,-0.13 -0.11,-0.19 -0.16,-0.21 -0.4,-0.35 -0.66,-0.39 -1.57,-0.22 -4.58,-0.65 -6.16,-0.87 -0.27,-0.04 -0.54,0.03 -0.76,0.19 -0.21,0.17 -0.35,0.41 -0.38,0.68l-3.38 30.3zm77.31 -23.16l-0.07 -0.4c-0.11,-0.54 0.24,-1.06 0.78,-1.17 1.23,-0.25 3.33,-0.67 4.6,-0.93 0.28,-0.06 0.56,0.01 0.79,0.17 0.23,0.17 0.37,0.42 0.41,0.7 0.48,4.17 2.2,19.1 2.64,22.92 0.02,0.15 0,0.29 -0.04,0.43l-2.6 -22.33c-0.04,-0.28 -0.18,-0.53 -0.41,-0.69 -0.23,-0.17 -0.51,-0.23 -0.79,-0.17 -1.27,0.25 -3.37,0.67 -4.6,0.91 -0.32,0.07 -0.58,0.28 -0.71,0.56zm-49.25 20.41c0.06,0.06 0.11,0.13 0.14,0.21 0.03,0.09 0.04,0.18 0.02,0.27 -0.09,-0.06 -0.15,-0.15 -0.17,-0.25 -0.02,-0.08 -0.02,-0.16 0.01,-0.23zm-13.96 -4.93c0.01,0.05 0.02,0.11 0.01,0.17l-0.09 4.96c-0.01,-0.06 -0.01,-0.11 -0.01,-0.17l0.09 -4.96zm50.83 3.43c-0.03,-0.11 -0.05,-0.24 -0.04,-0.36 0.19,-2.27 0.62,-7.46 0.8,-9.53 0.04,-0.5 0.45,-0.9 0.95,-0.92 0.83,-0.04 2.09,-0.1 2.99,-0.15 0.28,-0.01 0.55,0.09 0.75,0.29 0.2,0.19 0.31,0.47 0.3,0.74l-0.02 0.69c-0.04,-0.19 -0.13,-0.37 -0.28,-0.51 -0.2,-0.2 -0.47,-0.3 -0.75,-0.29 -0.9,0.05 -2.16,0.11 -2.99,0.15 -0.5,0.02 -0.91,0.41 -0.95,0.91l-0.76 8.98zm12.54 -4.2c0.03,0.18 0.07,0.37 0.12,0.57 0.39,1.36 1.61,1.56 2.72,1.42l0.14 0.74c0,0.02 0,0.04 -0.01,0.05 -0.01,0.02 -0.03,0.03 -0.05,0.03 -1.12,0.16 -2.4,-0.01 -2.8,-1.4 -0.15,-0.54 -0.19,-1.01 -0.12,-1.41zm-49.89 0.27c0.18,0.61 0.7,1.16 1.43,1.41 1.09,0.38 2.22,-0.05 2.54,-0.95 0,-0.02 0.01,-0.04 0.01,-0.06 0.09,0.3 0.09,0.61 -0.01,0.9 -0.32,0.9 -1.45,1.32 -2.54,0.95 -1.07,-0.37 -1.7,-1.36 -1.43,-2.25zm17.15 -2.89l-0.05 -0.17c-0.16,-0.49 0.09,-1.02 0.57,-1.22 1.23,-0.51 3.51,-1.45 4.86,-2.01 0.27,-0.11 0.58,-0.1 0.84,0.03 0.26,0.13 0.45,0.37 0.52,0.66 0.38,1.54 1.06,4.28 1.47,5.98 0.04,0.13 0.16,0.22 0.29,0.21 0.14,-0.01 0.25,-0.11 0.27,-0.24 0.33,-2.7 1.02,-8.21 1.22,-9.88 0.04,-0.32 0.23,-0.59 0.5,-0.75 0.99,-0.57 3.49,-2.01 5.2,-3 0.34,-0.19 0.75,-0.17 1.07,0.04 0.31,0.21 0.48,0.59 0.43,0.97l-0.06 0.47c-0.08,-0.18 -0.2,-0.35 -0.37,-0.46 -0.32,-0.21 -0.73,-0.22 -1.07,-0.03 -1.71,0.97 -4.21,2.39 -5.2,2.96 -0.27,0.16 -0.46,0.43 -0.5,0.74 -0.2,1.66 -0.89,7.12 -1.22,9.78 -0.02,0.13 -0.13,0.24 -0.27,0.24 -0.13,0.01 -0.25,-0.08 -0.29,-0.21 -0.41,-1.67 -1.09,-4.39 -1.47,-5.92 -0.07,-0.28 -0.26,-0.52 -0.52,-0.65 -0.26,-0.13 -0.57,-0.14 -0.84,-0.03 -1.35,0.55 -3.63,1.49 -4.86,1.99 -0.24,0.1 -0.42,0.28 -0.52,0.5zm-13.08 -3.02c0.23,0.5 -0.04,1.18 -0.43,1.79 -0.02,0.04 -0.07,0.06 -0.11,0.04 -1.04,-0.4 -2.38,-0.57 -4.04,-0.18 -2.2,0.52 -3.58,2.36 -3.76,4.32 -0.21,-2.27 1.25,-4.62 3.76,-5.22 1.66,-0.4 3,-0.22 4.04,0.18 0.04,0.02 0.09,0 0.11,-0.04 0.18,-0.29 0.34,-0.59 0.43,-0.89zm46.63 -3l0.06 0.35c0.09,0.46 -0.16,0.92 -0.59,1.1 -2.32,0.98 -4.61,2.85 -4.91,6.47 -0.02,0.22 -0.04,0.45 -0.04,0.66 -0.02,-0.49 -0.01,-1 0.04,-1.53 0.3,-3.65 2.59,-5.55 4.91,-6.53 0.24,-0.11 0.43,-0.29 0.53,-0.52zm-52.51 -1.3l-0.07 -0.28c-0.12,-0.47 0.11,-0.95 0.55,-1.16 1.58,-0.7 5.42,-1.97 9.14,0.24 2.17,1.29 3.32,3.83 3.19,6.88 -0.11,-2.62 -1.24,-4.77 -3.19,-5.91 -3.72,-2.19 -7.56,-0.94 -9.14,-0.24 -0.22,0.1 -0.39,0.27 -0.48,0.47zm66.81 1.54c0.01,0.06 0.02,0.12 0.03,0.18 0.3,1.85 -2.09,2.56 -3.4,2.81 -0.45,0.08 -0.78,0.44 -0.82,0.88 0,-0.28 0,-0.56 0,-0.81 0,-0.48 0.34,-0.9 0.82,-0.99 1.11,-0.21 3,-0.76 3.37,-2.07zm-82.6 -1.88c0.12,0.3 0.38,0.53 0.71,0.6 0.69,0.16 1.64,0.37 2.39,0.53 0.29,0.07 0.6,0 0.84,-0.19 0.24,-0.18 0.38,-0.47 0.38,-0.77 0.03,-1.4 0.07,-3.67 0.09,-4.98 0.01,-0.27 0.12,-0.53 0.32,-0.71 0.2,-0.19 0.46,-0.29 0.73,-0.27 1.58,0.06 4.58,0.19 6.19,0.26 0.27,0.01 0.53,0.13 0.71,0.34 0.18,0.21 0.27,0.49 0.24,0.76l-0.05 0.56c-0.05,-0.11 -0.11,-0.22 -0.19,-0.31 -0.18,-0.21 -0.44,-0.33 -0.71,-0.34 -1.61,-0.07 -4.61,-0.2 -6.19,-0.26 -0.27,-0.01 -0.53,0.08 -0.73,0.27 -0.2,0.18 -0.31,0.44 -0.32,0.7 -0.02,1.3 -0.06,3.55 -0.09,4.94 0,0.29 -0.14,0.57 -0.38,0.76 -0.24,0.18 -0.55,0.25 -0.84,0.19 -0.75,-0.17 -1.7,-0.38 -2.39,-0.53 -0.51,-0.11 -0.85,-0.6 -0.78,-1.11l0.07 -0.44zm82.04 -6.68c0.1,0.38 0.34,0.77 0.77,1.14 1.68,1.41 5.56,3.14 5.24,7.27 -0.29,-3.42 -3.69,-4.98 -5.24,-6.26 -0.85,-0.71 -0.93,-1.5 -0.77,-2.15zm-26.26 5.84c-0.04,-0.15 -0.06,-0.32 -0.06,-0.48 0,-1.34 1.28,-2.43 2.84,-2.43 1.57,0 2.85,1.09 2.85,2.43 0,0.16 -0.02,0.33 -0.06,0.48 -0.26,-1.09 -1.41,-1.92 -2.79,-1.92 -1.37,0 -2.52,0.83 -2.78,1.92zm19.23 -6.47c-0.22,-2.83 1.39,-5.19 2.98,-6.46 0.44,-0.33 1.06,-0.24 1.4,0.19 0.8,1.03 2.23,2.89 2.96,3.85 0.26,0.33 0.28,0.78 0.07,1.13l-0.01 0c-0.01,-0.03 -0.03,-0.05 -0.06,-0.08 -0.73,-0.94 -2.16,-2.79 -2.96,-3.81 -0.34,-0.43 -0.96,-0.51 -1.4,-0.18 -1.39,1.09 -2.8,3.02 -2.98,5.36z"/>
  </g>
  <g id="_1841900888704">
   <path fill="gray" fill-rule="nonzero" d="M415.43 104.62c0.69,-0.82 1.03,-1.75 1.03,-2.79 0,-1.04 -0.34,-1.97 -1.03,-2.78 -0.68,-0.81 -1.51,-1.21 -2.46,-1.21 -0.96,0 -1.78,0.4 -2.47,1.21 -0.68,0.81 -1.03,1.74 -1.03,2.78 0,1.04 0.35,1.97 1.03,2.79 0.69,0.82 1.51,1.23 2.47,1.23 0.95,0 1.78,-0.41 2.46,-1.23zm-5.96 -6.2c0.89,-1.28 2.03,-1.91 3.4,-1.91 1.38,0 2.57,0.53 3.56,1.6 0.99,1.07 1.49,2.31 1.49,3.73 0,1.42 -0.5,2.67 -1.51,3.72 -1,1.07 -2.2,1.6 -3.59,1.6 -1.38,0 -2.5,-0.62 -3.35,-1.86l0 1.52 -1.43 0 0 -15.46 1.43 0 0 7.06zm13.84 6.53l3.26 -8.09 1.58 0 -5.78 14.23 -1.54 0 1.71 -4.24 -4.06 -9.99 1.58 0 3.25 8.09z"/>
   <path fill="gray" fill-rule="nonzero" d="M300 98.54c0.7,-1.36 1.61,-2.03 2.74,-2.03 1.13,0 2.06,0.38 2.79,1.14 0.73,0.76 1.09,1.72 1.09,2.87l0 6.3 -1.44 0 0 -6.3c0,-0.75 -0.22,-1.38 -0.66,-1.91 -0.44,-0.51 -1.03,-0.77 -1.77,-0.77 -0.73,0 -1.3,0.4 -1.71,1.21 -0.4,0.81 -0.6,1.74 -0.6,2.78l0 4.99 -1.43 0 0 -6.3c0,-0.75 -0.22,-1.38 -0.67,-1.91 -0.44,-0.51 -1.03,-0.77 -1.77,-0.77 -0.73,0 -1.3,0.4 -1.71,1.21 -0.4,0.81 -0.6,1.74 -0.6,2.78l0 4.99 -1.43 0 0 -9.96 1.43 0 0 0.96c0.64,-0.88 1.46,-1.31 2.48,-1.31 1.01,0 1.88,0.38 2.6,1.14 0.28,0.28 0.5,0.57 0.66,0.89zm11.06 0.51c-0.68,0.81 -1.03,1.74 -1.03,2.78 0,1.04 0.35,1.97 1.03,2.79 0.69,0.82 1.51,1.23 2.47,1.23 0.95,0 1.78,-0.41 2.46,-1.23 0.69,-0.82 1.03,-1.75 1.03,-2.79 0,-1.04 -0.34,-1.97 -1.03,-2.78 -0.68,-0.81 -1.51,-1.21 -2.46,-1.21 -0.96,0 -1.78,0.4 -2.47,1.21zm-2.46 2.79c0,-1.44 0.49,-2.68 1.47,-3.74 0.99,-1.07 2.17,-1.59 3.55,-1.59 1.38,0 2.51,0.63 3.4,1.91l0 -1.56 1.46 0 0 9.96 -1.46 0 0 -1.52c-0.84,1.24 -1.96,1.86 -3.35,1.86 -1.38,0 -2.58,-0.53 -3.58,-1.59 -0.99,-1.05 -1.49,-2.29 -1.49,-3.73zm12.56 4.98l0 -15.46 1.44 0 0 9.45 3.95 -3.95 2.08 0 -3.83 3.82 4.12 6.14 -1.77 0 -3.41 -5.09 -1.14 1.14 0 3.95 -1.44 0zm9.57 -4.99c0,1.1 0.35,2.04 1.05,2.83 0.71,0.79 1.52,1.19 2.45,1.19 1.01,0 1.75,-0.14 2.22,-0.43 0.46,-0.29 0.88,-0.74 1.25,-1.38l1.17 0.77c-0.51,0.79 -1.11,1.38 -1.79,1.77 -0.68,0.38 -1.62,0.58 -2.81,0.58 -1.26,0 -2.4,-0.53 -3.43,-1.6 -1.03,-1.05 -1.54,-2.3 -1.54,-3.73 0,-1.43 0.51,-2.67 1.52,-3.73 1.01,-1.07 2.15,-1.59 3.41,-1.59 1.26,0 2.4,0.52 3.42,1.59 1.02,1.06 1.53,2.3 1.53,3.73l-8.45 0zm0.23 -1.31l6.56 0c-0.25,-0.79 -0.68,-1.44 -1.29,-1.93 -0.61,-0.5 -1.28,-0.75 -2,-0.75 -0.72,0 -1.38,0.25 -1.99,0.75 -0.6,0.49 -1.03,1.14 -1.28,1.93zm17.13 6.3l-3.25 -9.96 1.54 0 2.52 7.8 2.51 -7.8 1.48 0 2.52 7.78 2.54 -7.78 1.54 0 -3.25 9.96 -1.62 0 -2.46 -7.53 -2.45 7.53 -1.62 0zm12.98 -12.24c-0.22,-0.23 -0.33,-0.5 -0.33,-0.82 0,-0.32 0.11,-0.59 0.33,-0.81 0.22,-0.23 0.49,-0.34 0.81,-0.34 0.32,0 0.59,0.11 0.82,0.34 0.23,0.22 0.35,0.49 0.35,0.81 0,0.32 -0.12,0.59 -0.35,0.82 -0.23,0.23 -0.5,0.34 -0.82,0.34 -0.32,0 -0.59,-0.11 -0.81,-0.34zm0.1 12.24l0 -9.96 1.44 0 0 9.96 -1.44 0zm3.37 -8.65l0 -1.31 1.27 0 0 -3.31 1.46 0 0 3.31 2.29 0 0 1.31 -2.29 0 0 8.65 -1.46 0 0 -8.65 -1.27 0zm8.05 -0.11c0.91,-1.04 1.89,-1.55 2.96,-1.55 1.29,0 2.35,0.35 3.17,1.07 0.83,0.73 1.24,1.71 1.24,2.94l0 6.3 -1.44 0 0 -6.3c0,-0.79 -0.28,-1.44 -0.86,-1.93 -0.57,-0.5 -1.3,-0.75 -2.17,-0.75 -0.88,0 -1.58,0.39 -2.1,1.17 -0.53,0.78 -0.8,1.72 -0.8,2.82l0 4.99 -1.43 0 0 -15.46 1.43 0 0 6.7z"/>
   <path fill="#FF1344" fill-rule="nonzero" d="M393.65 93.91c1.07,-2.14 2.14,-3.21 4.28,-3.21 2.36,0 4.28,1.92 4.28,4.28 0,4.28 -4.28,8.56 -8.56,12.84 -4.28,-4.28 -8.56,-8.56 -8.56,-12.84 0,-2.36 1.91,-4.28 4.28,-4.28 2.14,0 3.21,1.07 4.28,3.21z"/>
   <g>
    <path fill="#1F0933" d="M435.56 87.14c0.05,0 0.1,0.01 0.16,0.01 1.09,0.15 2.19,0.32 3.28,0.48 0.84,0.12 1.49,0.95 1.37,1.83l-0.37 2.5c0,0 0.15,-0.21 0.31,-0.34 0.3,-0.25 0.7,-0.38 1.08,-0.37 1.1,0.03 2.21,0.09 3.31,0.14 0.87,0.04 1.62,0.86 1.53,1.77l-0.1 1.05c0.11,-0.12 0.39,-0.32 0.62,-0.42 1.85,-0.79 4.03,-0.83 5.8,0.26 1.08,0.66 1.8,1.82 2.05,3.09 0.29,1.4 0.03,2.88 -0.48,4.17l-0.01 0.02c0.02,-0.01 0.05,-0.02 0.07,-0.03 0.53,-0.19 1.09,-0.37 1.66,-0.42 0.11,-0.01 0.23,-0.01 0.34,0l-0.36 -1.19c0,0 -0.08,-0.27 -0.07,-0.51 0.01,-0.61 0.4,-1.2 0.98,-1.45 0.86,-0.37 1.73,-0.72 2.6,-1.08 0.53,-0.21 1.18,-0.12 1.63,0.25l0.15 -1.1c0,0 0.03,-0.23 0.1,-0.4 0.14,-0.33 0.38,-0.62 0.69,-0.8l2.76 -1.59c0.08,-0.04 0.11,-0.05 0.15,-0.07 0.83,-0.37 1.92,0.09 2.2,1 0.03,0.09 0.02,0.04 0.03,0.02 0.03,-0.08 0.04,-0.1 0.06,-0.14 0.32,-0.74 1.05,-1.28 1.85,-1.44 1.07,-0.21 2.26,0.25 2.82,1.16 0.58,0.95 0.32,2.29 -0.64,3 0,0 0.39,0.38 0.51,0.76 0.49,-0.67 1.16,-1.19 1.9,-1.56l0.01 -0.01c-0.17,-0.89 -0.34,-1.79 -0.51,-2.69 0,0 -0.04,-0.28 -0.01,-0.52 0.09,-0.65 0.61,-1.21 1.26,-1.36 0.82,-0.17 1.64,-0.33 2.46,-0.5 0.14,-0.02 0.27,-0.03 0.41,-0.02 0.17,-1.3 0.9,-2.53 1.93,-3.36 0,0 0.25,-0.18 0.48,-0.27 0.63,-0.23 1.38,-0.02 1.81,0.52 0.54,0.68 1.06,1.37 1.59,2.05 0.05,0.07 0.07,0.1 0.1,0.14 0.31,0.51 0.28,1.19 -0.02,1.72 0,0 -0.01,0.01 -0.01,0.02 -0.03,0.06 -0.06,0.11 -0.04,0.13 0.31,0.32 0.74,0.53 1.13,0.83 1.04,0.79 1.91,1.86 2.06,3.17 0.16,1.37 -0.33,2.8 -1.32,3.74 -1.1,1.03 -2.67,1.44 -4.21,1.47 -0.36,0.01 -0.71,-0.07 -1.01,-0.27l0.43 3.68c0,0 0.02,0.29 -0.03,0.53 -0.13,0.59 -0.61,1.08 -1.21,1.23 -0.59,0.14 -1.19,0.27 -1.78,0.4 -0.46,0.1 -0.96,-0.04 -1.3,-0.37l-0.09 -0.01c-1.71,0 -3.37,-0.89 -4.24,-2.37 0,0 -0.11,0.2 -0.23,0.35 -0.3,0.35 -0.75,0.56 -1.22,0.57 -0.63,0.01 -1.25,0 -1.88,0 -0.87,0 -1.65,-0.77 -1.62,-1.67 0,-0.02 0,-0.04 0.01,-0.06 0.13,-1.69 0.28,-3.38 0.42,-5.07 0.05,-0.53 0.37,-1.03 0.84,-1.29 -0.01,-0.01 -0.02,-0.02 -0.03,-0.02 -0.35,-0.31 -0.61,-0.72 -0.73,-1.17l-1.14 8.36 1.91 2.18c0,0 0.21,0.25 0.3,0.5 0.24,0.65 0.01,1.44 -0.56,1.86 -0.63,0.46 -1.26,0.91 -1.89,1.36 -0.39,0.27 -0.89,0.36 -1.34,0.25 0,0 -0.06,0.21 -0.16,0.39 -0.22,0.38 -0.61,0.67 -1.04,0.77 -0.71,0.16 -1.41,0.3 -2.12,0.46 -0.78,0.16 -1.64,-0.32 -1.88,-1.11l-0.15 -0.46c0,0.03 0,0.05 0,0.05 -0.1,0.56 -0.51,1.04 -1.05,1.25 -1.95,0.74 -4.26,0.69 -5.94,-0.56 -0.84,-0.63 -1.44,-1.55 -1.67,-2.57 -0.15,-0.63 -0.17,-1.29 -0.09,-1.94 0,0 0.04,-0.04 -0.03,-0.03 -0.53,0.07 -1.03,-0.2 -1.51,-0.43 -0.32,-0.17 -0.64,-0.33 -0.96,-0.49 0,0 -0.16,-0.08 -0.26,-0.17 -0.19,-0.17 -0.33,-0.39 -0.4,-0.63 -0.03,-0.1 -0.05,-0.07 -0.07,-0.08 -0.66,-0.26 -1.27,-0.66 -1.71,-1.21l-0.12 1.05c0,0 -0.03,0.28 -0.13,0.49 -0.25,0.56 -0.84,0.95 -1.46,0.96 -0.79,0 -1.59,0 -2.38,0 -0.85,0 -1.63,-0.74 -1.61,-1.64l0.04 -2.4 -0.98 0.06 -0.6 4.09c-0.12,0.77 -0.85,1.4 -1.65,1.38 -0.02,0 -0.04,-0.01 -0.05,-0.01 -0.91,-0.06 -1.82,-0.14 -2.72,-0.21 -0.83,-0.07 -1.54,-0.84 -1.49,-1.71 0,-0.02 0.01,-0.04 0.01,-0.06 0.57,-5.48 1.21,-10.96 1.81,-16.43 0.09,-0.79 0.79,-1.44 1.61,-1.44 0.02,0 0.02,0 0.05,0z"/>
    <path fill="#1371FF" d="M456.37 105.14c0.28,-0.05 0.47,-0.32 0.43,-0.6 -0.08,-0.59 -0.21,-1.54 -0.29,-2.12 -0.02,-0.14 -0.09,-0.27 -0.21,-0.36 -0.11,-0.08 -0.25,-0.12 -0.39,-0.1 -1.25,0.22 -4.29,1.05 -4.66,4.22 -0.46,3.82 3.27,5.08 6.27,3.91 0.25,-0.09 0.38,-0.36 0.32,-0.62 -0.09,-0.37 -0.22,-0.89 -0.32,-1.27 -0.07,-0.28 -0.35,-0.45 -0.63,-0.39 -0.88,0.19 -2.65,0.43 -2.81,-0.6 -0.23,-1.44 1.42,-1.92 2.29,-2.07z"/>
    <path fill="#851DE8" d="M461.24 101.19c0.02,0.07 0.08,0.12 0.15,0.11 0.07,0 0.13,-0.06 0.14,-0.13 0.18,-1.42 0.54,-4.34 0.65,-5.23 0.02,-0.17 0.12,-0.31 0.26,-0.4 0.53,-0.3 1.85,-1.06 2.76,-1.58 0.18,-0.1 0.4,-0.1 0.56,0.02 0.17,0.11 0.26,0.31 0.23,0.51 -0.32,2.38 -1.08,8 -1.24,9.23 -0.03,0.15 0.02,0.31 0.12,0.42 0.41,0.47 1.49,1.7 2.07,2.37 0.1,0.11 0.15,0.26 0.13,0.41 -0.02,0.15 -0.1,0.29 -0.22,0.37 -0.54,0.39 -1.41,1.01 -1.87,1.34 -0.19,0.13 -0.44,0.13 -0.63,0 -0.37,-0.28 -1.01,-0.74 -1.34,-0.98 -0.03,-0.03 -0.08,-0.03 -0.11,0 -0.04,0.02 -0.05,0.06 -0.04,0.1 0.08,0.36 0.25,1.01 0.36,1.48 0.03,0.14 0.01,0.28 -0.07,0.4 -0.07,0.13 -0.19,0.21 -0.33,0.24 -0.59,0.13 -1.53,0.33 -2.09,0.46 -0.27,0.06 -0.54,-0.1 -0.63,-0.37 -0.57,-1.86 -2.67,-8.74 -3.24,-10.59 -0.08,-0.26 0.05,-0.54 0.3,-0.65 0.65,-0.27 1.86,-0.77 2.58,-1.06 0.14,-0.06 0.3,-0.06 0.44,0.01 0.14,0.07 0.24,0.2 0.28,0.35 0.2,0.82 0.56,2.27 0.78,3.17z"/>
    <path fill="#F57513" d="M444.03 103.95c-0.02,0.27 -0.25,0.48 -0.53,0.48 -0.62,0 -1.7,0 -2.36,0 -0.14,0 -0.28,-0.06 -0.38,-0.16 -0.1,-0.11 -0.15,-0.24 -0.15,-0.39 0.02,-0.77 0.04,-2.19 0.06,-2.99 0,-0.14 -0.06,-0.29 -0.17,-0.39 -0.1,-0.1 -0.25,-0.15 -0.4,-0.15 -0.58,0.04 -1.49,0.09 -2.02,0.12 -0.25,0.01 -0.46,0.2 -0.49,0.45 -0.15,1 -0.51,3.48 -0.67,4.54 -0.04,0.27 -0.29,0.47 -0.57,0.45 -0.7,-0.06 -1.97,-0.16 -2.69,-0.21 -0.15,-0.01 -0.28,-0.08 -0.37,-0.19 -0.09,-0.11 -0.14,-0.26 -0.12,-0.4 0.29,-2.61 1.52,-13.8 1.81,-16.41 0.01,-0.14 0.09,-0.28 0.2,-0.36 0.12,-0.09 0.26,-0.13 0.4,-0.11 0.84,0.12 2.44,0.35 3.27,0.47 0.14,0.02 0.26,0.1 0.35,0.21 0.08,0.11 0.12,0.25 0.1,0.39 -0.19,1.29 -0.68,4.58 -0.86,5.82 -0.04,0.28 0.14,0.54 0.41,0.6 0.37,0.08 0.87,0.19 1.27,0.28 0.15,0.04 0.32,0 0.44,-0.1 0.13,-0.1 0.2,-0.25 0.21,-0.41 0.01,-0.74 0.03,-1.94 0.04,-2.64 0.01,-0.14 0.07,-0.28 0.17,-0.38 0.11,-0.09 0.25,-0.15 0.39,-0.14 0.84,0.04 2.43,0.1 3.28,0.14 0.14,0.01 0.28,0.07 0.38,0.18 0.09,0.11 0.14,0.26 0.12,0.41 -0.21,2.03 -0.92,8.99 -1.12,10.89z"/>
    <path fill="#F57513" d="M474.38 96.54c0.23,-0.09 0.36,-0.34 0.32,-0.58 -0.15,-0.76 -0.44,-2.31 -0.59,-3.12 -0.06,-0.28 0.13,-0.56 0.42,-0.62 0.65,-0.13 1.76,-0.35 2.43,-0.49 0.15,-0.03 0.3,0 0.42,0.09 0.12,0.09 0.2,0.22 0.22,0.37 0.25,2.21 1.16,10.12 1.4,12.14 0.03,0.27 -0.15,0.53 -0.42,0.59 -0.5,0.11 -1.31,0.29 -1.76,0.39 -0.09,0.02 -0.18,0 -0.26,-0.05 -0.07,-0.05 -0.13,-0.13 -0.14,-0.22l0 0c-0.03,-0.11 -0.13,-0.18 -0.23,-0.16 -2.35,0.28 -4.71,-1.35 -4.41,-4.87 0.16,-1.94 1.37,-2.94 2.6,-3.47zm1 3.02c-0.01,-0.05 -0.06,-0.09 -0.11,-0.08 -0.74,0.1 -1.26,0.64 -0.97,1.67 0.21,0.74 0.88,0.83 1.48,0.75 0.01,-0.01 0.02,-0.01 0.03,-0.02 0,-0.01 0,-0.02 0,-0.03 -0.05,-0.26 -0.36,-1.9 -0.43,-2.29z"/>
    <path fill="#FF1344" d="M449.67 98.35c0.02,0.01 0.05,0 0.06,-0.02 0.46,-0.74 0.63,-1.69 -2,-1.21 -0.27,0.04 -0.53,-0.13 -0.6,-0.39 -0.1,-0.39 -0.23,-0.93 -0.33,-1.3 -0.06,-0.24 0.06,-0.5 0.29,-0.61 0.84,-0.37 2.88,-1.04 4.85,0.13 2.51,1.49 2.45,6.15 -1.66,9.87 -0.16,0.14 -0.4,0.17 -0.59,0.08 -0.42,-0.21 -1.15,-0.58 -1.53,-0.76 -0.05,-0.03 -0.1,-0.09 -0.11,-0.15 -0.02,-0.07 0,-0.13 0.04,-0.19l0 0c0.06,-0.07 0.07,-0.16 0.04,-0.25 -0.03,-0.08 -0.1,-0.14 -0.19,-0.16 -3.42,-0.76 -2.88,-4.55 -0.41,-5.14 0.88,-0.21 1.59,-0.11 2.14,0.1zm-0.51 1.66c0.57,0.2 0.91,0.75 0.74,1.22 -0.16,0.48 -0.77,0.71 -1.34,0.51 -0.58,-0.2 -0.91,-0.75 -0.75,-1.23 0.17,-0.48 0.77,-0.7 1.35,-0.5z"/>
    <path fill="#FF1344" d="M479.8 88.11c0.23,-0.18 0.56,-0.13 0.73,0.1 0.43,0.54 1.19,1.53 1.58,2.03 0.13,0.18 0.15,0.42 0.03,0.61 -0.23,0.37 -0.47,1.04 0.21,1.61 1.01,0.85 3.49,1.91 2.59,4.76 -0.69,2.21 -3.26,2.49 -4.38,2.5 -0.3,0 -0.53,-0.24 -0.54,-0.53 0,-0.35 0,-0.83 0,-1.17 0,-0.26 0.18,-0.48 0.43,-0.53 0.7,-0.13 1.96,-0.51 1.81,-1.5 -0.22,-1.35 -2.71,-0.88 -3.73,-3.21 -0.89,-2.04 0.2,-3.83 1.27,-4.67z"/>
    <path fill="#00F5A9" d="M470.5 102.94c-0.01,0.29 -0.25,0.52 -0.54,0.52 -0.52,0 -1.32,0 -1.86,0 -0.15,0 -0.29,-0.07 -0.39,-0.18 -0.1,-0.1 -0.15,-0.25 -0.14,-0.4 0.1,-1.2 0.33,-3.95 0.42,-5.05 0.02,-0.26 0.24,-0.47 0.5,-0.49 0.45,-0.02 1.11,-0.05 1.59,-0.07 0.15,-0.01 0.29,0.04 0.4,0.15 0.1,0.1 0.16,0.25 0.16,0.39 -0.04,1.21 -0.11,3.98 -0.14,5.13zm-1 -9.53c0.84,0 1.51,0.58 1.51,1.29 0,0.71 -0.67,1.29 -1.51,1.29 -0.83,0 -1.5,-0.58 -1.5,-1.29 0,-0.71 0.67,-1.29 1.5,-1.29z"/>
    <path fill="#E6E6E6" d="M454.07 107.15c0,0.02 0.01,0.04 0.01,0.06 0.16,1.03 1.93,0.79 2.81,0.6 0.28,-0.06 0.56,0.11 0.63,0.39 0.1,0.38 0.23,0.9 0.32,1.27 0.02,0.1 0.02,0.21 -0.02,0.31 -0.09,-0.36 -0.21,-0.84 -0.3,-1.2 -0.07,-0.28 -0.35,-0.45 -0.63,-0.39 -0.88,0.19 -2.65,0.43 -2.81,-0.59 -0.03,-0.16 -0.03,-0.31 -0.01,-0.45zm8.85 0.87l0.3 1.21c0.02,0.1 0.02,0.2 -0.02,0.3l-0.34 -1.39c-0.01,-0.05 0,-0.09 0.04,-0.11 0.01,0 0.01,-0.01 0.02,-0.01zm1.85 -4.05c0.02,0.06 0.06,0.12 0.1,0.17 0.41,0.47 1.49,1.7 2.07,2.37 0.1,0.11 0.15,0.26 0.13,0.41 0,0.05 -0.02,0.09 -0.03,0.14 -0.03,-0.06 -0.06,-0.11 -0.1,-0.16 -0.58,-0.66 -1.66,-1.88 -2.07,-2.34 -0.1,-0.11 -0.15,-0.26 -0.12,-0.41l0.02 -0.18zm-13.56 3.02c-0.01,-0.25 0,-0.53 0.04,-0.81 0.37,-3.17 3.41,-4 4.66,-4.22 0.14,-0.02 0.28,0.02 0.39,0.1 0.12,0.09 0.19,0.22 0.21,0.36 0.08,0.58 0.21,1.53 0.29,2.12 0.02,0.08 0.01,0.17 -0.02,0.24 -0.08,-0.58 -0.19,-1.4 -0.27,-1.93 -0.02,-0.14 -0.09,-0.26 -0.21,-0.35 -0.11,-0.08 -0.25,-0.12 -0.39,-0.1 -1.25,0.21 -4.29,1.04 -4.66,4.18 -0.02,0.14 -0.03,0.28 -0.04,0.41zm-18.02 -1.66c-0.02,-0.07 -0.03,-0.15 -0.02,-0.22 0.29,-2.61 1.52,-13.8 1.81,-16.41 0.01,-0.14 0.09,-0.28 0.2,-0.36 0.12,-0.09 0.26,-0.13 0.4,-0.11 0.84,0.12 2.44,0.35 3.27,0.47 0.14,0.02 0.26,0.1 0.35,0.21 0.08,0.11 0.12,0.25 0.1,0.39l-0.04 0.28c-0.02,-0.03 -0.04,-0.07 -0.06,-0.1 -0.09,-0.11 -0.21,-0.19 -0.35,-0.21 -0.83,-0.12 -2.43,-0.34 -3.27,-0.46 -0.14,-0.02 -0.28,0.02 -0.4,0.1 -0.11,0.09 -0.19,0.22 -0.2,0.36l-1.79 16.06zm40.96 -12.28l-0.04 -0.21c-0.06,-0.28 0.13,-0.56 0.42,-0.62 0.65,-0.13 1.76,-0.35 2.43,-0.49 0.15,-0.03 0.3,0 0.42,0.09 0.12,0.09 0.2,0.22 0.22,0.37 0.25,2.21 1.16,10.12 1.4,12.14 0.01,0.08 0,0.16 -0.03,0.23l-1.37 -11.83c-0.02,-0.15 -0.1,-0.28 -0.22,-0.37 -0.12,-0.08 -0.27,-0.12 -0.42,-0.09 -0.67,0.14 -1.78,0.36 -2.43,0.49 -0.18,0.03 -0.31,0.15 -0.38,0.29zm-26.1 10.82c0.04,0.03 0.06,0.06 0.08,0.11 0.02,0.04 0.02,0.09 0.01,0.14 -0.05,-0.03 -0.08,-0.08 -0.09,-0.13 -0.01,-0.04 -0.01,-0.08 0,-0.12zm-7.39 -2.62c0,0.03 0.01,0.06 0.01,0.1l-0.05 2.62c-0.01,-0.03 -0.01,-0.06 -0.01,-0.09l0.05 -2.63zm26.93 1.82c-0.02,-0.06 -0.03,-0.12 -0.02,-0.19 0.1,-1.2 0.33,-3.95 0.42,-5.05 0.02,-0.26 0.24,-0.47 0.5,-0.49 0.45,-0.02 1.11,-0.05 1.59,-0.07 0.15,-0.01 0.29,0.04 0.4,0.15 0.1,0.1 0.16,0.25 0.16,0.39l-0.01 0.37c-0.03,-0.1 -0.08,-0.2 -0.15,-0.28 -0.11,-0.1 -0.25,-0.15 -0.4,-0.15 -0.48,0.03 -1.14,0.06 -1.59,0.08 -0.26,0.01 -0.48,0.22 -0.5,0.48l-0.4 4.76zm6.64 -2.22c0.02,0.09 0.04,0.19 0.07,0.3 0.2,0.72 0.85,0.82 1.44,0.75l0.07 0.4c0,0 0,0.01 0,0.02 -0.01,0.01 -0.02,0.02 -0.03,0.02 -0.6,0.08 -1.27,-0.01 -1.48,-0.74 -0.09,-0.29 -0.1,-0.54 -0.07,-0.75zm-26.43 0.14c0.09,0.32 0.37,0.61 0.76,0.75 0.57,0.2 1.18,-0.03 1.34,-0.51 0.01,-0.01 0.01,-0.02 0.01,-0.03 0.05,0.16 0.05,0.32 -0.01,0.48 -0.16,0.47 -0.77,0.7 -1.34,0.5 -0.57,-0.19 -0.9,-0.72 -0.76,-1.19zm9.09 -1.53l-0.03 -0.09c-0.08,-0.26 0.05,-0.54 0.3,-0.65 0.65,-0.27 1.86,-0.77 2.58,-1.06 0.14,-0.06 0.3,-0.06 0.44,0.01 0.14,0.07 0.24,0.2 0.28,0.35 0.2,0.82 0.56,2.27 0.78,3.17 0.02,0.07 0.08,0.12 0.15,0.11 0.07,0 0.13,-0.06 0.14,-0.13 0.18,-1.42 0.54,-4.34 0.65,-5.23 0.02,-0.17 0.12,-0.31 0.26,-0.4 0.53,-0.3 1.85,-1.06 2.76,-1.58 0.18,-0.1 0.4,-0.1 0.56,0.02 0.17,0.11 0.26,0.31 0.23,0.51l-0.03 0.25c-0.04,-0.1 -0.11,-0.18 -0.2,-0.24 -0.16,-0.12 -0.38,-0.12 -0.56,-0.02 -0.91,0.52 -2.23,1.27 -2.76,1.57 -0.14,0.08 -0.24,0.22 -0.26,0.39 -0.11,0.88 -0.47,3.77 -0.65,5.18 -0.01,0.07 -0.07,0.13 -0.14,0.13 -0.07,0 -0.13,-0.04 -0.15,-0.11 -0.22,-0.89 -0.58,-2.33 -0.78,-3.14 -0.04,-0.15 -0.14,-0.27 -0.28,-0.34 -0.14,-0.07 -0.3,-0.08 -0.44,-0.02 -0.72,0.29 -1.93,0.79 -2.58,1.06 -0.12,0.05 -0.22,0.14 -0.27,0.26zm-6.93 -1.6c0.12,0.26 -0.03,0.63 -0.23,0.95 -0.01,0.02 -0.04,0.03 -0.06,0.02 -0.55,-0.21 -1.26,-0.31 -2.14,-0.1 -1.16,0.28 -1.9,1.26 -1.99,2.29 -0.11,-1.2 0.66,-2.45 1.99,-2.77 0.88,-0.21 1.59,-0.11 2.14,0.1 0.02,0.01 0.05,0 0.06,-0.02 0.1,-0.15 0.18,-0.31 0.23,-0.47zm24.7 -1.59l0.04 0.19c0.04,0.24 -0.09,0.48 -0.32,0.58 -1.23,0.51 -2.44,1.51 -2.6,3.43 -0.01,0.11 -0.02,0.23 -0.02,0.35 -0.01,-0.26 -0.01,-0.53 0.02,-0.81 0.16,-1.94 1.37,-2.94 2.6,-3.47 0.13,-0.05 0.23,-0.15 0.28,-0.27zm-27.82 -0.69l-0.04 -0.15c-0.06,-0.24 0.06,-0.5 0.29,-0.61 0.84,-0.37 2.88,-1.04 4.85,0.13 1.15,0.68 1.76,2.02 1.69,3.64 -0.06,-1.39 -0.66,-2.53 -1.69,-3.13 -1.97,-1.16 -4.01,-0.5 -4.85,-0.13 -0.11,0.05 -0.2,0.14 -0.25,0.25zm35.4 0.82c0,0.03 0.01,0.06 0.02,0.09 0.15,0.98 -1.11,1.36 -1.81,1.49 -0.24,0.04 -0.41,0.24 -0.43,0.47 0,-0.15 0,-0.3 0,-0.43 0,-0.26 0.18,-0.48 0.43,-0.53 0.59,-0.11 1.59,-0.4 1.79,-1.09zm-43.77 -1c0.07,0.16 0.21,0.28 0.38,0.32 0.37,0.08 0.87,0.19 1.27,0.28 0.15,0.04 0.32,0 0.44,-0.1 0.13,-0.1 0.2,-0.25 0.21,-0.41 0.01,-0.74 0.03,-1.94 0.04,-2.64 0.01,-0.14 0.07,-0.28 0.17,-0.38 0.11,-0.09 0.25,-0.15 0.39,-0.14 0.84,0.04 2.43,0.1 3.28,0.14 0.14,0.01 0.28,0.07 0.38,0.18 0.09,0.11 0.14,0.26 0.12,0.41l-0.03 0.29c-0.02,-0.06 -0.05,-0.11 -0.09,-0.16 -0.1,-0.11 -0.24,-0.18 -0.38,-0.19 -0.85,-0.03 -2.44,-0.1 -3.28,-0.13 -0.14,-0.01 -0.28,0.04 -0.39,0.14 -0.1,0.1 -0.16,0.23 -0.17,0.37 -0.01,0.69 -0.03,1.88 -0.04,2.62 -0.01,0.15 -0.08,0.3 -0.21,0.4 -0.12,0.1 -0.29,0.14 -0.44,0.1 -0.4,-0.09 -0.9,-0.2 -1.27,-0.28 -0.27,-0.06 -0.45,-0.31 -0.41,-0.59l0.03 -0.23zm43.47 -3.54c0.05,0.2 0.18,0.41 0.41,0.6 0.89,0.75 2.95,1.67 2.77,3.86 -0.15,-1.82 -1.95,-2.64 -2.77,-3.32 -0.45,-0.38 -0.5,-0.79 -0.41,-1.14zm-13.91 3.1c-0.02,-0.09 -0.03,-0.17 -0.03,-0.26 0,-0.71 0.67,-1.29 1.5,-1.29 0.84,0 1.51,0.58 1.51,1.29 0,0.09 -0.01,0.17 -0.03,0.26 -0.14,-0.58 -0.75,-1.02 -1.48,-1.02 -0.72,0 -1.33,0.44 -1.47,1.02zm10.18 -3.43c-0.11,-1.5 0.74,-2.75 1.59,-3.42 0.23,-0.18 0.56,-0.13 0.73,0.1 0.43,0.54 1.19,1.53 1.58,2.03 0.13,0.18 0.15,0.42 0.03,0.61l0 0c-0.01,-0.02 -0.02,-0.03 -0.03,-0.05 -0.39,-0.5 -1.15,-1.48 -1.58,-2.02 -0.17,-0.22 -0.5,-0.27 -0.73,-0.09 -0.74,0.57 -1.49,1.6 -1.59,2.84z"/>
   </g>
  </g>
  <g id="_1841900890848">
   <path fill="#373435" d="M399.52 14.23l0 14.54 0 2.03c0.77,-0.57 6.72,-0.37 9.59,-0.37l3.01 0c4.96,0 8.78,1.1 11.48,3.74 2.69,2.63 4.04,6.42 4.04,11.38l0 17.49c0,4.95 -1.35,8.74 -4.04,11.38 -2.7,2.63 -6.52,3.95 -11.48,3.95l-9.02 0c-7.41,0.11 -13.64,-3.06 -15.16,-11.22l-0.01 -0.02c-0.02,-0.11 -0.04,-0.23 -0.06,-0.34l-0.03 -0.2 -0.03 -0.19 -0.04 -0.34 -0.02 -0.09 -0.04 -0.36 -0.01 -0.11c-0.01,-0.15 -0.03,-0.29 -0.04,-0.44 -0.01,-0.15 -0.02,-0.29 -0.03,-0.44l-0.01 -0.14 -0.02 -0.35 0 -0.12 -0.01 -0.39 -0.01 -0.1c0,-0.14 0,-0.28 0,-0.42l0 -0.06 0 -48.81c0,-1.32 0.66,-1.97 1.97,-1.97l8 0c1.31,0 1.97,0.66 1.97,1.97zm0.17 46.62l0 -19.09c0,-0.69 0.39,-1.04 1.16,-1.04l9.08 0c2.06,0 3.51,0.43 4.35,1.27 0.83,0.85 1.25,2.28 1.25,4.28l0 16.18c0,2 -0.42,3.43 -1.25,4.28 -0.84,0.84 -2.29,1.26 -4.35,1.26l-3.58 0c-4.44,0 -6.66,-2.38 -6.66,-7.14z"/>
   <path fill="#FF1344" fill-rule="nonzero" d="M250.3 78.37l-2.26 0c-4.95,0 -8.77,-1.32 -11.47,-3.95 -2.7,-2.64 -4.04,-6.43 -4.04,-11.38l0 -17.31c0,-4.95 1.34,-8.74 4.04,-11.37 2.7,-2.64 6.52,-3.95 11.47,-3.95l22.42 -0.01c1.38,0 2.07,0.71 2.07,2.02l0 43.62c0,1.31 -0.69,1.88 -2.07,1.97l-7.91 0.51c-1.31,0.09 -1.98,-0.66 -1.98,-1.97l0 -3.11 -0.37 0c-0.69,1.7 -2.6,2.81 -4.35,3.66 -1.76,0.84 -3.61,1.27 -5.55,1.27zm10.27 -17.34l0 -19.09c0,-0.69 -0.37,-1.02 -1.12,-1.03l-9.53 -0.16c-2,-0.03 -3.41,0.42 -4.23,1.27 -0.81,0.85 -1.22,2.27 -1.22,4.28l0 16.17c0,2.01 0.41,3.44 1.22,4.28 0.82,0.85 2.23,1.27 4.23,1.27l3.48 0c4.33,0 7.17,-2.22 7.17,-6.99z"/>
   <path fill="#373435" fill-rule="nonzero" d="M462.5 40.75l-3.76 0c-0.76,0 -1.27,-0.12 -1.55,-0.38 -0.29,-0.25 -0.43,-0.75 -0.43,-1.5l0 -6.49c0,-1.32 0.66,-1.97 1.98,-1.97l3.76 0c0.69,0 1.03,-0.35 1.03,-1.04l0 -8.93c0,-1.32 0.69,-1.98 2.07,-1.98l7.9 0c1.32,0 1.98,0.66 1.98,1.98l0 8.93c0,0.69 0.37,1.04 1.12,1.04l3.67 0c1.32,0 1.98,0.65 1.98,1.97l0 6.49c0,0.69 -0.14,1.17 -0.43,1.46 -0.28,0.28 -0.8,0.42 -1.55,0.42l-3.67 0c-0.75,0 -1.12,0.35 -1.12,1.03l0 20.79c0,1.94 0.44,3.34 1.31,4.18 0.88,0.85 2.32,1.27 4.33,1.27l3.76 0c1.32,0 1.98,0.66 1.98,1.98l0 6.49c0,0.69 -0.15,1.17 -0.43,1.45 -0.28,0.29 -0.8,0.43 -1.55,0.43l-5.74 0c-4.95,0 -8.79,-1.32 -11.52,-3.95 -2.72,-2.64 -4.09,-6.4 -4.09,-11.29l0 -21.35c0,-0.69 -0.34,-1.03 -1.03,-1.03z"/>
   <path fill="#373435" fill-rule="nonzero" d="M437.52 76.39l0 -44.01c0,-1.32 0.62,-1.97 1.88,-1.97l8.08 0c1.32,0 1.98,0.65 1.98,1.97l0 44.01c0,0.82 -0.14,1.35 -0.42,1.6 -0.29,0.25 -0.77,0.38 -1.46,0.38l-8.09 0c-1.32,0 -1.97,-0.66 -1.97,-1.98z"/>
   <path fill="#373435" fill-rule="nonzero" d="M437.52 22.32l0 -8.18c0,-1.26 0.62,-1.88 1.88,-1.88l8.18 0c1.25,0 1.88,0.59 1.88,1.78l0 8.28c0,1.25 -0.63,1.88 -1.88,1.88l-8.18 0c-1.26,0 -1.88,-0.63 -1.88,-1.88z"/>
   <path fill="#00F5A9" fill-rule="nonzero" d="M379.43 64.82l0 11.57c0,1.32 -0.6,1.98 -1.79,1.98l-8.37 0c-1.25,0 -1.88,-0.69 -1.88,-2.07l0 -11.38c0,-1.25 0.63,-1.88 1.88,-1.88l8.37 0c1.19,0 1.79,0.59 1.79,1.78z"/>
   <path fill="#00F5A9" fill-rule="nonzero" d="M379.43 32.19l0 11.57c0,1.32 -0.6,1.97 -1.79,1.97l-8.37 0c-1.25,0 -1.88,-0.72 -1.88,-2.16l0 -11.28c0,-1.26 0.63,-1.88 1.88,-1.88l8.37 0c1.19,0 1.79,0.59 1.79,1.78z"/>
   <path fill="#851DE8" fill-rule="nonzero" d="M330.8 78.37l-7.99 0c-1.32,0 -1.98,-0.66 -1.98,-1.98l0 -44.09c0,-1.32 0.66,-1.98 1.98,-1.98l7.99 0c1.32,0 1.97,0.66 1.97,1.98l0 44.09c0,1.32 -0.65,1.98 -1.97,1.98z"/>
   <path fill="#851DE8" fill-rule="nonzero" d="M348.29 30.41l9.12 0c0.76,0 1.26,0.22 1.51,0.65 0.25,0.44 0.15,1.01 -0.28,1.7l-12.51 20.59 0 0.38 13.07 22.29c0.38,0.62 0.41,1.17 0.09,1.64 -0.31,0.47 -0.87,0.71 -1.69,0.71l-8.09 0c-1.06,0 -1.83,-0.13 -2.3,-0.38 -0.47,-0.25 -0.96,-0.78 -1.46,-1.6l-11.94 -20.97c-0.56,-1 -0.56,-2.04 0,-3.1l11.28 -20.03c0.69,-1.26 1.76,-1.88 3.2,-1.88z"/>
   <path fill="#1371FF" fill-rule="nonzero" d="M312.74 70l0 6.49c0,0.69 -0.14,1.17 -0.42,1.45 -0.28,0.29 -0.8,0.43 -1.55,0.43l-14.01 0c-4.96,0 -8.78,-1.32 -11.48,-3.95 -2.69,-2.64 -4.04,-6.43 -4.04,-11.38l0 -17.31c0,-4.95 1.35,-8.74 4.04,-11.37 2.7,-2.64 6.52,-3.95 11.48,-3.95l14.01 0c1.32,0 1.97,0.65 1.97,1.97l0 6.49c0,0.69 -0.14,1.18 -0.42,1.46 -0.28,0.28 -0.8,0.42 -1.55,0.42l-12.13 0c-1.95,0 -3.34,0.42 -4.19,1.27 -0.84,0.85 -1.27,2.27 -1.27,4.28l0 16.17c0,2.01 0.43,3.44 1.27,4.28 0.85,0.85 2.24,1.27 4.19,1.27l12.13 0c1.32,0 1.97,0.66 1.97,1.98z"/>
   <path fill="#F57513" fill-rule="nonzero" d="M194.25 78.37l-7.99 0c-1.32,0 -1.98,-0.66 -1.98,-1.98l0 -62.16c0,-1.32 0.66,-1.97 1.98,-1.97l7.99 0c1.32,0 1.98,0.65 1.98,1.97l0 16.57c0.88,-0.55 6.2,-0.39 9.59,-0.39l3.01 0c9.84,0 15.51,4.91 15.51,15.12l0 30.66c0,1.32 -0.69,1.94 -2.07,1.98l-7.94 0.2c-1.31,0.03 -1.97,-0.66 -1.97,-1.98l0 -30.09c0,-3.78 -0.57,-5.55 -5.55,-5.55l-4.1 0c-4.82,0 -6.48,0.57 -6.48,7.15l0 28.49c0,1.32 -0.66,1.98 -1.98,1.98z"/>
  </g>
 </g>
</svg>
