<?xml version="1.0" encoding="UTF-8"?>
<!DOCTYPE svg PUBLIC "-//W3C//DTD SVG 1.1//EN" "http://www.w3.org/Graphics/SVG/1.1/DTD/svg11.dtd">
<!-- Creator: CorelDRAW 2017 -->
<svg xmlns="http://www.w3.org/2000/svg" xml:space="preserve" width="2480px" height="3508px" version="1.1" shape-rendering="geometricPrecision" text-rendering="geometricPrecision" image-rendering="optimizeQuality" fill-rule="evenodd" clip-rule="evenodd"
viewBox="0 0 2480 3507.43"
 xmlns:xlink="http://www.w3.org/1999/xlink">
 <g id="Camada_x0020_1">
  <metadata id="CorelCorpID_0Corel-Layer"/>
  <path fill="white" d="M1713.16 1297.76c28.5,0.74 56.23,13.66 74.65,35.73 0.64,0.76 0.8,0.98 1.46,1.79 25.38,32.61 57.52,63.64 59.68,106.11 0.12,2.49 0.12,6.07 0.12,6.07 0.59,0.46 1.16,0.92 1.75,1.38 42.72,34.11 72.01,83.65 70.33,139.47 -1.63,54.31 -30.3,107.23 -76.9,137.21 -23.26,14.97 -49.89,24.3 -77.15,29.08l2.59 22.55c2.05,26.04 -5.39,52.5 -21.61,72.52 -13.72,16.92 -32.92,29.05 -54.23,34.35 -29.84,6.83 -59.92,16.47 -88.3,9.34 -7.27,-1.83 -14.32,-4.52 -20.97,-7.99 -34.96,-3.37 -68.67,-16.96 -96.11,-38.61 0,0 -6,1.65 -11.93,2.58 -0.49,30.44 -15.52,60.07 -40.26,78.68 -15.71,11.36 -31.65,22.62 -47.49,33.93 -2.86,2.02 -3.17,2.18 -4.64,3.09 -8.73,5.47 -18.29,9.53 -28.3,12.1 0,0 -8.07,8.12 -16.84,14.12 -23.76,16.28 -54.24,19.39 -83.35,25.69l-3.6 0.77c-3.3,0.67 -4.21,0.81 -5.91,1.06 -20.51,2.99 -41.89,-0.89 -60.44,-10.45 0,0 -12.6,4.62 -22.61,7.38 -60.93,16.76 -130.39,9.53 -182.42,-30.09 -35.41,-26.97 -58.95,-68.59 -65.12,-112.73 0,0 -9.3,-4.89 -17.37,-8.91l-12.95 -6.48c-3.73,-2.05 -7.38,-4.27 -10.89,-6.72 -2.7,2.27 -3.06,2.49 -4.49,3.56 -18.82,14.05 -42.27,19.95 -66.15,20.03 -17.26,0.05 -34.52,-0.02 -51.78,-0.02 -3.29,-0.04 -3.61,-0.08 -5.22,-0.18 -10.14,-0.61 -20.16,-2.83 -29.68,-6.52 0,0 -6.98,9.71 -14.63,16.75 -19.67,18.09 -46.58,27.88 -73.6,26.31 -21.1,-1.55 -42.3,-3.31 -63.47,-4.99l-4.55 -0.37c-4.39,-0.4 -5.99,-0.66 -8.71,-1.15 -47.06,-8.41 -85.23,-53.98 -82.17,-103.79 0.6,-9.79 1.95,-19.63 2.98,-29.46 13.41,-126.92 28.07,-253.61 42.01,-379.79 0,0 2.58,-17.52 8.93,-30.81 17.93,-37.53 60.33,-61.41 102.53,-56.38 27.65,3.8 54.93,7.63 82.78,11.92l2.83 -5.4 -4.98 -5.32 -5.61 -8.56c-5.66,-13.08 -7.8,-27.35 -9.42,-41.38 -1.95,-16.95 -3.16,-34 -3.57,-51.03l-0.74 -0.78 -9.83 -5.52c-2.87,-2.42 -5.98,-4.58 -8.61,-7.26 -10.56,-10.78 -16.74,-25.56 -17,-40.65 -0.08,-5.05 0.67,-10.19 1.52,-14.83 14.69,-80.4 34.68,-160.73 68,-234.46 11.47,-25.38 24.59,-50.42 43,-71.17 33.43,-37.66 77.7,-64.26 122.33,-87.81 80.5,-42.47 167.05,-74.57 255.26,-95.64 61.59,-14.71 126.94,-25.55 186.87,-4.62 24.75,8.65 47.79,21.78 68.53,37.89l8.11 -0.38c9.31,1.22 11.88,0.93 20.65,4.61 3.26,1.38 6.24,3.32 9.37,4.98 0.49,0.31 0.49,0.31 0.97,0.64 21.93,14.8 40.41,35.17 53,58.49 8.14,0.32 16.24,1.51 24.2,3.37l1.31 0.32 10.48 3.63c3.21,1.83 6.6,3.38 9.63,5.51 6.07,4.27 11.29,9.65 15.39,15.84 2.04,3.09 3.49,6.52 5.23,9.78 0,0 7.38,4.67 13,8.77 37.16,27.15 59.67,71.46 67.64,117.22 12.05,69.26 4.1,142.04 -10.01,209.53 0,0 -1.53,6.57 -3.3,10.9 -3.49,8.5 -5.02,9.6 -10.24,16.3 -0.14,1.1 -0.29,2.2 -0.43,3.29 -2.33,17.24 -5.96,34.36 -10.77,51.02 0,0 4.02,12.59 7.11,24.9 6.2,24.74 8.47,50.44 6.78,75.88 -0.38,5.72 -0.97,11.41 -1.74,17.11 0,0 8.75,10.69 13.17,19.04 0,0 13.64,-14.6 24.58,-22.53 17.17,-12.47 38,-19.78 59.41,-19.84 0.96,0.01 0.96,0.01 1.91,0.03zm-113.33 588.45c0,0 2.37,0.02 0.5,0 -0.16,0 -0.66,-0.06 -0.5,0zm-711.26 -43.99l0.43 0.04c0,0 -1.29,-0.17 -0.43,-0.04zm27.15 -23.54l-0.07 0.81 0.95 -4.76c-0.29,1.31 -0.58,2.63 -0.88,3.95zm2.93 -11.04c-0.2,0.59 -0.45,1.29 -0.78,2.29 0.21,-0.54 0.53,-1.35 0.88,-2.23l-0.1 -0.06z"/>
  <path fill="#1F0933" d="M1256.33 615.28c52.32,0.24 103.9,17.98 145.98,49.31l2.81 -0.13c12.76,0.51 25.13,4.36 36.59,10.76 1.29,0.7 2.09,1.19 2.09,1.19 22.22,14.55 40.99,34.48 54.77,57.33 0,0 17.96,2.93 20.16,3.51 0.44,0.13 0.89,0.27 1.35,0.4l10.47 3.63c15.6,7.06 28.86,19.09 36.63,34.68 0,0 7.94,5.18 14.23,10.08 39.44,30.69 62.64,80.08 70.43,128.67 10.76,67.1 4.02,136.04 -9.62,203.48 -2.6,12.85 -6.36,25.43 -15.14,36.47 0,0 -2.48,16.6 -5.33,29.54 -1.28,5.8 -2.7,11.56 -4.26,17.29l-0.41 1.48c11.27,36.94 16.39,75.04 12.24,113.28l0.27 1.07c24.02,-22.26 55.52,-36.29 89.29,-33.82 34.18,2.5 65.15,22.07 86.56,48.79 26.52,32.93 55.5,66.13 57.98,107.79 0,0 6.27,5.55 11.38,10.4 33.41,31.77 56.92,74.66 60.46,120.55 5.25,68.26 -32.28,138.39 -92.75,172.49 -18.53,10.46 -38.71,17.84 -59.41,22.66l1.05 9.59c2.42,31.73 -7.51,64.31 -28.97,87.92 -16.32,17.95 -38.53,29.87 -62.18,35.44 -34.83,8.27 -70.28,18.18 -106.35,3.23 -2.61,-1.08 -6.23,-2.81 -6.23,-2.81 -32.43,-3.68 -63.91,-15.37 -90.79,-33.88 -4.58,28.7 -20.93,55.97 -44.71,74.03 -16.65,12.03 -33.23,24.19 -50,35.68 -9.5,6.45 -20.1,11.32 -31.19,14.65 0,0 -8.64,7.76 -16.03,12.88 -25.18,17.47 -57.66,21.62 -87.64,27.94l-5.03 1.1c-23.53,4.73 -48.21,1.82 -69.95,-7.83 0,0 -9.71,3.27 -18.12,5.59 -75.63,20.9 -163.57,5.76 -218.1,-53.54 -23.79,-25.89 -39.86,-58.42 -46.42,-93.44l-0.06 -0.33c-4.59,-2.37 -10.7,-5.44 -10.7,-5.44l-13.21 -6.61c-2.08,-1.15 -2.17,-2.62 -6.22,-0.02 -32.2,20.4 -73.21,18.6 -113.86,18.54l-6.54 -0.01c-10.05,-0.1 -20.04,-1.51 -29.7,-4.22 0,0 -4.95,5.82 -9.48,10.05 -22.52,21 -53.83,32.23 -84.79,30.51 -21.28,-1.57 -42.47,-3.31 -63.7,-5l-4.65 -0.38c-58.65,-5.5 -108.31,-60.97 -104.01,-122.27 1.77,-25.19 5.27,-50.42 8.01,-75.75 11.97,-110.63 24.69,-221.61 36.96,-332.55 3.15,-20.54 10.86,-40.81 24.27,-57.28 24.55,-30.12 64.65,-46.97 103.43,-42.41 19.01,2.62 38.06,5.28 57.08,8.06 0,0 1.34,1.49 -0.04,-2.48 -8.96,-26.24 -10,-54.8 -11.13,-82.39l-3.4 -2.18 -2.22 -1.54c-0.31,-0.25 -0.61,-0.51 -0.92,-0.75 -5.99,-4.82 -11.66,-10.04 -16.08,-16.26 -12,-16.88 -15.82,-38.32 -12.06,-59.44 15.46,-84.32 36.2,-168.14 72.98,-246.38 13.39,-28.46 30,-55.55 52.57,-78.09 37.15,-37.12 84.19,-63.63 130.68,-87.19 85.8,-43.48 176.85,-75.7 271.36,-95.27 28.65,-5.93 57.82,-10.19 87.01,-10.37 0.76,0 1.53,0 2.31,0zm-382.6 1220.99c0,0 40.62,19.6 46.97,22.91 9.2,4.8 9.2,12.9 10.86,21.12 0.69,3.44 1.51,6.85 2.43,10.23 13.37,49.08 50.69,90.36 101.77,108.33 46.83,16.48 99.46,12.4 144.98,-4.18l3.88 -0.84c7.58,0.47 14.5,5.09 22.11,7.45 22.69,7.06 46.96,1.21 70.81,-3.51 24.55,-4.89 48.41,-11.54 68,-30.86 0,0 5.74,-3.5 9.89,-4.73 20,-6.01 36.83,-20.53 54.66,-33.24 12.12,-8.68 24.65,-16.94 33.62,-28.49 11.33,-14.6 17.94,-32.87 18.31,-51.4l0.96 -4.94c2.26,-3.75 2.49,-5.25 6.51,-7.48 4.53,-2.52 9.89,-2.5 14.95,-3.84 0,0 4.9,-1.22 9.09,0.34 5.02,1.87 8.61,5.89 13.04,8.92 23.01,15.74 50.04,25.69 77.9,28.7l1.53 0.15 5.26 1.55c1.05,0.56 2.06,0.72 2.06,0.72l3.08 0.74 4.77 2.36c4.31,0.81 3.28,0.29 7.74,2.29 2.02,1.17 5.23,1.75 5.23,1.75 25.12,4.17 50.9,-4.56 76.31,-10.42 27.43,-6.9 50.95,-27.83 60.09,-54.35 4.04,-11.75 5.58,-24.3 4.71,-36.74l-2.58 -22.56 0.4 -5.42c1.61,-3.3 3.34,-6.69 6.41,-8.59 3.38,-2.09 7.34,-2.31 11.12,-3.08 35.12,-7.15 69.05,-22.89 93.63,-49.09 41.78,-44.53 55.01,-113.97 27.12,-169.81 -11.85,-23.73 -29.59,-44.28 -50.4,-60.69l-3.82 -3.82c-4.13,-8.45 -2.39,-18.64 -5.06,-28.9 -8.49,-32.65 -34.35,-57.13 -54.18,-82.53 -18.7,-23.2 -49.69,-35.61 -78.85,-31.09 -23.92,3.69 -44.38,19.05 -61.07,36.68 0,0 -2.48,2.37 -4.58,3.36 -5.08,2.36 -11.35,1.43 -15.51,-2.07 -4.05,-3.42 -5.94,-8.71 -9.1,-13.13 -2.3,-3.23 -5.95,-7.84 -5.95,-7.84 -5.55,-9.1 -1.44,-22.65 -1.07,-36.23 0.8,-29.07 -4.74,-57.92 -13.5,-85.91 0,0 -0.89,-6.7 0.58,-11.95 4.39,-15.89 7.7,-31.98 9.78,-48.28 0,0 0.9,-4.44 3.09,-7.96 0.08,-0.13 6.37,-7.74 8.53,-13.64 3.66,-9.94 4.92,-20.63 6.83,-31.14 11.21,-61.67 16.68,-125.35 4.17,-186.5 -8.51,-41.6 -29.8,-81.01 -65.32,-105.19 -3.1,-2.1 -7.65,-5.02 -7.65,-5.02 -7.17,-5.97 -9.98,-17.72 -20.35,-25.4 -2.23,-1.65 -4.74,-2.9 -7.2,-4.21 -3.5,-1.89 -0.92,-0.51 -0.92,-0.51l-8.57 -2.96c-0.6,-0.14 -0.6,-0.14 -1.21,-0.28 -6.84,-1.55 -13.81,-2.55 -20.82,-2.84l-4.86 -1.06c-5.97,-3.73 -9.34,-10.5 -13.08,-16.31 -11.05,-17.2 -25.6,-32.11 -42.55,-43.58 0,0 -6.04,-3.64 -10.09,-5.18 -4.35,-1.65 -9.08,-2.01 -13.78,-2.6l-6.44 0.38c-9.41,-1.22 -17.46,-9.21 -26.64,-15.19 -23.43,-15.24 -49.52,-26.38 -77.1,-31.13 -49.88,-8.61 -100.9,1.17 -148.97,12.67 -97.14,23.22 -190.68,58.84 -278.51,108.93 -44.09,25.15 -86.79,55.85 -112.76,99.42 -19.99,33.53 -34.07,70.37 -46.5,107.59 -17.38,52.1 -29.7,106.02 -39.57,159.75 -1.27,6.91 -2.18,13.98 -0.91,20.96 2.04,11.24 8.71,21.1 17.81,28.36 3.15,2.54 0.85,0.67 0.85,0.67 6.26,3.51 6.49,3.17 12.14,7.6 0,0 2.52,2.63 3.57,5.21 1.48,3.63 1.13,7.49 1.27,11.37 1.01,27.07 1.35,55.18 10.97,79.24l0.18 0.42c3.76,5.74 3.65,5.83 8.34,10.82l2.51 3.7c1.12,3.75 1.89,4.76 1.19,8.75 -0.26,1.47 -0.84,2.88 -1.45,4.24 -1.78,4.03 -6.2,11.84 -13.41,12.99 -5.87,0.94 -10.09,-0.84 -14.87,-1.56 -24.03,-3.62 -48.02,-6.99 -72.02,-10.29 -39.74,-4.67 -81.38,20.93 -92.47,61.97 -1.1,4.08 -2,8.2 -2.7,12.36l-0.06 0.36c-14.01,126.7 -28.54,254.88 -42.16,381.3 -0.41,3.7 -0.85,7.4 -1.26,11.11 -1.55,13.8 -2.44,27.9 1.16,41.23 9.14,33.79 39.48,60.84 75.01,64.17 21.28,1.7 42.57,3.44 63.88,5.05l3.82 0.28c29.2,1.62 57.79,-12.87 75.47,-37.01 0,0 1.83,-2.27 3.43,-3.4 7.77,-5.51 18.37,0.8 29.71,2.78 21.13,3.71 45.4,1.69 67.82,1.24 19.51,-0.49 39.2,-5.36 55.02,-17.13 2.28,-1.69 3.87,-3.08 3.87,-3.08l4.06 -2.38 4.61 -0.96z"/>
  <path fill="#1371FF" d="M1205.09 1253.69c22.97,-81.47 109.96,-142.84 195.14,-124.67 105.26,22.45 142.43,86.21 143.67,149.97 1.22,63.75 -34.03,136.76 -88.8,160.08 -54.78,23.31 -117.91,8.96 -117.91,8.96 0,0 -123.41,-25.84 -136.83,-134.14 -0.58,-4.73 -0.94,-9.44 -1.07,-14.11l-57.69 -10.68 0.51 -35.41 62.98 0zm-271.14 173.44c0,0 -123.42,-25.82 -136.83,-134.14 -13.42,-108.31 94.61,-207.31 199.87,-184.86 105.25,22.44 142.44,86.21 143.66,149.96 1.22,63.76 -34.03,136.77 -88.8,160.08 -54.77,23.33 -117.9,8.96 -117.9,8.96zm438.09 -243.09c65.34,0 118.38,53.05 118.38,118.39 0,65.34 -53.04,118.38 -118.38,118.38 -65.34,0 -118.4,-53.04 -118.4,-118.38 0,-65.34 53.06,-118.39 118.4,-118.39zm-403.25 -20.9c65.34,0 118.38,53.06 118.38,118.4 0,65.34 -53.04,118.38 -118.38,118.38 -65.34,0 -118.39,-53.04 -118.39,-118.38 0,-65.34 53.05,-118.4 118.39,-118.4z"/>
  <path fill="white" d="M986.08 1459.93c-4.28,-7.98 -5.56,-12.64 -5.56,-12.64 0,0 53,3.01 106.65,-37.84 53.67,-40.87 53.5,-113.97 53.5,-113.97l58.2 0c0,0 16,84.37 54.77,111.86 38.78,27.5 93.71,57.42 93.71,57.42 0,0 -4.27,4.05 -11.88,10.52l0 0c0,0 -22.8,26.64 -56.54,47.7 -33.73,21.07 -120.92,47 -120.92,47 0,0 -1.48,-0.36 -4.18,-1.12 -33.35,4.93 -55.6,-6.12 -99.06,-37.14 -41.63,-29.71 -60.56,-56.7 -68.69,-71.79l0 0 0 0zm453.33 -22.67c0,0 90.92,14.7 114.26,-22.94 23.33,-37.63 3.43,-55.53 -9.75,-58.74 -13.17,-3.19 -12.42,7.78 -46.64,34.94 -34.21,27.16 -57.87,46.74 -57.87,46.74zm-663.74 -71.45c-7.72,-26.18 7.32,-38.99 19.39,-35.25 0.82,0.26 1.61,0.53 2.37,0.82 7.22,-1.43 13.4,-0.55 13.4,-0.55 0,0 4.88,22.28 22.67,49.5 6.8,10.39 12.65,19.68 17.29,27.19 2.87,0.46 5.41,0.86 7.46,1.26 3.91,0.77 1.53,2.51 -4.44,3.65 5.64,9.21 8.81,14.7 8.81,14.7 -38.96,1.06 -82.36,-27.85 -86.95,-61.32zm595.91 -189.17c65.59,0 118.84,53.25 118.84,118.84 0,65.6 -53.25,118.84 -118.84,118.84 -65.6,0 -118.84,-53.24 -118.84,-118.84 0,-65.59 53.24,-118.84 118.84,-118.84zm-403.25 -17.9c65.59,0 118.84,53.25 118.84,118.85 0,65.59 -53.25,118.84 -118.84,118.84 -65.59,0 -118.84,-53.25 -118.84,-118.84 0,-65.6 53.25,-118.85 118.84,-118.85zm184.75 94.95c0,0 -40.88,-57.37 10.86,-77.05 51.74,-19.7 89.81,-29.38 66.96,7.4 -22.85,36.78 -36.4,84.18 -36.4,84.18l-41.42 -14.53zm-355.07 -3.74l-31.47 -2.09 5.83 -142.94 -39.3 20.89c0,0 27.35,-204.32 128.1,-275.33 100.74,-71.01 307.16,-127.5 358.08,-139.74 50.93,-12.24 122.34,9.78 154.82,52.39 32.49,42.62 66.28,82.98 66.28,82.98 0,0 59,-12.14 88.96,16.02 29.95,28.15 45.29,68.65 43.66,122.27 -1.63,53.62 -14.56,98.98 -14.56,98.98l-14.49 -14.56 -26.17 128.24c0,0 -32.02,-41.14 -39.65,-65.64 -7.62,-24.5 -188.28,-2.84 -199.17,7.29 -10.89,10.11 -111.37,29.52 -129.32,37.93 -17.95,8.41 -36.81,-9.05 -82.43,-42.58 -45.61,-33.53 -110.05,-33.39 -179.05,-8.25 -68.99,25.14 -89.23,110.9 -90.12,124.14z"/>
  <path fill="#F2AE9C" d="M986.84 1443.35c0,0 71.45,80.84 166.24,113.11 0,0 89.06,-10.21 181.17,-84.95 92.1,-74.73 -23.84,-32.83 -50.8,-44.34 -26.95,-11.51 -65.42,-39.46 -75.84,-72.13 -10.42,-32.67 -13.11,-54.77 -13.11,-54.77l-16.01 -4.79 -14.55 9.16c-17.85,15.08 -32.35,30.49 0,50.4l36.39 11.24c0,0 -49.34,-5.94 -53.85,19.87 -4.53,25.82 17.31,38.5 43.66,37.85 26.35,-0.65 -18.45,26.05 -43.66,8.74 -25.24,-17.33 -36.63,-46.03 -36.63,-46.03l-123.01 56.64zm188.74 44.69c0,0 -20.66,-0.8 -30.56,-5.82 -9.91,-5 7.82,-1.35 26.22,-1.46 18.4,-0.1 23.88,6.85 4.34,7.28zm350.82 -121.76c0,0 29.85,1.49 21.83,26.73 -8.03,25.26 -27.25,44.86 -57.81,44.08 -30.56,-0.76 -6.28,-21.31 11.5,-43.65 17.79,-22.36 24.48,-27.16 24.48,-27.16zm-714.1 -30.14c0,0 -22.78,0.39 -23.92,22.35 -1.13,21.97 20.65,43.89 40.77,50.29 20.11,6.39 38.78,13.28 29.1,-5.16 -9.66,-18.44 -45.95,-67.48 -45.95,-67.48zm358.94 -79.82c0,0 -29.9,-5.32 -27.68,-39.02 2.21,-33.7 72.61,-66.4 75.69,-33.49 3.09,32.93 -23.92,74.67 -48.01,72.51z"/>
  <path fill="#1F0933" d="M1077.71 1150.89c-26.34,-19.45 -64.07,-41.13 -105.9,-45.97 -79.45,-9.19 -140.91,56.02 -170.52,129.89 0,0 -19.12,-277.53 205.44,-400.34 0,0 -87.73,25.94 -156.33,120.81 -68.6,94.87 -82.4,136.84 -82.4,136.84 0,0 34.06,-147.67 110.63,-209.61 76.58,-61.96 226.07,-105.75 304.36,-123.74 78.29,-17.99 194.46,-9.04 231.32,149.93 0,0 58.42,-35.23 93.16,-17.47 34.74,17.76 36.45,146.86 36.45,146.86l-17.3 -7.58c0,0 -14.83,-29.86 -27.88,-44.65 0,0 34.82,71.29 -8.32,177.28 0,0 -54.71,-35 -73.2,-37.33 -6.78,-0.85 -12.77,-6.95 -19.78,-13.62 28.92,3.59 43.78,17.41 28.51,6.45 -22.83,-16.4 -23.92,-33.81 -23.92,-33.81l-81.54 -7.17c-147.73,77.19 -238.52,66.04 -238.52,66.04l-4.26 7.19 0 0zm168.23 -3.23c-5.84,2.27 -12.28,4.62 -19.41,7.05 -77.52,26.34 -110.66,29.33 -110.66,29.33 0,0 -8.28,-8.97 -22.57,-20.9 14.33,7.68 39.29,14.24 77.94,3.28 27.4,-7.78 51.66,-13.37 74.7,-18.76zm196.98 -132.56c2.52,2.09 4.18,4.45 4.86,7.17 3.74,14.75 1.29,50.9 1.29,50.9 0,0 5.99,-37.26 10.37,-50.9 4.35,-13.66 -5.83,-18.95 -5.83,-18.95 -39.1,-17.68 -107.57,-29.2 -125.18,-30.68 -17.62,-1.49 -20.38,14.67 -20.38,14.67l-0.18 84.46 16.18 -1.49c0,0 0.86,-2.56 1.82,-8.38l7.49 -4.62 13.99 -35.01c0,0 7.4,21.7 37.84,25.85 30.46,4.13 40.76,-10.03 40.76,-10.03l0 28.44c0,0 10.16,-4.25 11.65,-28.44 0.88,-14.38 6.99,-19.69 5.32,-22.99zm-417.18 28.88c-0.86,7.81 -1.55,13.19 -1.55,13.19l19.78 0.95c0,0 4.64,-46.49 4.97,-61.71 0.33,-15.23 2.21,-31.05 -18.92,-32.39 -34.23,-2.17 -105.7,7.49 -122.27,14.96 -16.58,7.47 -13.11,17.43 -13.11,17.43l9.53 70.12c0,0 7.82,-5.36 12.46,-17.18 3.7,12.28 7.25,10.73 7.25,10.73l2.88 -11.96 2.82 -31.7c0,0 11.66,10.19 42.23,10.19 30.57,0 43.66,-8.74 43.66,-8.74l4.27 27.41c0,0 3.18,1.7 6,-1.3zm307.54 -43.26c-1.56,5.95 -3.31,16.72 -4.85,27.64l0 0c0.21,-13.18 0.89,-22.2 4.85,-27.64zm12.78 -6.22c6.08,-0.65 14.3,0.04 25.4,1.91 29.36,4.94 55.09,8.65 67.95,16.25 -2.83,-1.1 -7.52,-2.17 -14.92,-3.72 -22.7,-4.72 -59.16,-15.18 -78.43,-14.44zm-418.84 -1.03c-2.39,0.63 -4.5,0.93 -6.35,1.11 1.68,-0.42 3.77,-0.77 6.35,-1.11zm33.05 -2.89c1.38,-0.12 2.79,-0.24 4.24,-0.36 64.24,-5.43 61.74,-14.77 64.04,-0.08l0 0c-5.97,-0.23 -40.53,-0.56 -68.28,0.44z"/>
  <path fill="#1F0933" d="M790.26 1320.61c-4.77,-17.63 -7,-36.27 -6.26,-55.47l0.03 -0.97c-19.16,2.76 -30.26,4.18 -30.26,4.18 -7.76,-50.83 -7.56,-95.81 -1.94,-135.46 -14.69,6.14 -31.93,13.21 -40.1,16.09 0,0 30.98,-180.05 86.9,-266.17 55.93,-86.12 329.46,-190.44 455.6,-193.78 84.06,-2.22 140.12,62.58 168.16,106.04 -2.44,-20.9 -7.76,-43.62 -19.03,-56.62 0,0 49.24,31.57 43.19,83.23 0,0 19.62,-21.13 54.62,-12.48 0,0 -25.13,2.4 -24.17,17.09l0 0c24.6,-1.03 57.95,6.33 82.97,44.89 44.88,69.16 8.34,238.77 8.34,238.77l-15.11 -16.53c2.04,10.54 3.04,21.52 2.32,32.51 -2.3,35.23 -11.21,64.21 -17.38,80.62 12.98,26.56 19.77,56.6 18.56,88.18 -0.72,18.8 -4.23,36.84 -10.1,53.74 17.5,4.33 42.97,17.93 25.99,60.72 -21.2,53.4 -80.06,59.24 -128.75,48.96 -20.84,8.84 -43.59,13.95 -67.38,14.53 -136.15,109.55 -220.48,115.75 -220.48,115.75 -87.34,-20.56 -174.61,-99.37 -208.09,-132.31 -22.36,-2.54 -43.46,-9.04 -62.62,-18.78 -48.54,5.56 -104.37,-5.58 -121,-59.11 -12.55,-40.33 8.68,-53.43 25.99,-57.62zm481.51 122.8c-45.46,-29.26 -77.11,-77.78 -83.81,-133.53l-13.32 -0.52 -1.33 34.71c21.06,7.48 32.01,24.62 32.01,24.62 0,0 -15.54,-2.88 -37.1,-5.58 -21.58,-2.7 -43.5,11.52 -33.21,42.43 10.29,30.91 82.1,11.88 82.1,11.88 -36.71,34.23 -93.64,25.51 -106.01,-8.42 -1.8,-4.96 -2.72,-9.98 -2.86,-14.93 -13.5,15.42 -29.53,28.56 -47.36,38.81 -1.24,0.69 -35.61,19.93 -63.89,21.27 0,0 38.74,47.43 84.98,74.01l0.01 0.01c28.32,17.68 58.29,30.88 69.66,35.66 3.4,0.95 5.23,1.32 5.23,1.32 29.14,-5.53 56.99,-16.71 81.92,-29.84l0 0c60.74,-29.79 89.64,-67.64 89.64,-67.64 -23.73,-4.88 -56.57,-24.2 -56.66,-24.26zm-109.04 63.62c-1.3,0.01 -2.62,-0.01 -3.98,-0.07 -36.28,-1.39 -42.88,-32.23 -42.88,-32.23 0,0 10.25,17.86 43.38,19.14 33.13,1.28 49.37,-6.84 49.37,-6.84 0,0 -10.37,16.27 -37.2,19.46 0.02,0.3 0.02,0.62 0,0.96 -0.28,9.56 -8.95,14.6 -8.68,4.04 0.05,-1.84 0.04,-3.3 -0.01,-4.46zm-85.02 -62.9c0,0 44.82,13.38 91.19,15.15 46.37,1.78 92.4,-16.28 92.4,-16.28 0,0 -31.93,36.07 -93.07,33.73 -61.12,-2.33 -89.95,-25.99 -90.52,-32.6zm461.63 -77.85c-3.42,7.26 -7.28,14.25 -11.57,20.94 2.69,-0.51 5.36,-0.53 7.9,0.16 17.58,4.67 1.19,5.27 -13.64,14.91 -3.61,2.35 -7.35,4.84 -10.87,7.06 -7.66,8.76 -16.14,16.8 -25.28,23.98 17.36,1.16 49.42,-0.92 62.28,-29.45 12.19,-27.04 1.82,-35.7 -8.82,-37.6zm-743.09 -27.41c-8.96,2.78 -15.92,11.93 -7.23,35.94 9.72,26.87 37.1,32.98 55.03,33.97 -10.9,-9.99 -20.6,-21.25 -28.86,-33.55l0 0c-14.04,-10.76 -30.33,-12.6 -12.46,-15.91 0.91,-0.18 1.83,-0.26 2.76,-0.27 -3.47,-6.51 -6.57,-13.24 -9.24,-20.18zm579.54 -156.95c62.49,2.4 111.28,55.07 108.89,117.55 -2.4,62.5 -55.07,111.28 -117.55,108.89 -62.5,-2.39 -111.28,-55.07 -108.89,-117.56 2.39,-62.48 55.07,-111.27 117.55,-108.88zm131.18 191.44c13.31,-22.08 21.39,-47.74 22.44,-75.31 3.34,-87.1 -64.68,-160.54 -151.79,-163.87 -87.11,-3.34 -160.54,64.68 -163.88,151.78 -1.78,46.83 17.03,89.71 48.36,119.86 -18.36,-19.81 -32.55,-45.19 -40.55,-75.26 0,0 10.99,13.11 20.63,11.18 0,0 12.4,23.53 36.71,45.31 -25.94,-25.31 -41.48,-61.08 -39.99,-100.12 2.81,-73.23 64.53,-130.4 137.75,-127.59 73.24,2.8 130.41,64.53 127.61,137.75 -1.8,46.9 -27.76,87.21 -65.43,109.4 53.76,-26.35 68,-76.09 69,-114.94 0,0 9.15,2.05 13.06,-15.32 0,0 7.62,49.99 -13.92,97.13zm-436.67 24.2c32.94,-27.67 54.55,-68.6 56.33,-114.93 3.33,-87.11 -64.69,-160.54 -151.79,-163.87 -87.12,-3.34 -160.55,64.67 -163.89,151.78 -1.29,33.77 8.14,65.48 25.26,91.86 -24.79,-48.66 -16.55,-102.6 -16.55,-102.6 3.9,17.37 13.06,15.32 13.06,15.32 0.92,36.18 13.33,81.82 58.47,109.19 -34.83,-25.15 -56.84,-66.69 -55.08,-112.81 2.81,-73.23 64.53,-130.39 137.75,-127.6 73.23,2.81 130.42,64.54 127.61,137.77 -1.2,31.37 -13.22,59.78 -32.31,81.8 19.35,-19.47 29.2,-38.16 29.2,-38.16 9.65,1.93 20.62,-11.18 20.62,-11.18 -9.15,34.37 -26.37,62.61 -48.68,83.43zm-97.29 -231.06c62.48,2.38 111.27,55.06 108.88,117.55 -2.4,62.49 -55.06,111.28 -117.55,108.88 -62.5,-2.38 -111.28,-55.06 -108.89,-117.55 2.39,-62.48 55.07,-111.28 117.56,-108.88zm191.81 148.8c-1.24,-3.51 -7.01,-3.14 -9.01,0.68 -2.21,4.21 -8.44,24.31 -1.21,23.91 3.32,-0.19 5.88,-4.55 7.67,-9.22 0.88,-4.47 1.78,-9.6 2.55,-15.37zm22.62 -44.8l-33.41 -1.29c0.06,3.34 0.01,6.71 -0.12,10.1 -0.11,2.86 -0.28,5.7 -0.52,8.52l33.27 1.27c-0.03,-2.83 0.01,-5.67 0.13,-8.54 0.13,-3.38 0.35,-6.74 0.65,-10.06zm10.56 -46.79c4.7,-17.8 21.44,-42.54 17.87,-46.4 -3.77,-4.09 -47.1,11.61 -58.72,18.2 -11.61,6.59 -8.78,48.98 1.57,48.98 6.01,0 8.96,-4.12 10.38,-7.57l1.12 -29.6c0,0 6.07,3.41 6.56,35.05 4.19,3.14 12.71,0.63 17.56,-7.63 1.1,-3.72 2.32,-7.4 3.66,-11.03zm318.91 -50.84c4.87,-14.58 10.54,-38.54 10.94,-71.76 0.72,-58.81 -8.38,-85.22 -8.38,-85.22 0,0 7.32,10.11 15.39,26.03l19.43 15.5c0,0 7.11,-49.55 1.55,-116.48 -5.55,-66.93 -66.9,-115.81 -131.43,-67.67 0,0 -29.65,-102.83 -109.83,-136.76 -80.2,-33.95 -186.24,0.01 -341.93,65.56 -155.68,65.55 -174.7,144.68 -200.92,225.38 -13.13,40.41 -25.01,82.57 -25.01,82.57l10.1 -4.97c36.68,-168.02 172.21,-228.9 172.21,-228.9 -172.46,146.72 -143.87,358.66 -143.87,358.66l2.6 -0.49c18.07,-86.82 96.73,-150.57 188.27,-147.05 59.82,2.29 111.95,32.78 144.08,78.16 20.75,-4.81 39.88,-9.46 56.41,-13.77 50.32,-13.09 99.1,-39.93 139.2,-67.07 -3.55,-1.28 -6.41,-4.27 -7.47,-7.85 -0.39,-1.34 -0.59,-2.04 -0.43,-4.53l7.59 -76.36c0.08,-0.66 0.09,-0.82 0.24,-1.47 0.55,-2.41 1.88,-4.64 3.73,-6.28 2.95,-2.6 7.89,-2.97 7.89,-2.97 4.37,-0.12 8.74,-0.04 13.1,0.1 0.73,0.03 1.44,0.06 2.16,0.09 35.91,1.59 71.66,8.7 104.96,22.5 1.01,0.41 1.5,0.41 3.48,1.56 6.07,3.55 5.78,12.03 5.78,12.03l-9.78 65.91c0,0 -0.08,0.43 -0.14,0.76l-0.46 1.57c-0.43,1.3 0.13,0.31 -1.32,2.61l-1.01 1.29c-0.91,1.03 0,0.33 -2.21,1.91l-1.42 0.81c-1.24,0.64 -0.13,0.31 -2.78,0.96l-1.62 0.21c-1.37,0.13 -0.23,0.24 -2.92,-0.16 0,0 -1.64,-0.33 -2.78,-0.53 -12.88,-2.47 -25.86,-4.61 -38.89,-6.35 2.63,4.46 5.81,9.39 9.54,14.46 47,7.46 87.86,32.52 115.95,68.01zm-498.65 -199.97c4.36,0.19 8.72,0.43 13.06,0.89 0,0 4.9,0.75 7.65,3.57 1.73,1.78 2.88,4.1 3.24,6.54 0.09,0.66 0.08,0.83 0.12,1.49l1.73 76.72c-0.03,2.49 -0.27,3.18 -0.77,4.48 -1.62,4.26 -5.84,7.42 -10.48,7.66 -2.37,0.13 -2.88,-0.11 -4.07,-0.2 -36.22,-2.43 -72.73,-0.91 -108.68,3.15 -1.16,0.13 -2.82,0.33 -2.82,0.33 -2.7,0.19 -1.56,0.16 -2.92,-0.07l-1.6 -0.34c-2.59,-0.84 -1.52,-0.44 -2.69,-1.15l-1.35 -0.93c-2.08,-1.74 -1.25,-0.96 -2.06,-2.08l-0.92 -1.36c-1.27,-2.4 -0.78,-1.37 -1.12,-2.69l-0.34 -1.61c-0.03,-0.33 -0.07,-0.77 -0.07,-0.77l-4.72 -66.47c0,0 0.36,-8.47 6.69,-11.54 2.05,-1 2.55,-0.96 3.58,-1.3 34.26,-11.21 70.45,-15.57 106.38,-14.4 0.72,0.02 1.43,0.06 2.16,0.08zm322.58 36.15c31.01,1.28 61.85,7.04 90.98,18.11l-5.96 40.07c-30.39,-5.26 -61.19,-8.89 -92.08,-9.93l-0.42 -0.02 4.65 -48.34c0.94,0.04 1.89,0.08 2.83,0.11zm-324.87 -12.45c-31.02,-1.08 -62.2,2.3 -92.09,11.11l2.88 40.41c30.69,-2.93 61.68,-4.2 92.56,-2.87l0.42 0.03 -0.94 -48.55c-0.94,-0.05 -1.89,-0.09 -2.83,-0.13z"/>
  <path fill="#1F0933" d="M1376.72 1222.88c38.1,1.47 67.87,33.59 66.4,71.69 -1.46,38.12 -33.58,67.88 -71.69,66.41 -38.11,-1.45 -67.87,-33.58 -66.4,-71.69 1.46,-38.11 33.58,-67.87 71.69,-66.41zm-402.79 -15.42c38.11,1.45 67.87,33.58 66.41,71.69 -1.47,38.12 -33.59,67.87 -71.7,66.41 -38.11,-1.45 -67.87,-33.58 -66.4,-71.7 1.46,-38.11 33.58,-67.86 71.69,-66.4zm428.67 102.42c8.03,0.32 14.32,7.09 14,15.12 -0.31,8.04 -7.08,14.33 -15.12,14.01 -8.03,-0.31 -14.32,-7.09 -14.01,-15.12 0.32,-8.03 7.1,-14.32 15.13,-14.01zm-402.79 -15.42c8.03,0.3 14.32,7.08 14,15.12 -0.31,8.04 -7.08,14.31 -15.12,14.01 -8.03,-0.31 -14.32,-7.09 -14.01,-15.12 0.32,-8.05 7.1,-14.32 15.13,-14.01zm363.52 -58.11c22.75,0.87 40.52,20.06 39.66,42.81 -0.87,22.77 -20.06,40.52 -42.82,39.66 -22.76,-0.87 -40.52,-20.05 -39.65,-42.81 0.87,-22.76 20.05,-40.53 42.81,-39.66zm-402.79 -15.42c22.76,0.87 40.53,20.05 39.66,42.81 -0.87,22.75 -20.06,40.52 -42.82,39.65 -22.76,-0.87 -40.52,-20.06 -39.65,-42.81 0.87,-22.76 20.05,-40.52 42.81,-39.65z"/>
  <path fill="#1F0933" d="M614.75 1362.71c1.36,0.05 2.68,0.15 4.02,0.32 26.98,3.7 53.92,7.75 80.87,11.64 20.53,3.07 36.7,23.48 33.65,45.11l-9.07 61.56c0,0 3.57,-5.08 7.66,-8.47 7.38,-6.11 17.02,-9.36 26.59,-9.14 27.09,0.97 54.16,2.29 81.23,3.45 21.48,1.05 40.01,21.19 37.84,43.75l-2.64 25.78c2.76,-3.04 9.62,-7.98 15.38,-10.44 45.54,-19.45 99.24,-20.37 142.77,6.47 26.43,16.28 44.29,44.89 50.52,75.94 6.91,34.56 0.66,70.95 -12.01,102.74l-0.15 0.39c0.55,-0.21 1.12,-0.41 1.67,-0.62 13.2,-4.77 26.98,-9.13 40.94,-10.38 2.79,-0.25 5.6,-0.19 8.38,0.14l-8.93 -29.5c0,0 -1.83,-6.63 -1.71,-12.39 0.3,-15.15 9.87,-29.6 24.14,-35.8 21.24,-8.94 42.58,-17.63 63.88,-26.44 13.19,-5.34 29.02,-3.1 40.31,5.99l3.48 -26.95c0,0 0.82,-5.59 2.59,-9.95 3.3,-8.14 9.38,-15.07 16.95,-19.5l68.04 -39.18c1.94,-1.1 2.5,-1.34 3.67,-1.85 20.23,-8.95 47.19,2.35 54.11,24.58 0.75,2.41 0.55,1.09 0.71,0.62 0.74,-2.05 0.92,-2.44 1.42,-3.58 7.96,-18.2 25.89,-31.38 45.67,-35.28 26.11,-5.14 55.47,5.98 69.24,28.58 14.25,23.39 8.05,56.27 -15.57,73.85 0,0 9.45,9.28 12.51,18.69 12.1,-16.47 28.56,-29.31 46.79,-38.61l0.1 -0.04c-4.14,-22.1 -8.32,-44.19 -12.5,-66.28 0,0 -1.12,-6.83 -0.31,-12.75 2.22,-16.1 15.07,-29.94 31.07,-33.48 20.14,-4.21 40.34,-8.16 60.52,-12.23 3.33,-0.65 6.72,-0.88 10.09,-0.7 4.22,-31.85 22.2,-62.1 47.57,-82.58 0,0 5.98,-4.58 11.65,-6.64 15.51,-5.63 34.13,-0.52 44.72,12.73 13.12,16.83 26.06,33.71 39.05,50.59 1.33,1.74 1.63,2.24 2.35,3.4 7.7,12.58 7.13,29.12 -0.32,42.17 -0.11,0.2 -0.22,0.4 -0.34,0.61 -0.7,1.37 -1.38,2.58 -0.83,3.18 7.42,7.98 18.02,13.16 27.71,20.49 25.51,19.27 46.99,45.75 50.74,77.97 3.92,33.65 -8.28,69.02 -32.64,92.07 -26.86,25.41 -65.68,35.45 -103.54,36.25 -8.75,0.19 -17.42,-1.84 -24.77,-6.72l10.41 90.6c0,0 0.6,7.09 -0.64,12.86 -3.14,14.59 -14.96,26.78 -29.77,30.38 -14.61,3.36 -29.27,6.55 -43.92,9.83 -11.3,2.44 -23.55,-1 -31.98,-9.1l-2.22 -0.15c-42.09,-0.08 -82.88,-21.99 -104.33,-58.45 0,0 -2.57,5.07 -5.67,8.71 -7.33,8.62 -18.38,13.8 -29.82,14.02 -15.49,0.1 -30.99,0 -46.48,0 -21.19,-0.15 -40.38,-19 -39.7,-41.03 0.01,-0.52 0.05,-1.05 0.08,-1.57 3.2,-41.63 6.93,-83.23 10.4,-124.84 1.17,-13.09 9.13,-25.35 20.81,-31.69 -0.25,-0.2 -0.49,-0.41 -0.74,-0.62 -8.67,-7.53 -15.21,-17.57 -18.17,-28.66l-27.83 205.69 46.93 53.61c0,0 5.1,6.32 7.34,12.39 5.89,16 0.19,35.44 -13.79,45.86 -15.46,11.2 -31.06,22.19 -46.58,33.28 -9.46,6.69 -21.8,8.99 -32.98,6.14 0,0 -1.52,5.38 -3.94,9.61 -5.42,9.48 -14.89,16.49 -25.61,19.03 -17.31,3.87 -34.67,7.52 -52,11.29 -19.28,4.06 -40.33,-7.77 -46.41,-27.18l-3.51 -11.44c-0.12,0.81 -0.19,1.17 -0.19,1.17 -2.41,13.89 -12.44,25.76 -25.83,30.89 -47.83,18.16 -104.78,16.86 -146.17,-13.92 -20.57,-15.29 -35.3,-37.95 -41.13,-63.1 -3.62,-15.58 -4.01,-31.81 -2.15,-47.77 0,0 0.97,-0.91 -0.71,-0.68 -12.99,1.7 -25.31,-4.93 -37.08,-10.79 -7.89,-3.95 -15.8,-7.89 -23.69,-11.85 0,0 -3.91,-2.12 -6.51,-4.37 -4.68,-4.07 -8.15,-9.52 -9.84,-15.47 -0.68,-2.38 -1.07,-1.73 -1.68,-1.96 -16.24,-6.29 -31.11,-16.21 -42.13,-29.67l-2.82 25.83c0,0 -0.88,6.77 -3.2,12.01 -6.15,13.82 -20.69,23.37 -35.92,23.65 -19.55,0.1 -39.09,0 -58.65,0 -20.88,-0.13 -39.99,-18.21 -39.72,-40.47l1.09 -58.93 -24 1.37 -14.82 100.68c-2.91,18.97 -20.87,34.51 -40.58,33.91 -0.48,-0.01 -0.96,-0.03 -1.44,-0.07 -22.3,-1.62 -44.58,-3.5 -66.87,-5.26 -20.31,-1.73 -37.8,-20.74 -36.54,-42.05 0.03,-0.49 0.07,-1 0.12,-1.5 14.03,-134.9 29.73,-269.62 44.59,-404.44 2.25,-19.25 19.52,-35.32 39.74,-35.36 0.49,0.01 0.49,0.01 0.98,0.02z"/>
  <path fill="#1371FF" d="M1126.96 1805.59c6.96,-1.2 11.7,-7.7 10.75,-14.69 -1.98,-14.5 -5.17,-37.81 -7.16,-52.22 -0.48,-3.47 -2.34,-6.61 -5.15,-8.71 -2.8,-2.1 -6.34,-2.99 -9.81,-2.46 -30.77,5.23 -105.36,25.8 -114.63,103.75 -11.16,93.98 80.58,124.96 154.27,96.34 6.13,-2.4 9.52,-8.96 7.92,-15.35 -2.21,-8.99 -5.42,-21.81 -7.78,-31.28 -1.73,-6.86 -8.58,-11.13 -15.48,-9.63 -21.8,4.65 -65.27,10.59 -69.26,-14.63 -5.61,-35.5 34.97,-47.36 56.33,-51.12z"/>
  <path fill="#851DE8" d="M1246.85 1708.5c0.42,1.71 2.01,2.88 3.77,2.77 1.76,-0.11 3.2,-1.44 3.42,-3.2 4.36,-35.1 13.3,-106.93 16.02,-128.82 0.51,-4.09 2.9,-7.69 6.46,-9.74 12.97,-7.47 45.45,-26.17 67.86,-39.06 4.32,-2.49 9.69,-2.32 13.83,0.47 4.15,2.79 6.36,7.69 5.69,12.64 -7.94,58.65 -26.66,197 -30.77,227.24 -0.5,3.76 0.64,7.54 3.13,10.38 10,11.41 36.59,41.8 50.95,58.21 2.45,2.78 3.58,6.47 3.16,10.15 -0.42,3.67 -2.38,6.99 -5.4,9.14 -13.34,9.53 -34.73,24.82 -46.1,32.94 -4.59,3.28 -10.77,3.25 -15.34,-0.08 -9.33,-6.8 -24.88,-18.15 -33.07,-24.11 -0.83,-0.6 -1.95,-0.63 -2.79,-0.05 -0.86,0.56 -1.26,1.61 -1.01,2.61 2.17,8.84 6.13,24.86 8.93,36.24 0.84,3.43 0.26,7.06 -1.6,10.07 -1.88,3.01 -4.89,5.12 -8.34,5.87 -14.47,3.14 -37.52,8.15 -51.42,11.17 -6.65,1.45 -13.31,-2.45 -15.31,-8.97 -14.05,-45.85 -65.9,-215.06 -79.88,-260.67 -1.97,-6.46 1.28,-13.37 7.52,-15.94 16.02,-6.63 45.74,-18.93 63.34,-26.21 3.52,-1.46 7.52,-1.31 10.92,0.42 3.41,1.71 5.89,4.84 6.8,8.55 4.95,20.05 13.78,55.86 19.23,77.98z"/>
  <path fill="#F57513" d="M823.4 1776.33c-0.68,6.68 -6.32,11.77 -13.04,11.77 -15.32,0 -42.02,0 -58.06,0 -3.53,0 -6.89,-1.42 -9.35,-3.93 -2.47,-2.51 -3.82,-5.9 -3.75,-9.41 0.34,-19.09 0.99,-54.03 1.35,-73.55 0.07,-3.65 -1.38,-7.16 -4.01,-9.68 -2.64,-2.53 -6.2,-3.85 -9.84,-3.65 -14.47,0.84 -36.65,2.11 -49.73,2.86 -6.2,0.35 -11.31,5.02 -12.21,11.17 -3.62,24.58 -12.58,85.53 -16.43,111.57 -0.99,6.82 -7.11,11.7 -13.98,11.16 -17.2,-1.36 -48.45,-3.82 -66.3,-5.23 -3.54,-0.28 -6.82,-1.97 -9.07,-4.71 -2.26,-2.72 -3.32,-6.26 -2.93,-9.78 7.08,-64.24 37.44,-339.57 44.53,-403.85 0.39,-3.54 2.19,-6.75 5,-8.93 2.81,-2.17 6.37,-3.11 9.88,-2.6 20.64,2.97 59.9,8.62 80.29,11.55 3.44,0.5 6.56,2.35 8.64,5.14 2.07,2.79 2.97,6.29 2.46,9.74 -4.66,31.68 -16.57,112.53 -21.08,143.22 -1,6.79 3.42,13.21 10.12,14.69 8.99,2 21.39,4.74 31.18,6.91 3.82,0.85 7.84,-0.07 10.93,-2.5 3.09,-2.43 4.92,-6.12 4.99,-10.06 0.34,-18.26 0.88,-47.82 1.2,-64.94 0.06,-3.53 1.55,-6.88 4.12,-9.3 2.57,-2.42 6.01,-3.7 9.53,-3.55 20.59,0.87 59.77,2.53 80.65,3.42 3.6,0.15 6.98,1.79 9.35,4.52 2.35,2.73 3.49,6.31 3.12,9.9 -5.15,50.1 -22.77,221.48 -27.56,268.05z"/>
  <path fill="#F57513" d="M1570.24 1594.13c5.69,-2.38 8.93,-8.42 7.78,-14.47 -3.48,-18.58 -10.69,-56.73 -14.45,-76.63 -1.34,-7.04 3.24,-13.84 10.28,-15.27 15.98,-3.22 43.36,-8.76 59.94,-12.1 3.59,-0.73 7.32,0.09 10.28,2.24 2.98,2.16 4.9,5.46 5.32,9.1 6.27,54.34 28.73,248.98 34.49,298.85 0.76,6.67 -3.62,12.83 -10.16,14.3 -12.51,2.79 -32.21,7.2 -43.35,9.69 -2.21,0.49 -4.52,0.07 -6.42,-1.16 -1.89,-1.25 -3.19,-3.21 -3.61,-5.43l0 0c-0.49,-2.64 -2.96,-4.43 -5.63,-4.08 -57.84,7.11 -115.73,-33.2 -108.5,-119.84 3.97,-47.61 33.85,-72.35 64.03,-85.2zm24.57 74.13c-0.22,-1.2 -1.35,-2.01 -2.56,-1.86 -18.33,2.45 -31.21,15.86 -24.02,41.04 5.21,18.21 21.82,20.44 36.54,18.41 0.24,-0.04 0.45,-0.17 0.59,-0.37 0.14,-0.19 0.19,-0.43 0.14,-0.67 -1.23,-6.54 -8.85,-46.87 -10.69,-56.55z"/>
  <path fill="#FF1344" d="M962.16 1638.66c0.54,0.21 1.17,0.01 1.49,-0.49 11.39,-18.3 15.51,-41.56 -49.15,-29.9 -6.71,1.12 -13.14,-3.07 -14.82,-9.66 -2.47,-9.54 -5.83,-22.74 -8.12,-31.77 -1.55,-6.12 1.47,-12.47 7.19,-15.12 20.65,-9.19 70.74,-25.7 119.21,3.1 61.78,36.72 60.46,151.41 -40.83,242.9 -4.01,3.59 -9.78,4.38 -14.6,1.97 -10.32,-5.14 -28.21,-14.08 -37.46,-18.71 -1.44,-0.72 -2.5,-2.06 -2.85,-3.64 -0.36,-1.57 0.02,-3.24 1.02,-4.51l0 0c1.36,-1.75 1.75,-4.09 1,-6.18 -0.75,-2.09 -2.53,-3.65 -4.7,-4.13 -84.03,-18.53 -70.81,-111.79 -10.08,-126.28 21.66,-5.17 39.1,-2.89 52.7,2.42zm-12.69 40.67c14.2,4.91 22.43,18.44 18.37,30.2 -4.08,11.76 -18.9,17.33 -33.1,12.4 -14.2,-4.9 -22.43,-18.43 -18.36,-30.19 4.06,-11.76 18.89,-17.32 33.09,-12.41z"/>
  <path fill="#FF1344" d="M1703.59 1386.51c5.7,-4.32 13.8,-3.23 18.15,2.43 10.47,13.44 29.15,37.72 38.71,50.15 3.3,4.29 3.62,10.18 0.8,14.81 -5.59,9.15 -11.59,25.68 5.19,39.81 24.71,20.81 85.86,46.84 63.74,117.09 -17.13,54.44 -80.35,61.23 -107.95,61.52 -7.2,0 -13.04,-5.81 -13.07,-13.01 -0.07,-8.78 -0.13,-20.37 -0.18,-28.85 -0.02,-6.33 4.46,-11.77 10.68,-12.94 17.1,-3.26 48.24,-12.6 44.43,-36.91 -5.2,-33.29 -66.61,-21.85 -91.59,-79.09 -21.94,-50.3 4.71,-94.16 31.09,-115.01z"/>
  <path fill="#00F5A9" d="M1474.67 1751.51c-0.2,7.09 -6,12.75 -13.1,12.75 -12.82,0 -32.54,0 -45.88,0 -3.65,0 -7.15,-1.53 -9.63,-4.23 -2.49,-2.69 -3.72,-6.31 -3.41,-9.95 2.46,-29.57 8.1,-97.25 10.34,-124.26 0.56,-6.54 5.86,-11.67 12.43,-11.99 10.89,-0.53 27.27,-1.32 38.95,-1.89 3.64,-0.18 7.19,1.17 9.79,3.73 2.61,2.55 4.03,6.08 3.94,9.72 -0.81,29.61 -2.67,97.77 -3.43,126.12zm-24.41 -234.38c20.45,0 37.06,14.17 37.06,31.63 0,17.46 -16.61,31.64 -37.06,31.64 -20.45,0 -37.06,-14.18 -37.06,-31.64 0,-17.46 16.61,-31.63 37.06,-31.63z"/>
  <path fill="white" d="M1070.41 1855.15c0.06,0.52 0.14,1.04 0.22,1.56 3.99,25.22 47.46,19.28 69.26,14.63 6.9,-1.5 13.75,2.77 15.48,9.63 2.36,9.47 5.57,22.29 7.78,31.28 0.65,2.58 0.49,5.19 -0.36,7.54 -2.2,-8.79 -5.19,-20.64 -7.42,-29.52 -1.73,-6.79 -8.58,-11 -15.48,-9.52 -21.8,4.59 -65.27,10.47 -69.26,-14.49 -0.64,-4 -0.68,-7.69 -0.22,-11.11zm217.86 21.38l7.32 29.7c0.62,2.52 0.48,5.14 -0.38,7.53l-8.55 -34.36c-0.25,-0.99 0.15,-2.01 1.01,-2.59 0.19,-0.12 0.39,-0.22 0.6,-0.28zm45.46 -99.7c0.56,1.58 1.4,3.07 2.53,4.35 10,11.41 36.59,41.8 50.95,58.21 2.45,2.78 3.58,6.47 3.16,10.15 -0.13,1.15 -0.42,2.27 -0.84,3.32 -0.54,-1.36 -1.32,-2.63 -2.32,-3.74 -14.36,-16.26 -40.95,-46.34 -50.95,-57.64 -2.49,-2.82 -3.63,-6.57 -3.13,-10.28l0.6 -4.37zm-333.59 74.46c-0.27,-6.32 -0.01,-12.99 0.82,-20.03 9.27,-77.95 83.86,-98.52 114.63,-103.75 3.47,-0.53 7.01,0.36 9.81,2.46 2.81,2.1 4.67,5.24 5.15,8.71 1.99,14.41 5.18,37.72 7.16,52.22 0.29,2.1 0.06,4.15 -0.58,6.02 -1.98,-14.37 -4.78,-34.56 -6.58,-47.51 -0.48,-3.44 -2.34,-6.56 -5.15,-8.63 -2.8,-2.07 -6.34,-2.95 -9.81,-2.43 -30.77,5.17 -105.36,25.54 -114.63,102.72 -0.42,3.49 -0.69,6.89 -0.82,10.22zm-443.57 -41.02c-0.54,-1.71 -0.72,-3.53 -0.52,-5.35 7.08,-64.24 37.44,-339.57 44.53,-403.85 0.39,-3.54 2.19,-6.75 5,-8.93 2.81,-2.17 6.37,-3.11 9.88,-2.6 20.64,2.97 59.9,8.62 80.29,11.55 3.44,0.5 6.56,2.35 8.64,5.14 2.07,2.79 2.97,6.29 2.46,9.74l-1 6.77c-0.4,-0.85 -0.88,-1.69 -1.46,-2.47 -2.08,-2.76 -5.2,-4.59 -8.64,-5.08 -20.39,-2.9 -59.65,-8.49 -80.29,-11.44 -3.51,-0.5 -7.07,0.43 -9.88,2.58 -2.81,2.15 -4.61,5.35 -5,8.84l-44.01 395.1zm1007.99 -302.02l-0.99 -5.22c-1.34,-7.04 3.24,-13.84 10.28,-15.27 15.98,-3.22 43.36,-8.76 59.94,-12.1 3.59,-0.73 7.32,0.09 10.28,2.24 2.98,2.16 4.9,5.46 5.32,9.1 6.27,54.34 28.73,248.98 34.49,298.85 0.21,1.93 0.01,3.81 -0.55,5.55l-33.94 -291.16c-0.42,-3.61 -2.34,-6.87 -5.32,-9.01 -2.96,-2.14 -6.69,-2.94 -10.28,-2.22 -16.58,3.31 -43.96,8.79 -59.94,11.98 -4.25,0.84 -7.6,3.64 -9.29,7.26zm-642.18 266.16c0.82,0.71 1.47,1.62 1.86,2.68 0.41,1.15 0.48,2.39 0.22,3.54 -1.13,-0.77 -1.94,-1.94 -2.24,-3.29 -0.23,-0.99 -0.17,-2 0.16,-2.93zm-181.99 -64.39c0.11,0.76 0.17,1.52 0.16,2.28l-1.21 64.69c-0.11,-0.74 -0.17,-1.48 -0.14,-2.23l1.19 -64.74zm662.75 44.84c-0.46,-1.53 -0.63,-3.16 -0.49,-4.78 2.46,-29.57 8.1,-97.25 10.34,-124.26 0.56,-6.54 5.86,-11.67 12.43,-11.99 10.89,-0.53 27.27,-1.32 38.95,-1.89 3.64,-0.18 7.19,1.17 9.79,3.73 2.61,2.55 4.03,6.08 3.94,9.72l-0.25 8.98c-0.5,-2.55 -1.77,-4.91 -3.69,-6.75 -2.6,-2.53 -6.15,-3.87 -9.79,-3.69 -11.68,0.56 -28.06,1.35 -38.95,1.87 -6.57,0.32 -11.87,5.39 -12.43,11.87l-9.85 117.19zm163.5 -54.85c0.32,2.34 0.85,4.82 1.59,7.43 5.08,17.75 20.99,20.32 35.43,18.55l1.84 9.69c0.05,0.23 0,0.47 -0.14,0.67 -0.14,0.18 -0.35,0.31 -0.59,0.35 -14.72,2.02 -31.33,-0.2 -36.54,-18.23 -2.04,-7.08 -2.46,-13.24 -1.59,-18.46zm-650.49 3.61c2.26,7.9 9.09,15.04 18.59,18.31 14.2,4.93 29.02,-0.64 33.1,-12.4 0.08,-0.23 0.15,-0.47 0.22,-0.71 1.12,3.85 1.12,7.89 -0.22,11.73 -4.08,11.64 -18.9,17.15 -33.1,12.29 -13.92,-4.77 -22.11,-17.74 -18.59,-29.22zm223.56 -37.75l-0.67 -2.17c-1.97,-6.46 1.28,-13.37 7.52,-15.94 16.02,-6.63 45.74,-18.93 63.34,-26.21 3.52,-1.46 7.52,-1.31 10.92,0.42 3.41,1.71 5.89,4.84 6.8,8.55 4.95,20.05 13.78,55.86 19.23,77.98 0.42,1.71 2.01,2.88 3.77,2.77 1.76,-0.11 3.2,-1.44 3.42,-3.2 4.36,-35.1 13.3,-106.93 16.02,-128.82 0.51,-4.09 2.9,-7.69 6.46,-9.74 12.97,-7.47 45.45,-26.17 67.86,-39.06 4.32,-2.49 9.69,-2.32 13.83,0.47 4.15,2.79 6.36,7.69 5.69,12.64l-0.84 6.09c-0.95,-2.36 -2.61,-4.45 -4.85,-5.93 -4.14,-2.75 -9.51,-2.94 -13.83,-0.47 -22.41,12.78 -54.89,31.28 -67.86,38.68 -3.56,2.03 -5.95,5.59 -6.46,9.63 -2.72,21.68 -11.66,92.79 -16.02,127.54 -0.22,1.73 -1.66,3.07 -3.42,3.17 -1.76,0.1 -3.35,-1.05 -3.77,-2.76 -5.45,-21.88 -14.28,-57.34 -19.23,-77.19 -0.91,-3.67 -3.39,-6.76 -6.8,-8.47 -3.4,-1.7 -7.4,-1.85 -10.92,-0.41 -17.6,7.2 -47.32,19.39 -63.34,25.95 -3.13,1.28 -5.51,3.64 -6.85,6.48zm-170.47 -39.34c3.01,6.5 -0.59,15.4 -5.59,23.37 -0.32,0.49 -0.95,0.69 -1.49,0.48 -13.6,-5.25 -31.04,-7.52 -52.7,-2.4 -28.62,6.77 -46.7,30.86 -49,56.35 -2.69,-29.55 16.24,-60.28 49,-68.09 21.66,-5.17 39.1,-2.89 52.7,2.42 0.54,0.21 1.17,0.01 1.49,-0.49 2.34,-3.79 4.4,-7.79 5.59,-11.64zm607.9 -39.19l0.88 4.63c1.15,5.99 -2.09,11.97 -7.78,14.33 -30.18,12.72 -60.06,37.21 -64.03,84.36 -0.25,2.92 -0.43,5.8 -0.52,8.62 -0.22,-6.36 -0.06,-13 0.52,-19.95 3.97,-47.61 33.85,-72.35 64.03,-85.2 3.17,-1.34 5.59,-3.81 6.9,-6.79zm-684.67 -16.92l-0.91 -3.58c-1.55,-6.12 1.47,-12.47 7.19,-15.12 20.65,-9.19 70.74,-25.7 119.21,3.1 28.26,16.8 43.31,49.91 41.63,89.64 -1.47,-34.11 -16.22,-62.12 -41.63,-77.07 -48.47,-28.52 -98.56,-12.17 -119.21,-3.08 -2.83,1.29 -4.99,3.49 -6.28,6.11zm871.14 20.15c0.2,0.75 0.35,1.54 0.48,2.35 3.81,24.07 -27.33,33.31 -44.43,36.53 -5.8,1.09 -10.1,5.85 -10.62,11.57 -0.03,-3.75 -0.04,-7.38 -0.06,-10.56 -0.02,-6.33 4.46,-11.77 10.68,-12.94 14.54,-2.77 39.2,-9.93 43.95,-26.95zm-1077.01 -24.51c1.59,3.85 4.96,6.87 9.29,7.82 8.99,2 21.39,4.74 31.18,6.91 3.82,0.85 7.84,-0.07 10.93,-2.5 3.09,-2.43 4.92,-6.12 4.99,-10.06 0.34,-18.26 0.88,-47.82 1.2,-64.94 0.06,-3.53 1.55,-6.88 4.12,-9.3 2.57,-2.42 6.01,-3.7 9.53,-3.55 20.59,0.87 59.77,2.53 80.65,3.42 3.6,0.15 6.98,1.79 9.35,4.52 2.35,2.73 3.49,6.31 3.12,9.9l-0.74 7.22c-0.54,-1.45 -1.34,-2.8 -2.38,-4 -2.37,-2.7 -5.75,-4.32 -9.35,-4.47 -20.88,-0.87 -60.06,-2.52 -80.65,-3.39 -3.52,-0.14 -6.96,1.12 -9.53,3.52 -2.57,2.39 -4.06,5.72 -4.12,9.21 -0.32,16.95 -0.86,46.2 -1.2,64.3 -0.07,3.89 -1.9,7.54 -4.99,9.95 -3.09,2.41 -7.11,3.31 -10.93,2.46 -9.79,-2.13 -22.19,-4.86 -31.18,-6.83 -6.7,-1.47 -11.12,-7.81 -10.12,-14.54l0.83 -5.65zm1069.72 -87.2c1.34,4.97 4.41,10.04 10.12,14.85 21.91,18.45 72.45,40.99 68.23,94.81 -3.7,-44.61 -48.08,-64.84 -68.23,-81.64 -11.08,-9.24 -12.23,-19.5 -10.12,-28.02zm-342.36 76.24c-0.5,-2.04 -0.76,-4.17 -0.76,-6.34 0,-17.46 16.61,-31.63 37.06,-31.63 20.45,0 37.06,14.17 37.06,31.63 0,2.17 -0.26,4.3 -0.75,6.34 -3.44,-14.28 -18.4,-25.04 -36.31,-25.04 -17.91,0 -32.86,10.76 -36.3,25.04zm250.68 -84.4c-2.85,-36.96 18.14,-67.74 38.95,-84.19 5.7,-4.32 13.8,-3.23 18.15,2.43 10.47,13.44 29.15,37.72 38.71,50.15 3.3,4.29 3.62,10.18 0.8,14.81l-0.03 0.02c-0.23,-0.38 -0.49,-0.76 -0.77,-1.11 -9.56,-12.3 -28.24,-36.34 -38.71,-49.65 -4.35,-5.6 -12.45,-6.68 -18.15,-2.42 -18.22,14.26 -36.56,39.38 -38.95,69.96z"/>
 </g>
</svg>
